<svg width="25" height="24" viewBox="0 0 25 24" fill="none" xmlns="http://www.w3.org/2000/svg">
<path d="M7.44238 22.286V1.71456C7.44238 1.24118 7.05863 0.857422 6.58524 0.857422H2.29953C1.82614 0.857422 1.44238 1.24118 1.44238 1.71456V22.286C1.44238 22.7594 1.82614 23.1431 2.29953 23.1431H6.58524C7.05863 23.1431 7.44238 22.7594 7.44238 22.286ZM7.44238 22.286C7.44238 22.7594 7.82614 23.1431 8.29953 23.1431H12.5852C13.0586 23.1431 13.4424 22.7594 13.4424 22.286V5.14314C13.4424 4.66975 13.0586 4.28599 12.5852 4.28599H8.29953C7.82614 4.28599 7.44238 4.66975 7.44238 5.14314V22.286ZM1.44238 17.1431H7.44238M7.44238 15.4289H13.4424M17.7281 18.8574L22.6652 17.6231M14.9962 4.64903L18.3222 3.81668C18.7814 3.70176 19.2469 3.98087 19.3618 4.4401L23.5235 21.0701C23.6385 21.5293 23.3593 21.9948 22.9001 22.1097L19.5741 22.942C19.1149 23.057 18.6495 22.7779 18.5345 22.3186L14.3728 5.68862C14.2579 5.22939 14.537 4.76396 14.9962 4.64903Z" stroke="#000" stroke-width="2" stroke-linecap="round" stroke-linejoin="round"/>
<defs>
</defs>
</svg>
