<svg width="151" height="208" viewBox="0 0 151 208" fill="none" xmlns="http://www.w3.org/2000/svg">
<g clip-path="url(#clip0_1236_2772)">
<path d="M86.7463 78.7179C87.3263 80.2359 89.4603 80.8899 90.7913 79.9569C92.1213 79.0239 92.2343 76.7939 91.0053 75.7319C91.5553 76.5799 92.7963 76.8869 93.6773 76.3929C94.5583 75.8989 94.9463 74.6819 94.5113 73.7689C95.4233 74.2859 96.6683 74.1249 97.4193 73.3929C98.1703 72.6609 98.3623 71.4199 97.8683 70.4959C98.9583 70.7819 99.9343 69.6509 100.185 68.5529C100.436 67.4549 100.289 66.2709 100.704 65.2239C100.9 64.7309 101.211 64.2929 101.46 63.8249C102.712 61.4669 102.15 58.2899 100.165 56.5049C101.028 54.5049 100.019 51.9029 98.0333 51.0079C97.5523 50.7909 97.0353 50.6669 96.5473 50.4679C95.8663 50.1909 95.2533 49.7729 94.5923 49.4499C91.7893 48.0769 88.1593 48.6319 85.8933 50.7789C85.0723 51.5559 84.4003 52.6059 84.4593 53.7349C84.5183 54.8639 85.5673 55.9619 86.6763 55.7409C85.0123 55.2789 83.1923 55.8539 81.8053 56.8829C80.4183 57.9119 79.3953 59.3489 78.4563 60.7979C77.6673 62.0169 76.8913 63.3869 77.0593 64.8289C77.2273 66.2719 78.8303 67.5869 80.1203 66.9189C78.0773 71.0159 80.6763 76.6849 85.1143 77.8109L86.7463 78.7179Z" fill="#C23F37"/>
<path d="M97.8289 62.4939C96.8439 60.7309 94.5949 59.6609 92.6909 60.3309L93.8509 47.4399L78.0619 41.6099L62.7889 46.0449C61.8729 52.2749 60.9579 58.5049 60.0419 64.7349C59.5999 67.7439 59.1629 70.8569 59.9669 73.7889C60.7709 76.7209 65.6249 79.0119 68.6599 79.1999C68.5469 81.0299 68.4199 83.5389 68.3319 85.9259L67.4669 86.2719C65.5089 87.0569 64.7829 89.5309 64.2649 90.5139C63.2819 92.3799 64.2359 94.8369 65.5689 96.4719C66.2339 97.2879 67.0809 97.9379 67.9679 98.5039C71.8839 101.001 76.7659 101.935 81.3269 101.061C84.0089 100.547 86.6449 99.3729 88.4489 97.3229C90.2529 95.2729 91.0799 92.2549 90.0969 89.7069C89.7949 88.9239 89.4959 87.2689 88.9349 86.6559C89.2849 79.7779 89.6139 69.9319 89.2689 69.2599C89.8229 71.0009 91.8759 71.9839 93.6749 71.6639C95.4739 71.3439 96.9509 69.9539 97.7619 68.3169C98.6579 66.5069 98.8139 64.2569 97.8289 62.4939Z" fill="#F6A472"/>
<path d="M93.7389 58.3529C93.7029 58.2719 93.6219 58.224 93.5449 58.18C92.3539 57.504 91.1629 56.8279 89.9719 56.1529C89.5119 55.5819 88.7559 55.5129 88.1159 55.2319C87.5379 54.9779 87.0569 54.5509 86.5309 54.2009C84.2049 52.6539 81.1039 52.7229 78.4679 53.6479C78.1569 53.7569 77.8389 53.8789 77.5099 53.8619C77.1279 53.8419 76.7839 53.64 76.4349 53.485C75.7999 53.204 75.0999 53.0719 74.4069 53.1029C73.7199 53.1329 73.0299 53.3189 72.3539 53.1969C71.8109 53.0989 71.3239 52.8109 70.8269 52.5709C68.3459 51.3749 65.5249 51.6189 63.0419 52.8089L62.0779 52.902C61.4939 52.7 60.7209 53.2209 60.9819 53.9739C61.0779 54.2519 61.2969 54.4719 61.5649 54.5929C61.6719 54.6419 61.7789 54.6889 61.8739 54.7569C62.4829 55.1899 62.3019 56.1119 62.2079 56.8529C61.9679 58.7559 62.8569 60.3249 64.4289 61.4239C66.0009 62.5229 68.1879 62.6689 69.8919 61.7889C72.2529 60.5699 73.3659 58.1809 73.5189 55.5279C73.5299 55.3419 73.5409 55.1439 73.6529 54.9949C73.7379 54.8809 73.8709 54.814 74.0039 54.763C74.4919 54.577 74.9819 54.5529 75.4109 54.6119C76.0849 54.7029 76.5919 55.2719 76.6359 55.9499C76.7089 57.0789 76.8719 58.9509 77.1889 59.8219C78.4129 63.1819 81.4269 63.9069 82.8929 63.5829C83.8089 63.3809 84.6119 63.4219 85.3569 62.8499C86.4369 62.0219 87.5039 60.616 87.9139 59.319C88.1439 58.591 88.3239 57.6169 89.0799 57.5049C89.3549 57.4639 89.6469 57.5649 89.8979 57.3759C91.1899 57.8619 92.1709 58.9749 93.3709 59.6859C93.5359 59.3399 93.6609 58.9739 93.7419 58.5989C93.7579 58.5189 93.7729 58.4299 93.7389 58.3529ZM72.2889 57.249C72.1949 58.815 71.1369 60.2959 69.6279 60.9719C68.1199 61.6479 66.2219 61.4919 64.8569 60.5799C64.2659 60.1849 63.7699 59.6549 63.4789 59.0309C63.1759 58.3819 63.1039 57.6609 63.0569 56.9539C63.0029 56.1449 62.9879 55.2819 63.4319 54.5869C63.6859 54.1889 64.0729 53.8789 64.4899 53.6289C66.5269 52.4059 69.4349 52.6459 71.2229 54.1829C71.2289 54.1879 71.2349 54.1929 71.2409 54.1979C71.9799 54.8389 72.3629 55.7629 72.3169 56.7039L72.2889 57.249ZM87.1689 58.2039C87.0749 59.7709 86.0169 61.6849 84.5079 62.3609C82.9999 63.0369 81.1029 62.8809 79.7369 61.9689C79.1459 61.5739 78.6499 60.6099 78.3589 59.9869C78.0559 59.3379 77.9839 58.6169 77.9369 57.9099C77.8829 57.1009 77.8679 56.2379 78.3119 55.5429C78.5659 55.1449 78.9529 54.8349 79.3699 54.5849C81.4069 53.3629 84.3149 53.6019 86.1029 55.1389C86.1089 55.1439 86.1149 55.1489 86.1209 55.1539C86.8599 55.7949 87.2429 56.7189 87.1969 57.6599L87.1689 58.2039Z" fill="black"/>
<path d="M56.5475 101.112C54.1815 105.5 51.7535 110.119 51.7335 115.105C51.7205 118.389 52.7605 121.571 53.6245 124.739C56.1725 134.086 57.2485 143.832 56.8015 153.51C56.6075 157.703 56.1305 161.878 55.9285 166.07C55.4515 175.932 57.2075 200.315 58.2505 210.133C58.3035 210.63 58.3745 211.168 58.7265 211.524C58.9705 211.772 59.3145 211.89 59.6485 211.989C65.6705 213.772 72.2435 211.571 78.3875 212.873C80.7125 213.366 82.9015 214.347 85.1695 215.058C90.5435 216.744 96.3925 216.886 101.842 215.461C103.28 215.085 104.816 214.504 105.552 213.212C106.302 211.895 105.994 210.256 105.688 208.771C101.021 186.13 101.316 148.154 97.5655 125.343C96.7745 120.532 95.7725 115.744 95.4215 110.882C95.0145 105.236 94.3005 96.5816 92.3875 91.2546C87.2125 97.5806 82.5675 100.471 77.0525 100.264C71.5375 100.057 66.1265 97.3886 64.2095 88.9546L56.5475 101.112Z" fill="#89C7E0"/>
<path d="M68.4251 85.8887C63.8571 88.9317 62.3761 95.5467 63.9331 100.81C65.4911 106.073 68.7021 110.719 70.3451 115.956C72.4801 122.761 71.8381 130.073 71.6501 137.203C71.5451 141.197 71.5881 145.193 71.6321 149.188C71.7051 155.834 71.7781 162.479 71.8501 169.125C71.9841 181.338 72.8321 208.109 74.5231 220.205C71.3211 217.9 66.9781 220.021 63.1051 220.775C57.8171 221.804 52.0501 219.854 48.4721 215.827C47.5131 214.748 46.6141 213.471 45.2351 213.042C43.4791 212.496 41.6731 213.518 39.9911 214.261C36.7371 215.697 33.0591 216.154 29.5531 215.558L32.9791 169.131C30.7011 172.122 26.1331 172.721 22.7491 171.083C19.3651 169.445 17.1151 166.019 16.0641 162.409C15.0131 158.799 15.0101 154.977 15.0821 151.218C15.3281 138.422 16.4031 125.399 21.2171 113.541C23.5021 115.148 26.5871 116.782 28.8831 115.19C29.5691 114.714 30.0571 114.008 30.5011 113.301C33.9421 107.825 35.9911 101.006 41.4651 97.5617C44.1281 95.8867 47.2871 95.2457 50.2771 94.2677C53.9651 93.0617 57.4711 91.3007 60.6461 89.0687C62.5531 87.7277 65.9941 86.5357 68.2331 85.8887H68.4251Z" fill="#B7772F"/>
<path d="M89.058 86.6058C89.854 90.4808 90.64 94.5648 89.417 98.3268C88.358 101.582 85.901 104.22 84.705 107.427C83.883 109.631 83.69 112.014 83.568 114.364C82.421 136.404 87.531 172.887 87.718 194.956C87.794 203.935 87.174 212.944 88.09 221.877C93.951 221.438 99.58 224.209 105.44 224.654C111.872 225.142 118.47 222.64 122.962 218.01L120.179 171.38C124.309 171.383 130.719 170.547 133.991 168.026C136.582 166.03 138.022 162.821 138.515 159.588C139.009 156.355 139.187 151.047 138.772 147.803C137.377 136.905 132.664 126.571 129.931 115.929C129.607 114.666 129.258 113.373 128.499 112.313C126.918 110.106 123.898 109.344 122.207 107.221C120.749 105.389 120.513 102.836 119.171 100.917C116.363 96.9008 110.461 97.3558 105.632 96.5218C99.942 95.5388 94.747 92.0478 91.622 87.2018C91.068 86.3408 89.932 86.0748 89.058 86.6058Z" fill="#B7772F"/>
<path d="M112.75 122.56C113.745 118.174 111.442 113.814 109.757 109.644C108.071 105.474 107.157 100.166 110.266 96.9159C110.449 96.7239 110.654 96.5379 110.908 96.4599C111.589 96.2519 112.249 96.9329 112.41 97.6259C112.571 98.3189 112.432 99.0499 112.547 99.7529C112.828 101.477 114.841 102.667 116.504 102.133C118.167 101.6 119.117 99.5229 118.485 97.8949C117.853 96.2669 115.81 95.3709 114.164 95.9559C113.32 96.2559 112.111 96.7379 111.756 95.9159C111.59 95.5309 111.788 95.0899 112.016 94.7389C114.217 91.3519 119.904 91.1259 122.366 94.3289C122.637 94.6819 122.921 95.0959 123.36 95.1659C123.865 95.2469 124.302 94.8339 124.646 94.4549C125.559 93.4509 126.541 92.1669 126.13 90.8729C125.546 89.0329 122.514 88.5379 122.502 86.6079C122.495 85.3899 123.922 84.5559 125.121 84.7669C126.32 84.9779 127.262 85.9029 128.003 86.8689C128.744 87.8349 129.388 88.9079 130.357 89.6449C130.142 88.1539 130.07 86.6419 130.143 85.1369C130.166 84.6629 130.215 84.1579 130.51 83.7859C131.015 83.1479 132.068 83.2009 132.707 83.7069C133.345 84.2119 133.651 85.0249 133.85 85.8149C134.926 90.0989 133.665 94.5839 132.412 98.8189C133.722 99.0069 134.869 97.8069 135.25 96.5389C135.632 95.2719 135.5 93.9119 135.675 92.6009C135.772 91.8749 136.168 90.9979 136.899 91.0269C137.341 91.0449 137.685 91.4069 137.948 91.7619C139.827 94.2959 140.13 97.9039 138.7 100.716C137.231 103.605 134.264 105.426 132.402 108.079C130.227 111.177 129.741 115.108 129.121 118.842C128.983 119.672 128.818 120.541 128.287 121.194C127.769 121.831 126.978 122.17 126.215 122.473C121.993 124.145 116.119 125.493 112.702 122.502L112.75 122.56Z" fill="#F6A472"/>
<path d="M37.8463 118.717C36.8513 114.331 39.1543 109.971 40.8393 105.801C42.5253 101.631 43.4393 96.3227 40.3303 93.0727C40.1473 92.8807 39.9423 92.6947 39.6883 92.6167C39.0073 92.4087 38.3483 93.0897 38.1863 93.7827C38.0253 94.4757 38.1643 95.2067 38.0493 95.9097C37.7683 97.6337 35.7553 98.8227 34.0923 98.2897C32.4293 97.7557 31.4793 95.6797 32.1113 94.0517C32.7433 92.4237 34.7863 91.5277 36.4323 92.1127C37.2763 92.4127 38.4853 92.8947 38.8403 92.0727C39.0063 91.6877 38.8083 91.2467 38.5803 90.8957C36.3793 87.5087 31.5923 86.9037 29.1313 90.1057C28.8603 90.4587 28.4203 92.9107 27.9813 92.9807C27.4753 93.0617 26.2943 90.9897 25.9503 90.6117C25.0373 89.6077 24.0553 88.3237 24.4663 87.0297C25.0503 85.1897 28.0823 84.6947 28.0943 82.7647C28.1013 81.5467 26.6743 80.7127 25.4753 80.9237C24.2763 81.1347 23.3343 82.0597 22.5933 83.0257C21.8523 83.9917 21.2083 85.0647 20.2393 85.8017C20.4543 84.3107 20.5263 82.7987 20.4533 81.2937C20.4303 80.8197 20.3813 80.3147 20.0863 79.9427C19.5813 79.3047 18.5283 79.3577 17.8893 79.8637C17.2513 80.3687 16.9453 81.1817 16.7463 81.9717C15.6703 86.2547 16.9313 90.7397 18.1843 94.9757C16.8743 95.1637 15.7273 93.9627 15.3463 92.6957C14.9653 91.4287 15.0963 90.0687 14.9213 88.7577C14.8243 88.0317 14.4283 87.1537 13.6973 87.1837C13.2553 87.2017 12.9113 87.5637 12.6483 87.9187C10.7693 90.4527 10.4663 94.0607 11.8963 96.8727C13.3653 99.7617 16.3323 101.583 18.1943 104.236C20.3693 107.334 20.8553 111.265 21.4753 114.999C21.6133 115.829 21.7783 116.698 22.3093 117.351C22.8273 117.988 23.6183 118.327 24.3813 118.63C28.6033 120.302 34.3423 121.659 37.7583 118.668L37.8463 118.717Z" fill="#F6A472"/>
<path d="M91.6802 67.4408C92.7162 65.9128 94.3162 64.8218 96.1072 64.3888C96.5182 64.2898 96.3442 63.6548 95.9322 63.7548C93.9712 64.2278 92.2422 65.4418 91.1112 67.1088C90.8742 67.4608 91.4442 67.7898 91.6802 67.4408Z" fill="#7F4924"/>
<path d="M93.5927 65.4729C94.1687 66.4499 94.1177 67.7029 93.4837 68.6389C93.2457 68.9899 93.8157 69.3199 94.0517 68.9709C94.8137 67.8459 94.8487 66.3069 94.1607 65.1409C93.9457 64.7759 93.3767 65.1069 93.5927 65.4729Z" fill="#7F4924"/>
<path opacity="0.51" d="M68.6608 79.1997L81.9398 79.8507L68.4258 82.6297L68.6608 79.1997Z" fill="#7F4924"/>
<path d="M74.8994 54.7099C73.2784 58.4239 71.6374 62.2329 71.4154 66.3339C71.4024 66.5749 71.7084 66.7559 71.9104 66.6179C72.7674 66.0349 73.6244 65.4519 74.4814 64.8689C74.8294 64.6319 74.5004 64.0619 74.1494 64.3009C73.2924 64.8839 72.4354 65.4669 71.5784 66.0499C71.7434 66.1449 71.9084 66.2389 72.0734 66.3339C72.2884 62.3579 73.8954 58.6429 75.4674 55.0419C75.6354 54.6579 75.0684 54.3229 74.8994 54.7099Z" fill="#7F4924"/>
<path d="M70.6933 68.5576C71.1393 69.4076 72.0723 69.9776 73.0363 69.9616C73.9983 69.9466 74.9182 69.3536 75.3352 68.4876C75.5182 68.1076 74.9513 67.7736 74.7673 68.1556C74.4493 68.8166 73.7813 69.2916 73.0363 69.3036C72.2923 69.3166 71.6033 68.8776 71.2613 68.2256C71.0643 67.8506 70.4963 68.1826 70.6933 68.5576Z" fill="#7F4924"/>
<path d="M84.9102 58.287C84.9102 59.24 84.2662 60.012 83.4722 60.012C82.6782 60.012 82.0342 59.24 82.0342 58.287C82.0342 57.334 82.6782 56.562 83.4722 56.562C84.2662 56.562 84.9102 57.334 84.9102 58.287Z" fill="black"/>
<path d="M69.959 56.5619C69.959 57.5149 69.315 58.2869 68.521 58.2869C67.727 58.2869 67.083 57.5149 67.083 56.5619C67.083 55.6089 67.727 54.8369 68.521 54.8369C69.315 54.8359 69.959 55.6089 69.959 56.5619Z" fill="black"/>
<path d="M80.6432 49.5937C80.6302 49.7137 80.6342 49.8347 80.6552 49.9537C80.6922 50.1697 80.7752 50.5137 80.9802 50.6587C81.2982 50.8837 81.7012 50.9407 82.0872 50.9907C83.9072 51.2267 85.7282 51.4637 87.5482 51.6997C87.7002 51.7197 87.8612 51.7377 88.0012 51.6777C88.2162 51.5847 88.3192 51.3317 88.3262 51.0977C88.3522 50.1157 87.1972 49.5987 86.2492 49.3417C85.4862 49.1347 84.7222 48.9287 83.9592 48.7217L82.1502 48.4377C81.4102 48.3207 80.7222 48.8477 80.6432 49.5937Z" fill="black"/>
<path d="M72.6014 47.8686C72.6144 47.9886 72.6104 48.1096 72.5904 48.2286C72.5534 48.4446 72.4704 48.7886 72.2654 48.9336C71.9474 49.1586 71.5444 49.2156 71.1584 49.2656C69.3384 49.5016 67.5174 49.7386 65.6974 49.9746C65.5454 49.9946 65.3844 50.0126 65.2444 49.9526C65.0294 49.8596 64.9254 49.6066 64.9194 49.3726C64.8924 48.3906 66.0484 47.8736 66.9964 47.6166C67.7594 47.4096 68.5224 47.2026 69.2864 46.9966L71.0954 46.7126C71.8354 46.5956 72.5224 47.1226 72.6014 47.8686Z" fill="black"/>
<path d="M113.5 101.182C113.983 102.054 114.484 102.942 115.196 103.651C115.547 104.001 115.951 104.3 116.397 104.518C116.891 104.76 117.417 104.921 117.93 105.116C118.845 105.463 119.611 106.035 120.182 106.834C120.756 107.639 121.115 108.564 121.322 109.526C121.609 110.856 121.614 112.227 121.623 113.581C121.626 114.004 122.284 114.005 122.281 113.581C122.267 111.343 122.224 108.978 121.063 106.989C120.581 106.163 119.919 105.427 119.092 104.937C118.16 104.384 117.035 104.244 116.149 103.606C115.202 102.924 114.62 101.848 114.068 100.85C113.863 100.479 113.294 100.811 113.5 101.182Z" fill="#7F4924"/>
<path d="M129.762 86.9637C129.938 91.0147 129.225 95.0667 127.685 98.8167C127.524 99.2077 128.16 99.3787 128.319 98.9917C129.879 95.1937 130.598 91.0657 130.42 86.9637C130.401 86.5417 129.743 86.5397 129.762 86.9637Z" fill="#7F4924"/>
<path d="M124.122 88.5527C125.317 89.4057 125.619 91.0597 125.361 92.4247C125.03 94.1747 124.008 95.6707 123.219 97.2347C122.771 98.1227 122.385 99.0477 122.213 100.032C122.141 100.446 122.775 100.624 122.848 100.207C123.454 96.7397 127.013 93.8167 125.902 90.0677C125.653 89.2277 125.169 88.4947 124.453 87.9837C124.109 87.7377 123.78 88.3077 124.122 88.5527Z" fill="#7F4924"/>
<path d="M120.08 100.022C121.913 100.449 123.772 100.589 125.65 100.58C127.504 100.571 129.352 100.514 131.201 100.69C131.622 100.73 131.62 100.072 131.201 100.032C129.381 99.8588 127.562 99.9108 125.737 99.9208C123.887 99.9318 122.061 99.8078 120.255 99.3868C119.843 99.2908 119.667 99.9258 120.08 100.022Z" fill="#7F4924"/>
<path d="M134.735 97.5647C133.571 98.1657 132.502 98.9527 131.585 99.8887C131.127 100.356 130.708 100.862 130.33 101.396C129.954 101.926 129.653 102.53 129.165 102.971C128.678 103.411 128.035 103.65 127.509 104.04C127.006 104.413 126.56 104.849 126.172 105.34C125.371 106.356 124.823 107.544 124.471 108.785C124.011 110.408 123.868 112.101 123.726 113.775C123.69 114.197 124.348 114.195 124.384 113.775C124.612 111.097 124.871 108.266 126.484 106.012C126.83 105.528 127.242 105.085 127.706 104.712C128.204 104.311 128.793 104.062 129.309 103.691C129.851 103.301 130.211 102.767 130.569 102.214C130.912 101.684 131.289 101.181 131.712 100.712C132.666 99.6537 133.801 98.7847 135.066 98.1317C135.443 97.9387 135.111 97.3707 134.735 97.5647Z" fill="#7F4924"/>
<path d="M38.113 94.8897C37.94 95.9467 37.441 96.9207 36.658 97.6557C35.872 98.3947 34.826 98.7777 34.032 99.5097C32.396 101.017 32.65 103.554 32.814 105.56C32.923 106.9 33.15 108.23 33.749 109.445C33.936 109.825 34.504 109.492 34.317 109.113C33.802 108.067 33.593 106.906 33.489 105.753C33.393 104.685 33.309 103.586 33.401 102.515C33.487 101.512 33.816 100.561 34.594 99.8877C35.387 99.2027 36.391 98.8197 37.154 98.0897C37.993 97.2867 38.56 96.2077 38.747 95.0627C38.815 94.6507 38.181 94.4717 38.113 94.8897Z" fill="#7F4924"/>
<path d="M17.5977 95.4077C18.4727 96.6147 19.5617 97.6487 20.8237 98.4437C21.4357 98.8297 22.0837 99.1467 22.7557 99.4157C23.4977 99.7127 24.2637 99.9577 24.9637 100.349C27.1197 101.555 27.9427 104.061 28.9367 106.166C29.5187 107.399 30.1977 108.612 31.2077 109.547C31.5177 109.835 31.9847 109.37 31.6727 109.082C29.8867 107.428 29.2367 104.971 28.1127 102.887C27.5567 101.855 26.8637 100.892 25.9167 100.184C24.7047 99.2777 23.1707 98.9837 21.8497 98.2787C20.3997 97.5057 19.1297 96.4057 18.1647 95.0747C17.9197 94.7357 17.3487 95.0637 17.5977 95.4077Z" fill="#7F4924"/>
<path d="M17.2705 95.5926C21.3915 95.0136 25.5135 94.4346 29.6345 93.8556C30.0525 93.7966 29.8745 93.1626 29.4595 93.2216C25.3385 93.8006 21.2165 94.3796 17.0955 94.9586C16.6785 95.0166 16.8555 95.6506 17.2705 95.5926Z" fill="#7F4924"/>
<path d="M20.1069 85.2729C20.5699 88.3139 21.5419 91.2619 22.9649 93.9879C23.1609 94.3639 23.7289 94.0309 23.5329 93.6559C22.1349 90.9789 21.1949 88.0829 20.7409 85.0979C20.6779 84.6809 20.0439 84.8579 20.1069 85.2729Z" fill="#7F4924"/>
<path d="M94.5306 60.3426C93.4276 60.0596 93.0545 61.8966 92.0315 62.3976C91.0625 62.8726 89.8945 61.7886 89.9385 60.7106C89.9835 59.6326 90.8235 58.7516 91.7295 58.1666C90.2075 57.1276 90.4716 54.3816 92.1646 53.6516C91.1146 51.9596 91.0806 49.6866 92.0806 47.9636C90.4536 48.2276 88.7166 47.7026 87.5086 46.5816C87.0056 46.1146 86.5416 45.5226 85.8686 45.3856C85.3756 45.2846 84.8716 45.4536 84.3706 45.5016C82.8816 45.6446 81.3716 44.5576 81.0346 43.1006C79.0326 43.0306 77.0185 43.3216 75.1195 43.9566C74.0635 44.3096 73.0196 44.7726 71.9076 44.8246C70.6626 44.8826 69.3735 44.4236 68.1955 44.8296C67.5275 45.0596 66.9836 45.5426 66.3926 45.9306C64.2756 47.3226 61.3906 47.4516 59.1576 46.2526C57.9956 45.6286 56.9505 44.5346 56.9175 43.2166C56.8845 41.8986 58.3286 40.6136 59.5186 41.1826C59.2866 39.9576 59.8445 38.6186 60.8785 37.9206C61.9125 37.2236 63.3636 37.2076 64.4126 37.8826C61.9636 37.8506 60.3036 35.0616 60.5346 32.6236C60.7656 30.1856 62.2926 28.0926 63.7656 26.1356C64.3486 25.3606 64.9835 24.5466 65.8975 24.2226C66.8115 23.8986 68.0575 24.3356 68.2085 25.2926C68.9775 24.2406 70.6256 24.1066 71.7246 24.8076C72.8226 25.5086 73.3965 26.8416 73.4715 28.1426C74.4925 26.5986 76.5796 25.8546 78.3476 26.4046C80.1146 26.9546 81.4116 28.7506 81.3776 30.6016C81.8936 29.7786 82.4095 28.9556 82.9265 28.1326C83.8215 26.7056 84.8516 25.1716 86.4656 24.6896C88.0796 24.2076 90.2195 25.6056 89.7215 27.2146C90.8225 25.9066 92.9955 25.6866 94.3355 26.7486C95.6765 27.8106 95.9595 29.9756 94.9385 31.3476C96.5765 30.6136 98.6016 31.9986 98.9706 33.7556C99.3396 35.5126 98.4216 37.3296 97.1166 38.5626C98.7306 40.1376 99.0636 42.8596 97.8776 44.7776C98.0196 43.9436 99.3046 43.8066 99.9016 44.4056C100.499 45.0046 100.562 45.9416 100.539 46.7876C100.509 47.8966 100.354 49.0936 99.5875 49.8956C101.073 51.0406 100.645 53.3476 100.071 55.1336C99.7105 56.2526 99.3505 57.3736 98.8935 58.4566C98.4855 59.4216 97.9486 60.4126 97.0236 60.9056C96.0986 61.3986 94.7096 61.1286 94.3666 60.1376L94.5306 60.3426Z" fill="#C23F37"/>
<path d="M69.494 33.299C68.572 32.879 67.521 33.006 66.658 33.515C65.804 34.019 65.182 34.843 64.698 35.691C64.178 36.602 63.753 37.643 63.811 38.711C63.859 39.587 64.232 40.468 64.939 41.011C65.763 41.644 66.852 41.619 67.814 41.372C68.806 41.117 69.764 40.659 70.6 40.07C71.339 39.549 72.121 38.881 72.302 37.944C72.471 37.071 71.86 36.305 70.953 36.331C70.044 36.357 69.124 36.942 68.469 37.535C67.824 38.119 67.35 38.982 67.626 39.867C67.913 40.788 68.805 41.373 69.677 41.664C70.594 41.969 71.597 41.947 72.532 41.741C73.506 41.526 74.456 41.106 75.281 40.546C76.041 40.03 76.726 39.364 77.06 38.492C77.215 38.086 77.333 37.547 77.131 37.138C76.936 36.743 76.494 36.581 76.074 36.627C75.303 36.711 74.795 37.389 74.69 38.118C74.581 38.868 74.826 39.654 75.385 40.175C76.069 40.813 77.005 41.05 77.914 41.119C79.964 41.276 82.129 40.81 83.97 39.914C84.439 39.686 84.888 39.423 85.319 39.129C85.667 38.892 85.338 38.322 84.987 38.561C83.555 39.537 81.901 40.139 80.186 40.373C79.372 40.484 78.524 40.533 77.705 40.443C76.989 40.364 76.239 40.137 75.734 39.596C75.359 39.194 75.231 38.563 75.375 38.038C75.439 37.803 75.562 37.58 75.762 37.433C75.946 37.299 76.324 37.171 76.505 37.377C76.724 37.625 76.485 38.211 76.363 38.461C76.203 38.792 75.981 39.083 75.722 39.344C75.181 39.889 74.507 40.299 73.812 40.619C72.377 41.282 70.558 41.567 69.142 40.704C68.536 40.335 68.035 39.693 68.26 38.952C68.47 38.263 69.151 37.769 69.745 37.424C70.208 37.155 71.276 36.626 71.618 37.34C71.9 37.928 71.272 38.679 70.867 39.036C70.231 39.595 69.484 40.049 68.705 40.379C67.948 40.7 67.068 40.983 66.236 40.863C65.48 40.754 64.903 40.236 64.64 39.528C64.352 38.752 64.452 37.926 64.726 37.161C65.005 36.384 65.446 35.608 65.977 34.976C66.503 34.35 67.188 33.837 68.018 33.724C68.403 33.671 68.804 33.712 69.159 33.874C69.545 34.041 69.88 33.474 69.494 33.299Z" fill="#6B1212"/>
<path d="M87.3517 32.3349C87.3427 31.8369 87.7457 31.4599 88.2037 31.3369C88.8157 31.1719 89.2497 31.5689 89.4527 32.1239C89.7337 32.8879 89.7547 33.7809 89.6587 34.5819C89.5997 35.0699 89.4787 36.0819 88.8727 36.2249C88.6087 36.2869 88.3657 36.0969 88.2377 35.8809C88.0747 35.6059 88.1097 35.2949 88.2977 35.0409C88.7337 34.4539 89.5367 34.4579 90.1577 34.6989C91.4177 35.1859 92.5237 36.4269 92.7697 37.7629C93.0247 39.1469 92.0407 40.7939 90.5207 40.7629C90.6267 40.9019 90.7327 41.0409 90.8377 41.1789C90.9307 40.7349 91.2987 40.4569 91.7247 40.3519C92.2577 40.2209 92.8277 40.4079 93.3197 40.6079C94.1187 40.9329 95.0987 41.4109 95.4707 42.2449C95.8927 43.1909 95.1237 44.2549 94.5617 44.9719C93.9587 45.7409 93.2147 46.4109 92.3537 46.8799C91.4207 47.3879 90.3497 47.6149 89.3027 47.3759C88.8907 47.2819 88.7147 47.9159 89.1277 48.0099C91.4767 48.5459 93.7127 47.1379 95.1057 45.3359C95.8247 44.4059 96.5967 43.1769 96.0687 41.9799C95.6207 40.9639 94.5167 40.3919 93.5417 39.9919C92.8877 39.7239 92.1367 39.5269 91.4387 39.7479C90.8487 39.9349 90.3327 40.3809 90.2027 41.0039C90.1587 41.2149 90.2957 41.4159 90.5197 41.4199C92.3207 41.4559 93.6387 39.6179 93.4507 37.9179C93.3497 36.9989 92.9217 36.1619 92.3147 35.4729C91.6947 34.7679 90.8197 34.1179 89.8837 33.9339C89.0257 33.7659 88.0207 34.0619 87.6177 34.8999C87.2507 35.6619 87.6697 36.6749 88.5247 36.8679C89.4517 37.0769 89.9987 36.1489 90.1797 35.3859C90.4287 34.3349 90.4467 33.1539 90.1387 32.1129C89.8707 31.2059 89.1757 30.4969 88.1777 30.6709C87.3787 30.8099 86.6757 31.4979 86.6917 32.3359C86.7017 32.7579 87.3597 32.7589 87.3517 32.3349Z" fill="#6B1212"/>
<path d="M75.4379 29.5599C73.9849 29.9189 73.3529 31.6749 73.9299 32.9729C74.6229 34.5299 76.4669 35.0779 78.0329 34.7939C78.9079 34.6359 79.8469 34.2539 80.5459 33.6969C81.1209 33.2389 81.4499 32.3809 80.8729 31.7759C80.2789 31.1519 79.4819 31.6709 79.2429 32.3409C78.9899 33.0519 79.2089 33.9049 79.5999 34.5229C80.7269 36.3049 83.0039 36.4589 84.8409 35.8499C85.2409 35.7179 85.0699 35.0819 84.6659 35.2159C83.4129 35.6309 81.8699 35.7499 80.7779 34.8689C80.3179 34.4979 79.9669 33.9869 79.8409 33.4049C79.7889 33.1639 79.7769 32.8999 79.8339 32.6589C79.8779 32.4749 80.0339 32.0869 80.2909 32.1609C80.4659 32.2109 80.5359 32.4659 80.5179 32.6259C80.4809 32.9359 80.1809 33.1709 79.9389 33.3269C79.3519 33.7079 78.6819 33.9879 77.9989 34.1329C76.8119 34.3839 75.4069 34.0869 74.7009 33.0169C74.0639 32.0519 74.3839 30.4979 75.6109 30.1949C76.0239 30.0929 75.8499 29.4579 75.4379 29.5599Z" fill="#6B1212"/>
<path d="M95.2642 48.6716C95.6212 48.4736 95.9542 48.8736 96.0232 49.1886C96.1252 49.6506 95.9702 50.1706 95.8212 50.6066C95.5152 51.4976 94.9532 52.2746 94.2312 52.8746C94.4142 52.9816 94.5982 53.0876 94.7812 53.1946C94.9092 52.5296 95.5362 52.0746 96.2022 52.0526C96.9592 52.0266 97.6062 52.5666 97.9542 53.2006C98.3892 53.9936 98.3482 54.9556 98.1232 55.8046C97.9292 56.5366 97.5822 57.4926 96.7722 57.7286C96.4322 57.8276 95.9682 57.7926 95.7862 57.4416C95.6512 57.1816 95.6802 56.8206 95.9542 56.6716C96.3262 56.4696 95.9942 55.9016 95.6222 56.1036C94.7672 56.5676 94.9352 57.8826 95.7572 58.2816C96.8312 58.8036 97.9092 57.9836 98.3702 57.0396C98.8932 55.9666 99.1442 54.6196 98.7762 53.4616C98.4702 52.4976 97.6812 51.6186 96.6552 51.4316C95.5802 51.2356 94.3622 51.9046 94.1472 53.0196C94.0832 53.3516 94.4412 53.5526 94.6972 53.3396C95.6572 52.5426 96.3532 51.4226 96.6192 50.2006C96.7482 49.6096 96.7832 48.9206 96.3742 48.4246C96.0252 48.0006 95.4232 47.8316 94.9332 48.1036C94.5622 48.3086 94.8932 48.8766 95.2642 48.6716Z" fill="#6B1212"/>
<path d="M93.4489 55.88C92.5629 56.114 91.8769 57.011 91.9519 57.939C92.0309 58.904 92.8029 59.664 93.7499 59.784C93.9259 59.806 94.0789 59.617 94.0789 59.455C94.0789 59.258 93.9269 59.149 93.7499 59.126C93.1609 59.051 92.6359 58.485 92.6069 57.893C92.5749 57.265 93.0179 56.674 93.6239 56.515C94.0329 56.406 93.8589 55.772 93.4489 55.88Z" fill="#6B1212"/>
<path d="M90.8152 74.9426C92.0952 75.6636 93.9692 74.8146 94.1962 73.3376C94.2232 73.1626 94.1512 72.9836 93.9662 72.9326C93.8102 72.8896 93.5882 72.9856 93.5612 73.1626C93.4762 73.7186 93.1302 74.1186 92.6232 74.3706C92.4082 74.4776 92.1242 74.5486 91.8792 74.5536C91.6122 74.5586 91.3772 74.5046 91.1462 74.3756C90.7782 74.1666 90.4462 74.7346 90.8152 74.9426Z" fill="#6B1212"/>
<path d="M98.931 58.7716C99.187 58.6406 99.357 59.1696 99.347 59.3366C99.333 59.5656 99.247 59.7906 99.176 60.0066C99.095 60.2516 99.033 60.4926 99.005 60.7496C98.97 61.0656 99.372 61.1386 99.566 60.9826C99.925 60.6926 100.548 60.8076 100.791 61.1916C101.054 61.6076 100.834 62.1866 100.417 62.3976C100.039 62.5886 100.372 63.1566 100.749 62.9656C101.499 62.5856 101.807 61.5226 101.33 60.8146C100.834 60.0776 99.774 59.9736 99.101 60.5166C99.288 60.5936 99.475 60.6716 99.663 60.7496C99.733 60.1116 100.176 59.5246 99.931 58.8676C99.729 58.3246 99.168 57.9126 98.599 58.2036C98.221 58.3966 98.554 58.9646 98.931 58.7716Z" fill="#6B1212"/>
<path d="M63.4666 30.1246C61.6326 29.0506 58.9966 29.7036 58.0366 31.6506C57.1686 33.4116 57.7406 35.7386 59.2416 36.9786C59.9756 37.5856 61.3546 38.1466 62.0446 37.1616C62.3666 36.7016 62.3256 36.0746 62.0726 35.5936C61.9406 35.3426 61.7446 35.1196 61.5326 34.9336C61.3056 34.7356 61.0436 34.4846 60.7336 34.4696C59.6236 34.4146 58.4926 34.8456 57.6406 35.5416C56.7256 36.2896 56.1846 37.3946 56.1106 38.5696C56.0296 39.8716 56.5596 41.1776 57.5956 41.9836C58.5766 42.7476 59.8906 43.0446 61.0936 42.6986C61.4996 42.5816 61.3276 41.9466 60.9186 42.0646C59.0946 42.5886 57.1976 41.3636 56.8266 39.5296C56.4316 37.5756 57.7286 35.7466 59.6126 35.2546C59.8196 35.2006 60.0316 35.1596 60.2446 35.1416C60.3656 35.1316 60.4876 35.1266 60.6096 35.1266C60.7396 35.1266 60.7466 35.1516 60.8606 35.2356C61.2256 35.5046 61.5996 35.8716 61.6166 36.3546C61.6326 36.8216 61.2836 37.0696 60.8436 37.0336C60.4336 36.9996 60.0496 36.7886 59.7336 36.5366C58.5106 35.5606 57.9596 33.7666 58.4786 32.2836C59.1236 30.4416 61.4976 29.7356 63.1336 30.6936C63.5006 30.9076 63.8316 30.3386 63.4666 30.1246Z" fill="#C23F37"/>
<path d="M83.5887 28.8878C84.3307 26.9698 85.9807 25.3318 87.9937 24.8028C88.9847 24.5418 90.0567 24.5928 90.9657 25.0918C91.7407 25.5168 92.3757 26.2418 92.5177 27.1338C92.6647 28.0558 92.2867 29.0718 91.4727 29.5618C91.6337 29.6278 91.7947 29.6928 91.9557 29.7588C91.7857 28.5478 92.8687 27.5668 93.9477 27.2988C95.1797 26.9928 96.5717 27.3328 97.6947 27.8708C98.7787 28.3898 99.7417 29.1888 100.289 30.2738C100.824 31.3338 100.957 32.6858 100.394 33.7638C99.8337 34.8368 98.6047 35.6248 97.3707 35.4348C96.9567 35.3718 96.7777 36.0048 97.1957 36.0688C98.5447 36.2758 99.8597 35.6488 100.665 34.5648C101.525 33.4068 101.599 31.8218 101.101 30.5008C100.6 29.1688 99.5727 28.1268 98.3317 27.4578C97.0307 26.7568 95.4287 26.3358 93.9557 26.6238C92.4077 26.9268 91.0897 28.2888 91.3207 29.9338C91.3507 30.1478 91.6407 30.2288 91.8037 30.1308C92.6867 29.5998 93.1797 28.6118 93.2027 27.5948C93.2277 26.5118 92.6697 25.5258 91.8247 24.8738C89.8087 23.3178 87.0617 24.0298 85.2357 25.5248C84.2067 26.3668 83.4317 27.4768 82.9527 28.7138C82.8017 29.1078 83.4367 29.2788 83.5887 28.8878Z" fill="#C23F37"/>
<path d="M111.008 130.568C116.27 131.665 121.932 132.66 127.068 130.494C128.328 129.962 129.497 129.249 130.527 128.346C130.846 128.066 130.379 127.603 130.062 127.881C126.199 131.269 120.703 131.5 115.863 130.799C114.292 130.572 112.736 130.258 111.183 129.934C110.769 129.848 110.593 130.482 111.008 130.568Z" fill="#6D331F"/>
<path d="M128.11 121.524C128.519 122.705 129.001 123.862 129.476 125.017C130.174 126.713 130.891 128.402 131.61 130.089C133.144 133.69 134.703 137.281 136.201 140.897C136.752 142.227 137.314 143.558 137.785 144.918C137.923 145.316 138.558 145.145 138.419 144.743C138.01 143.562 137.528 142.405 137.053 141.25C136.355 139.554 135.638 137.865 134.919 136.178C133.385 132.577 131.826 128.986 130.328 125.371C129.777 124.041 129.215 122.71 128.744 121.35C128.607 120.951 127.971 121.122 128.11 121.524Z" fill="#6D331F"/>
<path d="M94.8617 93.5217C94.8367 95.7037 94.6737 97.8857 94.3567 100.045C94.0467 102.157 93.5797 104.243 93.0927 106.32C92.7977 107.58 92.3357 109.315 91.0177 109.878C89.7727 110.41 88.0467 109.394 86.9847 110.448C86.2277 111.2 86.5867 112.45 86.7017 113.376C86.8507 114.583 86.9997 115.791 87.1487 116.998C87.1997 117.413 87.8587 117.418 87.8067 116.998C87.6757 115.933 87.5437 114.868 87.4127 113.802C87.3477 113.276 87.2787 112.75 87.2177 112.223C87.1697 111.81 87.1117 111.321 87.3937 110.974C87.7997 110.475 88.6627 110.619 89.2187 110.66C89.9497 110.713 90.6817 110.752 91.3647 110.439C92.7067 109.823 93.2887 108.209 93.6327 106.883C94.1507 104.886 94.5777 102.844 94.9017 100.807C95.2857 98.3967 95.4927 95.9617 95.5197 93.5217C95.5237 93.0987 94.8657 93.0977 94.8617 93.5217Z" fill="#6D331F"/>
<path d="M60.7362 89.9377C59.0152 94.9267 58.2692 100.252 58.5652 105.522C58.6322 106.706 58.6322 108.036 59.1492 109.128C59.5362 109.946 60.2622 110.484 61.0842 110.813C62.6652 111.447 64.5402 111.32 65.9972 112.27C67.0102 112.931 67.3672 114.109 67.5802 115.238C67.8612 116.729 68.0702 118.237 68.3122 119.735C68.3792 120.152 69.0132 119.975 68.9462 119.56C68.7302 118.218 68.5202 116.876 68.2972 115.535C68.1182 114.454 67.8752 113.333 67.1742 112.459C66.0402 111.045 64.0972 110.911 62.4582 110.536C61.6942 110.362 60.8832 110.132 60.2942 109.587C59.4412 108.797 59.3772 107.577 59.2902 106.491C59.0802 103.892 59.1262 101.273 59.4202 98.6827C59.7512 95.7657 60.4132 92.8877 61.3712 90.1127C61.5092 89.7117 60.8742 89.5387 60.7362 89.9377Z" fill="#6D331F"/>
<path d="M87.5294 132.284C87.3014 133.213 87.8664 134.153 88.6914 134.573C89.1094 134.785 89.5804 134.872 90.0424 134.77C90.4734 134.674 90.8364 134.404 91.0954 134.053C91.5784 133.399 91.6324 132.465 91.2994 131.735C90.9234 130.913 90.0364 130.55 89.1744 130.698C88.2034 130.864 87.3784 131.657 87.2814 132.649C87.2644 132.826 87.4444 132.978 87.6104 132.978C87.8024 132.978 87.9224 132.827 87.9394 132.649C87.9644 132.388 88.1114 132.092 88.3054 131.885C88.5154 131.661 88.7814 131.493 89.0624 131.402C89.3624 131.305 89.6614 131.284 89.9504 131.365C90.0924 131.405 90.2104 131.46 90.3484 131.56C90.4164 131.61 90.5504 131.753 90.5994 131.826C90.7624 132.07 90.8424 132.352 90.8534 132.624C90.8604 132.79 90.8494 132.919 90.8244 133.043C90.8094 133.117 90.7904 133.191 90.7674 133.263C90.7554 133.302 90.7414 133.34 90.7264 133.378C90.7264 133.378 90.7044 133.429 90.7164 133.403C90.7254 133.382 90.6894 133.458 90.6894 133.458C90.5524 133.731 90.3954 133.909 90.1304 134.045C89.8594 134.185 89.5404 134.186 89.2364 134.091C88.9074 133.988 88.5824 133.749 88.3854 133.462C88.1704 133.15 88.0774 132.806 88.1634 132.458C88.2644 132.048 87.6304 131.873 87.5294 132.284Z" fill="#6D331F"/>
<path d="M89.6378 159.503C89.4098 160.432 89.9748 161.372 90.7998 161.792C91.2178 162.004 91.6888 162.091 92.1508 161.989C92.5818 161.893 92.9448 161.623 93.2038 161.272C93.6868 160.618 93.7408 159.684 93.4068 158.954C93.0308 158.132 92.1438 157.769 91.2818 157.917C90.3108 158.083 89.4858 158.876 89.3888 159.868C89.3718 160.045 89.5528 160.197 89.7178 160.197C89.9098 160.197 90.0298 160.046 90.0468 159.868C90.0718 159.607 90.2188 159.311 90.4128 159.104C90.6228 158.88 90.8888 158.712 91.1698 158.621C91.4698 158.524 91.7688 158.503 92.0578 158.584C92.1998 158.624 92.3178 158.679 92.4558 158.779C92.5238 158.829 92.6578 158.972 92.7068 159.045C92.8698 159.289 92.9498 159.571 92.9608 159.843C92.9678 160.009 92.9568 160.138 92.9318 160.262C92.9168 160.336 92.8978 160.41 92.8748 160.482C92.8628 160.521 92.8488 160.559 92.8338 160.597C92.8338 160.597 92.8118 160.648 92.8238 160.622C92.8328 160.602 92.7968 160.677 92.7968 160.677C92.6598 160.95 92.5028 161.128 92.2378 161.264C91.9668 161.404 91.6478 161.405 91.3438 161.31C91.0148 161.207 90.6898 160.968 90.4928 160.681C90.2778 160.369 90.1848 160.025 90.2708 159.677C90.3738 159.267 89.7388 159.091 89.6378 159.503Z" fill="#6D331F"/>
<path d="M91.7462 186.722C91.5182 187.651 92.0832 188.592 92.9082 189.011C93.3262 189.223 93.7982 189.31 94.2592 189.208C94.6902 189.112 95.0532 188.842 95.3122 188.491C95.7952 187.836 95.8492 186.903 95.5162 186.173C95.1402 185.351 94.2532 184.988 93.3912 185.136C92.4202 185.302 91.5952 186.095 91.4982 187.087C91.4812 187.264 91.6612 187.416 91.8272 187.416C92.0192 187.416 92.1392 187.265 92.1562 187.087C92.1812 186.826 92.3282 186.53 92.5222 186.323C92.7322 186.099 92.9982 185.931 93.2802 185.84C93.5802 185.743 93.8792 185.722 94.1682 185.803C94.3102 185.843 94.4282 185.898 94.5662 185.998C94.6342 186.048 94.7682 186.191 94.8172 186.264C94.9802 186.508 95.0602 186.79 95.0712 187.062C95.0782 187.228 95.0672 187.357 95.0422 187.481C95.0272 187.555 95.0082 187.629 94.9852 187.701C94.9732 187.74 94.9592 187.778 94.9442 187.816C94.9442 187.816 94.9222 187.867 94.9342 187.841C94.9432 187.821 94.9072 187.896 94.9072 187.896C94.7702 188.169 94.6132 188.347 94.3482 188.483C94.0772 188.623 93.7582 188.624 93.4542 188.529C93.1252 188.426 92.8002 188.187 92.6032 187.9C92.3882 187.588 92.2952 187.244 92.3812 186.896C92.4812 186.486 91.8472 186.31 91.7462 186.722Z" fill="#6D331F"/>
<path d="M38.421 119.708C39.064 123.528 39.618 127.363 40.079 131.21C40.538 135.032 40.907 138.865 41.186 142.704C41.462 146.495 41.704 150.306 41.736 154.108C41.765 157.535 41.506 161.15 39.876 164.236C38.563 166.721 36.365 168.911 33.576 169.61C33.233 169.696 32.884 169.758 32.532 169.795C32.115 169.838 32.111 170.497 32.532 170.453C35.507 170.145 38.007 168.267 39.668 165.852C41.624 163.008 42.244 159.513 42.368 156.124C42.437 154.255 42.364 152.384 42.288 150.516C42.207 148.539 42.102 146.563 41.973 144.589C41.716 140.64 41.364 136.697 40.917 132.765C40.469 128.822 39.927 124.889 39.291 120.972C39.213 120.493 39.134 120.013 39.053 119.535C38.986 119.117 38.352 119.293 38.421 119.708Z" fill="#6D331F"/>
<path d="M18.1492 125.453C20.3822 127.237 23.0252 128.457 25.8202 129.046C28.6012 129.632 31.5082 129.614 34.2762 128.958C35.8432 128.587 37.3602 128.003 38.7702 127.225C39.1412 127.02 38.8092 126.452 38.4382 126.657C33.6292 129.311 27.6072 129.488 22.5752 127.342C21.1602 126.738 19.8172 125.948 18.6152 124.988C18.2872 124.726 17.8182 125.188 18.1492 125.453Z" fill="#6D331F"/>
<path d="M21.5465 117.686C19.2195 121.547 17.6215 125.845 16.8685 130.29C16.6575 131.535 16.5115 132.791 16.4305 134.051C16.4035 134.474 17.0615 134.472 17.0885 134.051C17.3715 129.656 18.4825 125.313 20.3495 121.323C20.8795 120.191 21.4695 119.088 22.1145 118.018C22.3345 117.655 21.7655 117.324 21.5465 117.686Z" fill="#6D331F"/>
<path d="M63.5209 132.839C65.0019 133.291 66.5929 133.306 68.0839 132.888C68.4909 132.774 68.3179 132.139 67.9089 132.254C66.5259 132.642 65.0699 132.624 63.6959 132.205C63.2899 132.081 63.1169 132.716 63.5209 132.839Z" fill="#6D331F"/>
<path d="M61.7222 160.856C63.1262 161.271 64.6402 161.249 66.0302 160.79C66.4302 160.658 66.2592 160.022 65.8552 160.156C64.5702 160.581 63.1952 160.606 61.8972 160.222C61.4902 160.101 61.3162 160.736 61.7222 160.856Z" fill="#6D331F"/>
<path d="M62.7026 187.639C64.2826 187.559 65.8476 187.819 67.3176 188.402C67.7116 188.558 67.8816 187.922 67.4926 187.768C65.9736 187.166 64.3336 186.899 62.7026 186.982C62.2816 187.002 62.2786 187.66 62.7026 187.639Z" fill="#6D331F"/>
<path d="M111.245 123.903C110.275 130.626 109.947 137.436 110.286 144.22C110.454 147.59 110.787 150.952 111.277 154.291C111.688 157.092 112.144 159.929 113.102 162.604C114.059 165.274 115.571 167.786 117.997 169.352C118.354 169.582 118.684 169.013 118.329 168.784C113.871 165.907 112.833 160.015 112.071 155.171C111.036 148.592 110.642 141.911 110.879 135.255C111.012 131.515 111.344 127.782 111.879 124.077C111.905 123.9 111.835 123.726 111.649 123.672C111.496 123.629 111.27 123.728 111.245 123.903Z" fill="#6D331F"/>
<path d="M45.8749 97.5279C45.0919 101.43 44.4079 105.352 43.8259 109.29C43.2419 113.239 42.7589 117.202 42.3779 121.175C42.1639 123.406 41.9829 125.64 41.8329 127.876C41.8049 128.299 42.4629 128.297 42.4909 127.876C42.7559 123.923 43.1199 119.976 43.5859 116.041C44.0499 112.118 44.6159 108.207 45.2819 104.312C45.6589 102.103 46.0689 99.8999 46.5099 97.7019C46.5919 97.2889 45.9579 97.1119 45.8749 97.5279Z" fill="#6D331F"/>
<path d="M36.4793 182.302C36.8773 184.269 36.9093 186.303 36.5663 188.28C36.4943 188.694 37.1283 188.872 37.2003 188.455C37.5643 186.354 37.5363 184.217 37.1133 182.127C37.0293 181.712 36.3953 181.887 36.4793 182.302Z" fill="#6D331F"/>
<path d="M39.4692 189.539C39.4322 191.042 39.5572 192.544 39.8342 194.022C39.9122 194.438 40.5462 194.262 40.4682 193.847C40.2012 192.427 40.0902 190.984 40.1262 189.539C40.1382 189.116 39.4802 189.116 39.4692 189.539Z" fill="#6D331F"/>
<path d="M40.4319 177.574C40.8239 179.238 41.2149 180.902 41.6059 182.566C41.7029 182.978 42.3369 182.804 42.2399 182.391C41.8489 180.727 41.4569 179.063 41.0659 177.399C40.9699 176.987 40.3349 177.161 40.4319 177.574Z" fill="#6D331F"/>
<path d="M109.677 186.396C109.954 188.258 110.231 190.12 110.508 191.983C110.57 192.4 111.204 192.223 111.142 191.808C110.865 189.946 110.588 188.084 110.311 186.221C110.249 185.804 109.615 185.981 109.677 186.396Z" fill="#6D331F"/>
<path d="M114.15 187.848C114.407 188.933 114.665 190.018 114.922 191.104C115.02 191.516 115.654 191.341 115.556 190.929C115.299 189.844 115.041 188.758 114.784 187.673C114.687 187.261 114.052 187.435 114.15 187.848Z" fill="#6D331F"/>
<path d="M113.864 175.517C114.063 176.593 114.262 177.669 114.461 178.745C114.493 178.92 114.705 179.019 114.866 178.975C115.05 178.925 115.128 178.746 115.096 178.57C114.897 177.494 114.698 176.418 114.499 175.342C114.467 175.167 114.255 175.068 114.094 175.112C113.91 175.163 113.832 175.342 113.864 175.517Z" fill="#6D331F"/>
<path d="M96.8292 113.562C97.0132 114.738 97.1972 115.915 97.3812 117.091C97.4082 117.267 97.6282 117.364 97.7862 117.321C97.9732 117.27 98.0432 117.092 98.0162 116.916C97.8322 115.74 97.6482 114.563 97.4642 113.387C97.4372 113.211 97.2172 113.114 97.0592 113.157C96.8712 113.209 96.8012 113.386 96.8292 113.562Z" fill="#6D331F"/>
<path d="M99.3809 113.193C99.3809 113.878 99.3809 114.563 99.3809 115.248C99.3809 115.42 99.5319 115.585 99.7099 115.577C99.8879 115.569 100.039 115.432 100.039 115.248C100.039 114.563 100.039 113.878 100.039 113.193C100.039 113.021 99.8879 112.856 99.7099 112.864C99.5319 112.872 99.3809 113.009 99.3809 113.193Z" fill="#6D331F"/>
<path d="M100.807 105.07C100.91 105.558 101.013 106.047 101.115 106.535C101.15 106.704 101.358 106.817 101.52 106.765C101.698 106.707 101.788 106.541 101.75 106.36C101.647 105.872 101.544 105.383 101.442 104.895C101.407 104.726 101.199 104.613 101.037 104.665C100.858 104.723 100.769 104.889 100.807 105.07Z" fill="#6D331F"/>
<path d="M53.5597 122.975C53.6817 123.754 53.8047 124.533 53.9267 125.313C53.9537 125.489 54.1736 125.586 54.3316 125.543C54.5186 125.492 54.5887 125.315 54.5617 125.138C54.4397 124.359 54.3166 123.58 54.1946 122.8C54.1666 122.624 53.9476 122.527 53.7896 122.57C53.6016 122.622 53.5317 122.799 53.5597 122.975Z" fill="#6D331F"/>
<path d="M55.6245 120.041C55.8155 120.532 56.0075 121.023 56.1985 121.514C56.2605 121.674 56.4215 121.802 56.6035 121.744C56.7585 121.694 56.9005 121.511 56.8335 121.339C56.6425 120.848 56.4505 120.357 56.2595 119.866C56.1975 119.706 56.0355 119.578 55.8545 119.636C55.6985 119.686 55.5575 119.869 55.6245 120.041Z" fill="#6D331F"/>
<path d="M54.2901 110.843C54.2871 111.708 54.4791 112.553 54.8391 113.338C54.9131 113.5 55.1471 113.539 55.2891 113.456C55.4551 113.359 55.4811 113.168 55.4071 113.006C55.0951 112.325 54.9461 111.586 54.9481 110.843C54.9491 110.665 54.7961 110.514 54.6191 110.514C54.4401 110.514 54.2911 110.665 54.2901 110.843Z" fill="#6D331F"/>
<path d="M63.5578 97.9339C66.1608 100.073 69.1618 101.758 72.4268 102.637C75.6218 103.497 79.0347 103.535 82.2167 102.589C83.9897 102.062 85.6728 101.232 87.1408 100.104C87.2828 99.9949 87.3548 99.8219 87.2588 99.6539C87.1798 99.5139 86.9498 99.4279 86.8088 99.5359C84.2908 101.471 81.1728 102.491 78.0128 102.622C74.7608 102.757 71.5338 101.937 68.6358 100.483C66.9898 99.6569 65.4447 98.6369 64.0227 97.4689C63.6987 97.2019 63.2298 97.6649 63.5578 97.9339Z" fill="#1B4B5E"/>
<path d="M80.626 100.645C80.823 101.232 81.02 101.819 81.218 102.405C81.273 102.568 81.447 102.692 81.623 102.635C81.785 102.583 81.911 102.405 81.853 102.23C81.656 101.643 81.459 101.056 81.261 100.47C81.206 100.307 81.032 100.183 80.856 100.24C80.694 100.293 80.567 100.471 80.626 100.645Z" fill="#1B4B5E"/>
<path d="M82.9331 100.073C83.1241 100.564 83.3161 101.055 83.5071 101.546C83.5691 101.706 83.7311 101.834 83.9121 101.776C84.0671 101.726 84.2091 101.543 84.1421 101.371C83.9511 100.88 83.7591 100.389 83.5681 99.898C83.5061 99.738 83.3441 99.61 83.1631 99.668C83.0071 99.719 82.8661 99.902 82.9331 100.073Z" fill="#1B4B5E"/>
<path d="M84.7265 99.5668C84.9215 99.9588 85.1165 100.351 85.3115 100.743C85.3885 100.897 85.6195 100.953 85.7615 100.861C85.9195 100.759 85.9615 100.576 85.8795 100.411C85.6845 100.019 85.4895 99.6268 85.2945 99.2348C85.2175 99.0808 84.9865 99.0248 84.8445 99.1168C84.6865 99.2188 84.6445 99.4018 84.7265 99.5668Z" fill="#1B4B5E"/>
<path d="M67.3502 98.117C67.1722 98.613 66.9942 99.109 66.8172 99.605C66.7592 99.767 66.8832 99.972 67.0472 100.01C67.2322 100.052 67.3892 99.954 67.4522 99.78C67.6302 99.284 67.8082 98.788 67.9852 98.293C68.0432 98.131 67.9192 97.926 67.7552 97.888C67.5692 97.845 67.4122 97.943 67.3502 98.117Z" fill="#1B4B5E"/>
<path d="M69.4582 98.7238C69.2672 99.2148 69.0752 99.7058 68.8842 100.197C68.8212 100.358 68.9532 100.565 69.1142 100.602C69.3032 100.645 69.4522 100.544 69.5192 100.372C69.7102 99.8808 69.9022 99.3898 70.0932 98.8988C70.1562 98.7378 70.0242 98.5308 69.8632 98.4938C69.6742 98.4508 69.5252 98.5518 69.4582 98.7238Z" fill="#1B4B5E"/>
<path d="M74.4123 136.293C76.6463 140.396 78.8803 144.5 81.1153 148.603C81.7503 149.769 82.3843 150.934 83.0193 152.1C83.2213 152.472 83.7903 152.14 83.5873 151.768C81.3533 147.664 79.1183 143.561 76.8843 139.458C76.2493 138.292 75.6153 137.127 74.9803 135.961C74.7773 135.589 74.2093 135.921 74.4123 136.293Z" fill="#1B4B5E"/>
<path d="M75.702 142.394C77.61 145.653 79.519 148.912 81.427 152.171C81.641 152.536 82.21 152.206 81.995 151.839C80.087 148.58 78.178 145.321 76.27 142.062C76.056 141.697 75.487 142.028 75.702 142.394Z" fill="#1B4B5E"/>
<path d="M75.6741 208.174C78.4491 209.804 81.4891 210.966 84.6451 211.596C85.0581 211.679 85.2351 211.045 84.8201 210.962C81.7161 210.343 78.7351 209.211 76.0061 207.607C75.6401 207.391 75.3091 207.959 75.6741 208.174Z" fill="#1B4B5E"/>
</g>
<defs>
<clipPath id="clip0_1236_2772">
<rect width="151" height="208" fill="white" transform="matrix(-1 0 0 1 151 0)"/>
</clipPath>
</defs>
</svg>
