<svg width="151" height="208" viewBox="0 0 151 208" fill="none" xmlns="http://www.w3.org/2000/svg">
<g clip-path="url(#clip0_1236_2517)">
<path d="M85.8335 42.2607C85.2522 43.3985 85.6209 44.815 86.3194 45.8855C87.0179 46.955 88.0071 47.7999 88.8129 48.7912C89.6177 49.7836 90.2576 51.0363 90.0505 52.2967C89.7446 54.16 87.7186 55.4149 87.5147 57.2924C87.3661 58.6558 88.3986 60.0452 89.7468 60.2968C88.3065 60.6916 86.7229 59.6786 86.1926 58.2816C85.6622 56.8846 86.0363 55.2642 86.8617 54.019C87.3747 53.2446 88.0841 52.4908 88.0646 51.5624C88.045 50.6698 87.3552 49.9572 86.7598 49.2923C85.9008 48.3324 85.1372 47.2435 84.8042 45.9994C84.4713 44.7543 84.6242 43.3291 85.4409 42.3323L85.8335 42.2607Z" fill="#C23F37"/>
<path d="M58.2414 74.2598C49.6523 77.4789 40.8301 80.839 34.086 87.056C29.5555 91.2329 26.19 96.5041 23.1248 101.85C14.9187 116.161 8.33942 132.807 12.0716 148.876C13.3449 154.356 16.7669 160.288 22.3667 160.837C27.1618 161.308 31.3831 157.513 33.7758 153.331C36.1684 149.15 37.4385 144.358 40.1815 140.397C42.5742 148.904 44.9668 157.409 47.3584 165.916C47.6935 167.109 48.059 168.354 48.9191 169.246C50.0428 170.412 51.7651 170.73 53.3736 170.926C72.2188 173.226 84.4478 170.756 101.74 162.918C100.959 151.209 102.689 131.066 103.034 119.335C106.887 123.817 115.181 133.242 118.51 138.125C125.211 136.12 132.576 131.692 138.624 128.178C131.581 112.351 117.577 103.403 108.596 89.4433C106.989 86.9465 105.375 84.3976 103.138 82.4453C98.6573 78.5364 92.3601 77.5754 86.4208 77.2913C80.4825 77.0082 76.4336 76.6275 70.8934 74.4669L58.2414 74.2598Z" fill="#8E571F"/>
<mask id="mask0_1236_2517" style="mask-type:luminance" maskUnits="userSpaceOnUse" x="11" y="74" width="128" height="98">
<path d="M58.2414 74.2598C49.6523 77.4789 40.8301 80.839 34.086 87.056C29.5555 91.2329 26.19 96.5041 23.1248 101.85C14.9187 116.161 8.33942 132.807 12.0716 148.876C13.3449 154.356 16.7669 160.288 22.3667 160.837C27.1618 161.308 31.3831 157.513 33.7758 153.331C36.1684 149.15 37.4385 144.358 40.1815 140.397C42.5742 148.904 44.9668 157.409 47.3584 165.916C47.6935 167.109 48.059 168.354 48.9191 169.246C50.0428 170.412 51.7651 170.73 53.3736 170.926C72.2188 173.226 84.4478 170.756 101.74 162.918C100.959 151.209 102.689 131.066 103.034 119.335C106.887 123.817 115.181 133.242 118.51 138.125C125.211 136.12 132.576 131.692 138.624 128.178C130.638 113.294 117.577 103.403 108.596 89.4433C106.989 86.9465 105.375 84.3976 103.138 82.4453C98.6573 78.5364 92.3601 77.5754 86.4208 77.2913C80.4825 77.0082 76.4336 76.6275 70.8934 74.4669L58.2414 74.2598Z" fill="white"/>
</mask>
<g mask="url(#mask0_1236_2517)">
<path d="M41.0356 96.5409C44.0715 95.5539 46.8828 93.8793 49.1963 91.6797C46.962 91.1135 44.5216 91.4747 42.5129 92.5973C43.4273 91.8467 44.2732 91.0127 45.0368 90.1092C42.9381 90.1016 40.8589 91.0419 39.4608 92.6038C42.1767 89.3543 44.9229 85.6666 44.6691 81.4702C41.3686 84.5918 38.8404 88.5256 37.3729 92.8261C38.5573 88.633 39.7515 84.3531 39.579 79.9995C37.7829 83.9464 36.49 88.1232 35.7406 92.3945C35.7644 87.4508 35.7623 82.3672 33.9466 77.7695C33.8208 81.2772 33.695 84.7859 33.5692 88.2935C32.5724 85.236 31.0767 82.3401 29.1472 79.7674C28.6949 79.7728 28.568 80.3921 28.6201 80.8412C29.0355 84.4562 31.6006 87.3944 33.2503 90.6385C33.401 90.9346 33.5171 91.3294 33.4325 91.6211C31.5182 88.6656 28.735 86.2816 25.5202 84.8456C26.8033 87.9454 28.9227 90.6938 31.5952 92.7242C28.4097 91.0387 24.9335 89.9053 21.3662 89.3901C22.1786 91.4877 24.1135 92.991 26.2101 93.8055C28.3067 94.6201 30.58 94.837 32.8197 95.0474C29.8143 95.3294 26.8945 96.465 24.4877 98.2872C24.2654 99.2264 25.7155 99.5431 26.6526 99.3121C28.9574 98.7438 31.1483 97.7166 33.0583 96.3066C30.747 100.062 25.8587 102.353 25.2415 106.719C28.5865 104.484 31.3815 101.429 33.3132 97.9C32.3858 101.783 31.452 105.757 31.875 109.727C33.4151 106.46 34.5984 103.025 35.3978 99.5019C34.9585 102.185 35.5985 105.03 37.1462 107.267C37.4011 107.635 37.7439 108.022 38.1918 108.023C38.9847 108.026 39.2276 106.948 39.1614 106.158C38.9662 103.82 38.2905 101.521 37.1896 99.4488C38.6821 102.157 41.322 104.208 44.3155 104.984C42.9131 102.626 41.5096 100.269 40.1072 97.9108C42.2645 99.3186 45.0281 99.759 47.5162 99.0941C46.2277 96.9553 43.4348 95.8554 41.0356 96.5409Z" fill="#A8774C"/>
</g>
<mask id="mask1_1236_2517" style="mask-type:luminance" maskUnits="userSpaceOnUse" x="11" y="74" width="128" height="98">
<path d="M58.2414 74.2598C49.6523 77.4789 40.8301 80.839 34.086 87.056C29.5555 91.2329 26.19 96.5041 23.1248 101.85C14.9187 116.161 8.33942 132.807 12.0716 148.876C13.3449 154.356 16.7669 160.288 22.3667 160.837C27.1618 161.308 31.3831 157.513 33.7758 153.331C36.1684 149.15 37.4385 144.358 40.1815 140.397C42.5742 148.904 44.9668 157.409 47.3584 165.916C47.6935 167.109 48.059 168.354 48.9191 169.246C50.0428 170.412 51.7651 170.73 53.3736 170.926C72.2188 173.226 84.4478 170.756 101.74 162.918C100.959 151.209 102.689 131.066 103.034 119.335C106.887 123.817 115.181 133.242 118.51 138.125C125.211 136.12 132.576 131.692 138.624 128.178C130.638 113.294 117.577 103.403 108.596 89.4433C106.989 86.9465 105.375 84.3976 103.138 82.4453C98.6573 78.5364 92.3601 77.5754 86.4208 77.2913C80.4825 77.0082 76.4336 76.6275 70.8934 74.4669L58.2414 74.2598Z" fill="white"/>
</mask>
<g mask="url(#mask1_1236_2517)">
<path d="M76.3852 113.98C79.4211 112.993 82.2324 111.318 84.5459 109.118C82.3116 108.552 79.8712 108.913 77.8625 110.036C78.7768 109.285 79.6228 108.451 80.3864 107.548C78.2877 107.54 76.2085 108.481 74.8104 110.042C77.5263 106.793 80.2725 103.105 80.0187 98.9088C76.7182 102.03 74.1911 105.964 72.7225 110.264C73.9069 106.071 75.1011 101.792 74.9286 97.437C73.1325 101.384 71.8397 105.561 71.0902 109.832C71.1141 104.888 71.1119 99.8047 69.2962 95.207C69.1704 98.7147 69.0446 102.223 68.9188 105.731C67.922 102.674 66.4263 99.7776 64.4968 97.2049C64.0445 97.2103 63.9176 97.8296 63.9697 98.2787C64.3851 101.894 66.9502 104.832 68.5999 108.076C68.7507 108.372 68.8657 108.768 68.7821 109.059C66.8678 106.103 64.0846 103.719 60.8698 102.283C62.1529 105.383 64.2734 108.131 66.9448 110.162C63.7593 108.476 60.2831 107.343 56.7158 106.829C57.5282 108.926 59.4631 110.43 61.5597 111.244C63.6563 112.059 65.9296 112.276 68.1693 112.486C65.1639 112.768 62.2441 113.904 59.8373 115.726C59.615 116.664 61.0651 116.982 62.0022 116.751C64.307 116.182 66.4979 115.154 68.4079 113.745C66.0966 117.5 61.2082 119.792 60.59 124.158C63.936 121.922 66.73 118.868 68.6617 115.339C67.7344 119.221 66.8005 123.195 67.2235 127.165C68.7637 123.898 69.947 120.463 70.7464 116.941C70.3071 119.624 70.947 122.469 72.4947 124.705C72.7496 125.074 73.0924 125.46 73.5403 125.461C74.3332 125.464 74.5762 124.386 74.51 123.597C74.3148 121.258 73.639 118.96 72.5381 116.887C74.0305 119.596 76.6705 121.647 79.664 122.422C78.2616 120.064 76.8581 117.707 75.4557 115.349C77.613 116.756 80.3766 117.198 82.8647 116.533C81.5784 114.394 78.7855 113.294 76.3852 113.98Z" fill="#A8774C"/>
</g>
<mask id="mask2_1236_2517" style="mask-type:luminance" maskUnits="userSpaceOnUse" x="11" y="74" width="128" height="98">
<path d="M58.2414 74.2598C49.6523 77.4789 40.8301 80.839 34.086 87.056C29.5555 91.2329 26.19 96.5041 23.1248 101.85C14.9187 116.161 8.33942 132.807 12.0716 148.876C13.3449 154.356 16.7669 160.288 22.3667 160.837C27.1618 161.308 31.3831 157.513 33.7758 153.331C36.1684 149.15 37.4385 144.358 40.1815 140.397C42.5742 148.904 44.9668 157.409 47.3584 165.916C47.6935 167.109 48.059 168.354 48.9191 169.246C50.0428 170.412 51.7651 170.73 53.3736 170.926C72.2188 173.226 84.4478 170.756 101.74 162.918C100.959 151.209 102.689 131.066 103.034 119.335C106.887 123.817 115.181 133.242 118.51 138.125C125.211 136.12 132.576 131.692 138.624 128.178C130.638 113.294 117.577 103.403 108.596 89.4433C106.989 86.9465 105.375 84.3976 103.138 82.4453C98.6573 78.5364 92.3601 77.5754 86.4208 77.2913C80.4825 77.0082 76.4336 76.6275 70.8934 74.4669L58.2414 74.2598Z" fill="white"/>
</mask>
<g mask="url(#mask2_1236_2517)">
<path d="M87.4615 75.8026C90.4974 74.8156 93.3087 73.141 95.6222 70.9414C93.3879 70.3752 90.9475 70.7364 88.9388 71.859C89.8531 71.1085 90.7002 70.2744 91.4626 69.3709C89.3639 69.3633 87.2847 70.3037 85.8867 71.8655C88.6025 68.616 91.3488 64.9283 91.095 60.732C87.7945 63.8535 85.2663 67.7874 83.7988 72.0879C84.9821 67.8947 86.1773 63.6149 86.0049 59.2612C84.2088 63.2081 82.9159 67.385 82.1664 71.6562C82.1892 66.7125 82.1881 61.6289 80.3725 57.0312C80.2467 60.5389 80.1209 64.0476 79.994 67.5553C78.9972 64.4977 77.5015 61.6018 75.572 59.0291C75.1197 59.0345 74.9928 59.6538 75.0449 60.1029C75.4603 63.7179 78.0254 66.6561 79.6751 69.9002C79.8259 70.1963 79.9409 70.5922 79.8573 70.8828C77.943 67.9273 75.1598 65.5433 71.945 64.1073C73.2281 67.2071 75.3486 69.9566 78.02 71.9859C74.8345 70.2993 71.3583 69.167 67.791 68.6518C68.6034 70.7494 70.5383 72.2527 72.6349 73.0673C74.7315 73.8818 77.0048 74.0987 79.2445 74.3091C76.2391 74.5911 73.3193 75.7267 70.9125 77.5489C70.6902 78.4871 72.1403 78.8049 73.0774 78.5738C75.3822 78.0055 77.5731 76.9784 79.4831 75.5684C77.1718 79.3233 72.2834 81.6151 71.6652 85.9807C75.0112 83.7453 77.8052 80.691 79.7369 77.1617C78.8096 81.0446 77.8757 85.0186 78.2976 88.9883C79.8378 85.7214 81.0211 82.2865 81.8205 78.7636C81.3812 81.447 82.0211 84.2919 83.5689 86.5284C83.8238 86.8972 84.1665 87.2833 84.6144 87.2844C85.4073 87.2876 85.6502 86.2095 85.5841 85.4199C85.3888 83.0815 84.7131 80.7832 83.6122 78.7105C85.1047 81.4188 87.7457 83.4698 90.7382 84.2453C89.3358 81.8884 87.9323 79.5305 86.5299 77.1725C88.6872 78.5803 91.4507 79.0207 93.9388 78.3558C92.6547 76.217 89.8618 75.1183 87.4615 75.8026Z" fill="#A8774C"/>
</g>
<mask id="mask3_1236_2517" style="mask-type:luminance" maskUnits="userSpaceOnUse" x="11" y="74" width="128" height="98">
<path d="M58.2414 74.2598C49.6523 77.4789 40.8301 80.839 34.086 87.056C29.5555 91.2329 26.19 96.5041 23.1248 101.85C14.9187 116.161 8.33942 132.807 12.0716 148.876C13.3449 154.356 16.7669 160.288 22.3667 160.837C27.1618 161.308 31.3831 157.513 33.7758 153.331C36.1684 149.15 37.4385 144.358 40.1815 140.397C42.5742 148.904 44.9668 157.409 47.3584 165.916C47.6935 167.109 48.059 168.354 48.9191 169.246C50.0428 170.412 51.7651 170.73 53.3736 170.926C72.2188 173.226 84.4478 170.756 101.74 162.918C100.959 151.209 102.689 131.066 103.034 119.335C106.887 123.817 115.181 133.242 118.51 138.125C125.211 136.12 132.576 131.692 138.624 128.178C130.638 113.294 117.577 103.403 108.596 89.4433C106.989 86.9465 105.375 84.3976 103.138 82.4453C98.6573 78.5364 92.3601 77.5754 86.4208 77.2913C80.4825 77.0082 76.4336 76.6275 70.8934 74.4669L58.2414 74.2598Z" fill="white"/>
</mask>
<g mask="url(#mask3_1236_2517)">
<path d="M111.262 94.8911C114.298 93.9041 117.109 92.2295 119.423 90.0299C117.189 89.4637 114.748 89.8249 112.739 90.9475C113.654 90.1969 114.5 89.3629 115.263 88.4583C113.165 88.4507 111.085 89.3911 109.687 90.9529C112.403 87.7034 115.149 84.0157 114.896 79.8194C111.595 82.9409 109.068 86.8748 107.599 91.1753C108.784 86.9811 109.978 82.7023 109.806 78.3486C108.009 82.2955 106.717 86.4724 105.967 90.7436C105.991 85.7999 105.989 80.7163 104.173 76.1187C104.047 79.6263 103.922 83.135 103.796 86.6427C102.799 83.5851 101.303 80.6892 99.3738 78.1165C98.9215 78.1219 98.7957 78.7412 98.8467 79.1903C99.2621 82.8053 101.827 85.7435 103.477 88.9876C103.628 89.2837 103.744 89.6796 103.659 89.9702C101.745 87.0147 98.9617 84.6307 95.7469 83.1947C97.03 86.2945 99.1503 89.0429 101.822 91.0733C98.6362 89.3867 95.1601 88.2544 91.5928 87.7392C92.4051 89.8368 94.3401 91.3401 96.4367 92.1547C98.5332 92.9692 100.807 93.1861 103.046 93.3965C100.042 93.6785 97.121 94.8141 94.7153 96.6363C94.493 97.5745 95.9432 97.8923 96.8803 97.6612C99.1851 97.0929 101.376 96.0658 103.286 94.6558C100.975 98.4107 96.0863 100.702 95.4692 105.068C98.8152 102.833 101.609 99.7784 103.541 96.2491C102.614 100.132 101.68 104.106 102.103 108.076C103.643 104.809 104.826 101.374 105.625 97.8511C105.186 100.534 105.826 103.379 107.374 105.616C107.629 105.985 107.971 106.371 108.419 106.372C109.212 106.375 109.455 105.297 109.389 104.507C109.194 102.169 108.518 99.8706 107.417 97.7979C108.91 100.506 111.55 102.557 114.543 103.333C113.141 100.976 111.737 98.6179 110.335 96.2599C112.492 97.6677 115.256 98.1081 117.744 97.4432C116.455 95.3055 113.661 94.2057 111.262 94.8911Z" fill="#A8774C"/>
</g>
<mask id="mask4_1236_2517" style="mask-type:luminance" maskUnits="userSpaceOnUse" x="11" y="74" width="128" height="98">
<path d="M58.2414 74.2598C49.6523 77.4789 40.8301 80.839 34.086 87.056C29.5555 91.2329 26.19 96.5041 23.1248 101.85C14.9187 116.161 8.33942 132.807 12.0716 148.876C13.3449 154.356 16.7669 160.288 22.3667 160.837C27.1618 161.308 31.3831 157.513 33.7758 153.331C36.1684 149.15 37.4385 144.358 40.1815 140.397C42.5742 148.904 44.9668 157.409 47.3584 165.916C47.6935 167.109 48.059 168.354 48.9191 169.246C50.0428 170.412 51.7651 170.73 53.3736 170.926C72.2188 173.226 84.4478 170.756 101.74 162.918C100.959 151.209 102.689 131.066 103.034 119.335C106.887 123.817 115.181 133.242 118.51 138.125C125.211 136.12 132.576 131.692 138.624 128.178C130.638 113.294 117.577 103.403 108.596 89.4433C106.989 86.9465 105.375 84.3976 103.138 82.4453C98.6573 78.5364 92.3601 77.5754 86.4208 77.2913C80.4825 77.0082 76.4336 76.6275 70.8934 74.4669L58.2414 74.2598Z" fill="white"/>
</mask>
<g mask="url(#mask4_1236_2517)">
<path d="M119.511 134.247C122.547 133.258 125.358 131.585 127.672 129.385C125.437 128.819 122.997 129.18 120.989 130.303C121.903 129.552 122.749 128.718 123.513 127.815C121.414 127.807 119.335 128.748 117.936 130.309C120.652 127.06 123.399 123.372 123.145 119.176C119.844 122.298 117.317 126.231 115.849 130.532C117.032 126.339 118.227 122.059 118.055 117.705C116.259 121.653 114.966 125.829 114.216 130.1C114.24 125.156 114.238 120.073 112.422 115.475C112.296 118.983 112.171 122.49 112.045 125.999C111.048 122.942 109.552 120.046 107.623 117.473C107.171 117.478 107.044 118.098 107.096 118.547C107.511 122.162 110.076 125.1 111.726 128.344C111.877 128.64 111.992 129.035 111.908 129.327C109.994 126.371 107.211 123.987 103.996 122.551C105.279 125.651 107.398 128.399 110.07 130.43C106.884 128.744 103.408 127.611 99.8408 127.096C100.653 129.193 102.588 130.697 104.685 131.511C106.781 132.326 109.055 132.543 111.294 132.753C108.289 133.035 105.369 134.171 102.962 135.993C102.74 136.932 104.19 137.249 105.127 137.018C107.432 136.449 109.623 135.422 111.533 134.012C109.222 137.767 104.333 140.059 103.716 144.425C107.062 142.189 109.856 139.135 111.788 135.606C110.861 139.488 109.927 143.462 110.35 147.432C111.89 144.165 113.073 140.73 113.872 137.207C113.433 139.891 114.073 142.736 115.621 144.972C115.876 145.341 116.218 145.727 116.666 145.728C117.459 145.731 117.702 144.653 117.636 143.864C117.441 141.524 116.765 139.227 115.664 137.154C117.157 139.863 119.797 141.914 122.79 142.689C121.388 140.331 119.984 137.974 118.582 135.616C120.739 137.024 123.503 137.465 125.991 136.8C124.703 134.661 121.911 133.561 119.511 134.247Z" fill="#A8774C"/>
</g>
<mask id="mask5_1236_2517" style="mask-type:luminance" maskUnits="userSpaceOnUse" x="11" y="74" width="128" height="98">
<path d="M58.2414 74.2598C49.6523 77.4789 40.8301 80.839 34.086 87.056C29.5555 91.2329 26.19 96.5041 23.1248 101.85C14.9187 116.161 8.33942 132.807 12.0716 148.876C13.3449 154.356 16.7669 160.288 22.3667 160.837C27.1618 161.308 31.3831 157.513 33.7758 153.331C36.1684 149.15 37.4385 144.358 40.1815 140.397C42.5742 148.904 44.9668 157.409 47.3584 165.916C47.6935 167.109 48.059 168.354 48.9191 169.246C50.0428 170.412 51.7651 170.73 53.3736 170.926C72.2188 173.226 84.4478 170.756 101.74 162.918C100.959 151.209 102.689 131.066 103.034 119.335C106.887 123.817 115.181 133.242 118.51 138.125C125.211 136.12 132.576 131.692 138.624 128.178C130.638 113.294 117.577 103.403 108.596 89.4433C106.989 86.9465 105.375 84.3976 103.138 82.4453C98.6573 78.5364 92.3601 77.5754 86.4208 77.2913C80.4825 77.0082 76.4336 76.6275 70.8934 74.4669L58.2414 74.2598Z" fill="white"/>
</mask>
<g mask="url(#mask5_1236_2517)">
<path d="M88.1675 158.991C91.2034 158.004 94.0147 156.329 96.3281 154.13C94.0938 153.563 91.6535 153.925 89.6448 155.047C90.5591 154.297 91.4051 153.463 92.1687 152.558C90.07 152.55 87.9908 153.491 86.5927 155.053C89.3086 151.803 92.0548 148.115 91.801 143.919C88.5005 147.041 85.9722 150.974 84.5048 155.274C85.6892 151.081 86.8834 146.802 86.7109 142.447C84.9148 146.395 83.622 150.571 82.8725 154.842C82.8963 149.899 82.8941 144.815 81.0785 140.217C80.9527 143.725 80.8269 147.233 80.7011 150.741C79.7043 147.684 78.2086 144.788 76.2791 142.215C75.8268 142.221 75.701 142.84 75.752 143.289C76.1674 146.904 78.7325 149.842 80.3822 153.086C80.533 153.382 80.649 153.778 80.5644 154.069C78.65 151.113 75.8669 148.729 72.6521 147.293C73.9352 150.393 76.0546 153.142 78.7271 155.172C75.5416 153.486 72.0653 152.353 68.498 151.839C69.3104 153.937 71.2454 155.44 73.3419 156.254C75.4385 157.069 77.7118 157.286 79.9516 157.496C76.9461 157.778 74.0264 158.914 71.6196 160.736C71.3973 161.674 72.8474 161.992 73.7845 161.761C76.0893 161.193 78.2802 160.166 80.1902 158.756C77.8789 162.51 72.9905 164.802 72.3734 169.168C75.7194 166.932 78.5134 163.878 80.4451 160.349C79.5177 164.231 78.5839 168.206 79.0069 172.175C80.547 168.909 81.7303 165.474 82.5297 161.951C82.0904 164.634 82.7304 167.479 84.2781 169.716C84.533 170.084 84.8757 170.47 85.3237 170.472C86.1165 170.475 86.3595 169.397 86.2933 168.607C86.0981 166.268 85.4224 163.97 84.3215 161.898C85.814 164.606 88.4538 166.657 91.4474 167.432C90.045 165.074 88.6415 162.718 87.2391 160.36C89.3964 161.767 92.16 162.208 94.6481 161.543C93.3607 159.405 90.5667 158.305 88.1675 158.991Z" fill="#A8774C"/>
</g>
<mask id="mask6_1236_2517" style="mask-type:luminance" maskUnits="userSpaceOnUse" x="11" y="74" width="128" height="98">
<path d="M58.2414 74.2598C49.6523 77.4789 40.8301 80.839 34.086 87.056C29.5555 91.2329 26.19 96.5041 23.1248 101.85C14.9187 116.161 8.33942 132.807 12.0716 148.876C13.3449 154.356 16.7669 160.288 22.3667 160.837C27.1618 161.308 31.3831 157.513 33.7758 153.331C36.1684 149.15 37.4385 144.358 40.1815 140.397C42.5742 148.904 44.9668 157.409 47.3584 165.916C47.6935 167.109 48.059 168.354 48.9191 169.246C50.0428 170.412 51.7651 170.73 53.3736 170.926C72.2188 173.226 84.4478 170.756 101.74 162.918C100.959 151.209 102.689 131.066 103.034 119.335C106.887 123.817 115.181 133.242 118.51 138.125C125.211 136.12 132.576 131.692 138.624 128.178C130.638 113.294 117.577 103.403 108.596 89.4433C106.989 86.9465 105.375 84.3976 103.138 82.4453C98.6573 78.5364 92.3601 77.5754 86.4208 77.2913C80.4825 77.0082 76.4336 76.6275 70.8934 74.4669L58.2414 74.2598Z" fill="white"/>
</mask>
<g mask="url(#mask6_1236_2517)">
<path d="M51.6403 151.685C54.6761 150.698 57.4874 149.023 59.8009 146.824C57.5666 146.258 55.1262 146.619 53.1175 147.741C54.0318 146.991 54.8789 146.157 55.6414 145.252C53.5426 145.245 51.4634 146.185 50.0654 147.747C52.7812 144.497 55.5275 140.81 55.2737 136.613C51.9732 139.735 49.445 143.669 47.9775 147.969C49.1608 143.776 50.3561 139.496 50.1836 135.143C48.3875 139.089 47.0946 143.266 46.3452 147.538C46.3679 142.594 46.3669 137.51 44.5512 132.913C44.4254 136.42 44.2996 139.929 44.1727 143.437C43.1759 140.379 41.6802 137.483 39.7507 134.91C39.2984 134.916 39.1715 135.535 39.2236 135.984C39.639 139.599 42.2041 142.537 43.8538 145.782C44.0046 146.078 44.1196 146.474 44.036 146.764C42.1217 143.809 39.3385 141.425 36.1237 139.989C37.4068 143.088 39.5273 145.837 42.1987 147.867C39.0132 146.181 35.537 145.048 31.9697 144.533C32.7821 146.631 34.7171 148.134 36.8136 148.949C38.9102 149.763 41.1835 149.98 43.4232 150.19C40.4178 150.472 37.498 151.608 35.0912 153.43C34.8689 154.368 36.319 154.686 37.2561 154.455C39.5609 153.887 41.7518 152.86 43.6618 151.45C41.3505 155.205 36.4622 157.496 35.8439 161.862C39.19 159.627 41.9839 156.572 43.9156 153.043C42.9883 156.926 42.0544 160.9 42.4763 164.87C44.0165 161.603 45.1998 158.168 45.9992 154.645C45.5599 157.328 46.1999 160.173 47.7476 162.41C48.0025 162.779 48.3452 163.165 48.7931 163.166C49.586 163.169 49.8289 162.091 49.7628 161.301C49.5675 158.963 48.8918 156.665 47.791 154.592C49.2834 157.3 51.9244 159.351 54.9169 160.127C53.5145 157.77 52.111 155.412 50.7086 153.054C52.8659 154.462 55.6295 154.902 58.1176 154.237C56.8334 152.099 54.0405 151.001 51.6403 151.685Z" fill="#A8774C"/>
</g>
<mask id="mask7_1236_2517" style="mask-type:luminance" maskUnits="userSpaceOnUse" x="11" y="74" width="128" height="98">
<path d="M58.2414 74.2598C49.6523 77.4789 40.8301 80.839 34.086 87.056C29.5555 91.2329 26.19 96.5041 23.1248 101.85C14.9187 116.161 8.33942 132.807 12.0716 148.876C13.3449 154.356 16.7669 160.288 22.3667 160.837C27.1618 161.308 31.3831 157.513 33.7758 153.331C36.1684 149.15 37.4385 144.358 40.1815 140.397C42.5742 148.904 44.9668 157.409 47.3584 165.916C47.6935 167.109 48.059 168.354 48.9191 169.246C50.0428 170.412 51.7651 170.73 53.3736 170.926C72.2188 173.226 84.4478 170.756 101.74 162.918C100.959 151.209 102.689 131.066 103.034 119.335C106.887 123.817 115.181 133.242 118.51 138.125C125.211 136.12 132.576 131.692 138.624 128.178C130.638 113.294 117.577 103.403 108.596 89.4433C106.989 86.9465 105.375 84.3976 103.138 82.4453C98.6573 78.5364 92.3601 77.5754 86.4208 77.2913C80.4825 77.0082 76.4336 76.6275 70.8934 74.4669L58.2414 74.2598Z" fill="white"/>
</mask>
<g mask="url(#mask7_1236_2517)">
<path d="M18.6489 141.553C21.6847 140.566 24.4961 138.891 26.8096 136.691C24.5753 136.125 22.1348 136.486 20.1261 137.609C21.0405 136.858 21.8876 136.024 22.6501 135.121C20.5513 135.113 18.4721 136.054 17.0741 137.616C19.7899 134.366 22.5362 130.678 22.2824 126.482C18.9819 129.603 16.4537 133.537 14.9862 137.838C16.1706 133.645 17.3648 129.365 17.1923 125.011C15.3962 128.959 14.1033 133.135 13.3539 137.406C13.3777 132.463 13.3756 127.379 11.5599 122.781C11.4341 126.289 11.3083 129.797 11.1825 133.305C10.1857 130.248 8.68998 127.352 6.76045 124.779C6.30817 124.785 6.18131 125.404 6.23337 125.853C6.64878 129.468 9.21387 132.406 10.8636 135.65C11.0143 135.946 11.1293 136.342 11.0458 136.633C9.13147 133.677 6.34831 131.293 3.13351 129.857C4.41661 132.957 6.53704 135.707 9.20845 137.736C6.02294 136.049 2.54679 134.917 -1.02051 134.402C-0.208132 136.499 1.72676 138.003 3.82331 138.817C5.91987 139.632 8.19328 139.849 10.433 140.059C7.42754 140.341 4.50776 141.477 2.101 143.299C1.87865 144.238 3.32875 144.555 4.26586 144.324C6.57066 143.756 8.76159 142.728 10.6716 141.318C8.36028 145.073 3.47192 147.365 2.85369 151.731C6.19972 149.495 8.9937 146.441 10.9254 142.912C9.99805 146.795 9.06417 150.769 9.48609 154.738C11.0262 151.471 12.2096 148.036 13.009 144.514C12.5697 147.197 13.2096 150.042 14.7574 152.278C15.0122 152.647 15.355 153.033 15.8029 153.034C16.5958 153.038 16.8387 151.96 16.7725 151.17C16.5773 148.83 15.9016 146.533 14.8007 144.46C16.2931 147.169 18.9342 149.22 21.9266 149.995C20.5242 147.637 19.1207 145.28 17.7183 142.923C19.8756 144.33 22.6392 144.771 25.1273 144.106C23.841 141.966 21.0481 140.867 18.6489 141.553Z" fill="#A8774C"/>
</g>
<path d="M101.738 162.918C88.9506 163.76 80.1631 168.419 67.3744 169.259C60.4568 169.715 53.9772 170.642 47.6843 167.733C47.3893 176.615 37.4673 202.68 37.3154 211.566C37.2135 217.521 41.1745 256.723 41.8047 262.645C43.9793 283.102 43.9327 303.793 41.6658 324.241C41.1203 329.156 40.9229 335.164 45.0607 337.872C47.116 339.217 49.7386 339.308 52.1855 339.095C60.1954 338.4 67.6781 334.973 74.9754 331.598C75.6652 331.279 76.4103 330.907 76.727 330.215C77.0264 329.562 76.8626 328.799 76.6977 328.1C72.2128 309.051 71.4482 289.134 74.4602 269.797C75.6142 262.392 78.4255 211.047 78.3203 203.552C80.1935 233.571 80.9603 307.549 82.8334 337.568C82.9213 338.977 83.0319 340.459 83.8085 341.639C84.5406 342.752 85.7618 343.433 86.956 344.023C94.2056 347.602 102.807 349.386 110.408 346.63C112.08 346.024 113.725 345.168 114.849 343.789C116.962 341.192 116.745 337.476 116.46 334.141C115.25 320 114.773 305.797 115.031 291.607C115.122 286.582 115.306 281.555 115.159 276.531C115.003 271.173 114.472 265.834 113.941 260.5C113.376 254.816 114.512 239.701 115.481 225.51C116.633 208.653 113.784 191.765 107.16 176.221L101.738 162.918Z" fill="#6DA8C6"/>
<path d="M46.2757 44.9536C44.4134 47.3376 44.3158 50.9754 44.8408 54.1522C45.2638 56.7152 46.0989 59.3367 47.8376 60.9614C48.9558 62.0081 50.3473 62.5482 51.6066 63.3443C52.8658 64.1404 54.0817 65.3487 54.3452 67.0006C54.6088 68.6513 53.4027 70.6069 52.0036 70.2609C54.0231 72.0679 57.1153 71.9627 59.0427 70.0223C60.7596 68.2923 61.4212 65.5515 62.6794 63.3422C64.5568 60.046 67.9062 57.9831 71.2815 58.0438L46.2757 44.9536Z" fill="#C23F37"/>
<path d="M83.6971 30.8018C84.8414 38.509 86.4911 49.8812 86.7048 57.6698C86.759 59.6612 86.7623 61.749 85.8403 63.5159C84.0269 66.991 79.5333 67.8554 75.6406 68.3229C75.6352 73.3479 75.1981 74.7069 75.1938 79.7319C75.1927 80.6256 75.1786 81.5692 74.7166 82.3339C74.1363 83.2949 72.9931 83.7406 71.9139 84.0498C66.6731 85.5541 63.5418 85.7678 58.4311 83.8686C57.9256 83.681 57.4029 83.4597 57.0666 83.0378C56.6632 82.5291 56.6111 81.835 56.5753 81.1864C56.123 72.8717 56.1024 68.2231 55.6502 59.9084C53.302 61.2295 50.0568 60.6601 48.2975 58.6188C46.5394 56.5776 46.457 53.2836 48.1121 51.1567C49.7672 49.0298 52.9798 48.3009 55.3909 49.5037C55.7174 43.9212 56.6231 36.8148 56.9495 31.2334C65.4421 31.5838 83.6971 30.8018 83.6971 30.8018Z" fill="#F6A472"/>
<path d="M35.2286 127.243C35.8675 118.119 34.4867 108.885 36.1581 99.8936C36.5345 97.8676 36.9672 95.7754 38.1722 94.1029C38.9521 93.0194 40.0139 92.1755 40.9109 91.1864C42.3328 89.6169 43.3176 87.7102 44.2851 85.8262C46.4587 81.5973 48.6951 77.0571 48.0368 72.3087C47.9793 71.8911 47.7071 71.5147 47.3036 71.3922C46.8589 71.2577 46.5563 71.544 46.3155 71.8314C45.2266 73.1286 44.7048 74.8033 43.7884 76.2274C42.7666 77.8142 40.8762 79.1786 39.0421 78.3001C37.7677 77.6894 37.1744 76.2241 37.5019 74.8499C38.1104 72.2978 40.964 71.3585 43.2742 71.9529C43.9391 72.1243 44.604 72.4041 45.2938 72.2306C45.6105 72.1503 45.8936 71.9508 46.0509 71.6644C46.3133 71.1839 46.0823 70.7989 45.8339 70.4659C43.1462 66.8487 36.9574 66.7023 34.1006 70.1882C34.311 65.391 34.5225 60.5938 34.7329 55.7965C34.7785 54.7726 34.8034 53.6674 34.055 52.8757C33.6722 52.4711 33.0973 52.2802 32.5669 52.4505C31.901 52.6652 31.7285 53.2878 31.5843 53.8616C30.7958 56.9961 30.0083 60.1306 29.2198 63.2652C28.7697 61.5211 28.3196 59.776 27.8695 58.0319C27.6471 57.1696 27.3966 56.2564 26.5886 55.752C26.1949 55.5069 25.6981 55.4516 25.2859 55.6653C24.621 56.0113 24.581 56.7824 24.5864 57.457C24.6254 63.0938 24.9952 68.7273 25.6926 74.3206L18.3064 66.596C18.0862 66.3661 17.7554 66.2554 17.4507 66.3466C16.7804 66.5461 16.9366 67.4463 17.2099 68.0396C18.9236 71.7566 21.1492 75.2382 23.8044 78.3521C24.5961 79.2806 25.453 80.2285 25.7458 81.4118C25.9812 82.3609 26.4964 89.0215 26.607 90.4119C26.7816 92.6018 19.9193 116.775 16.8086 124.704C21.0364 127.931 26.4671 129.14 31.6646 128.014L35.2286 127.243Z" fill="#F6A472"/>
<path d="M47.6058 51.2676C46.9453 51.5117 46.2587 50.9639 45.8639 50.3815C44.3238 48.1114 44.7424 45.0485 45.6448 42.4584C46.5483 39.8684 47.8878 37.3618 48.0364 34.6232C48.1351 32.8097 47.7414 30.8183 48.7457 29.3053C49.3325 28.4213 50.2989 27.8769 51.2284 27.366C54.5441 25.5428 57.8608 23.7195 61.1765 21.8974C62.3446 21.2553 63.5247 20.6078 64.8067 20.2445C66.3707 19.8008 68.028 19.7976 69.6484 19.9451C72.0931 20.1664 74.5802 20.7564 76.5639 22.2033C78.2982 23.4679 79.5444 25.3096 81.2798 26.5721C82.3351 27.34 83.5466 27.8747 84.5846 28.6665C86.6746 30.2587 87.9241 32.8975 87.8319 35.5245C87.7181 38.7707 85.7061 41.8174 86.0412 45.0485C84.4458 42.4172 82.8504 39.7848 81.2549 37.1536C80.7505 36.3217 80.2266 35.4681 79.4425 34.8922C77.8871 33.749 75.7667 33.9767 73.8372 33.9301C71.9076 33.8835 69.6202 33.1937 69.1181 31.3303C68.54 34.5212 63.7427 34.8021 61.9878 37.5288C60.978 39.0972 61.1993 41.1178 60.9813 42.9693C60.644 45.8316 58.8001 48.7676 55.9671 49.2958C54.6916 49.5333 53.3174 49.2806 52.0018 49.1787C50.2707 49.0453 48.596 49.8392 47.6058 51.2676Z" fill="#C23F37"/>
<path d="M50.6945 36.6251C47.7986 38.0232 48.3377 42.4549 45.125 42.5927C43.3842 42.6675 41.7476 41.738 40.4243 40.6046C37.1109 37.7672 35.1303 33.3236 35.601 28.9862C36.0718 24.6488 39.1369 20.6087 43.3029 19.3136C44.0426 19.0837 44.8214 18.9362 45.5904 19.0273C46.3214 19.1141 47.0123 19.4123 47.6512 19.78C50.6826 21.5208 52.662 24.9558 52.6501 28.4515L50.6945 36.6251Z" fill="#C23F37"/>
<path d="M85.3728 37.188C86.7319 39.0351 88.554 40.9549 90.8458 40.8768C92.8707 40.8085 94.4684 39.1935 95.7613 37.6338C97.0118 36.1262 98.207 34.5416 98.9717 32.739C99.7363 30.9353 100.042 28.8777 99.4728 27.0035C98.6648 24.343 96.2515 22.4666 93.719 21.3191C92.3382 20.6933 90.8491 20.2236 89.3328 20.2692C87.2579 20.3321 85.2383 21.4221 84.0463 23.1228C82.8554 24.8235 82.5203 27.0936 83.17 29.0654L85.3728 37.188Z" fill="#C23F37"/>
<path d="M118.923 133.862C114.918 147.631 114.157 166.785 110.152 180.554C109.231 183.72 101.88 180.41 99.6658 182.854C98.271 184.393 92.028 190.892 91.4293 191.999C90.9987 192.794 93.2015 193.664 93.9911 193.224C96.4857 191.832 101.709 189.258 104.022 187.58L112.43 199.798C120.219 188.809 134.933 144.85 137.722 136.328C138.774 133.112 140.294 129.866 137.944 127.433C136.904 126.357 134.533 125.075 133.098 124.651C129.149 123.485 124.313 123.379 121.521 126.405L118.923 133.862Z" fill="#F6A472"/>
<path d="M103.806 187.799C106.118 191.625 108.432 195.451 110.744 199.277C111.407 200.372 112.068 201.468 112.731 202.563C112.969 202.956 113.586 202.598 113.347 202.203C111.035 198.378 108.721 194.551 106.409 190.726C105.746 189.63 105.085 188.535 104.422 187.439C104.184 187.047 103.567 187.406 103.806 187.799Z" fill="#1B4B5E"/>
<path d="M54.0559 181.039C51.109 185.346 47.7119 189.34 43.932 192.939C42.8604 193.958 41.7585 194.946 40.6294 195.902C40.278 196.199 40.7856 196.701 41.1338 196.406C45.1685 192.993 48.8378 189.158 52.0699 184.975C52.9713 183.808 53.8389 182.616 54.6719 181.399C54.9322 181.02 54.314 180.662 54.0559 181.039Z" fill="#1B4B5E"/>
<path d="M87.5786 167.728C87.7337 169.173 87.8899 170.617 88.045 172.062C88.0656 172.254 88.1947 172.419 88.4019 172.419C88.5787 172.419 88.7793 172.255 88.7587 172.062C88.6036 170.617 88.4474 169.173 88.2923 167.728C88.2717 167.536 88.1427 167.371 87.9355 167.371C87.7587 167.371 87.558 167.535 87.5786 167.728Z" fill="#1B4B5E"/>
<path d="M90.4228 166.626C89.9737 168.559 89.8642 170.557 90.1158 172.526C90.1408 172.719 90.2622 172.88 90.4726 172.883C90.6462 172.885 90.8544 172.717 90.8295 172.526C90.5855 170.619 90.6755 168.689 91.1104 166.816C91.2145 166.369 90.5269 166.179 90.4228 166.626Z" fill="#1B4B5E"/>
<path d="M58.7832 172.05C58.7832 173.493 58.7832 174.938 58.7832 176.382C58.7832 176.84 59.4969 176.841 59.4969 176.382C59.4969 174.938 59.4969 173.493 59.4969 172.05C59.4969 171.591 58.7832 171.59 58.7832 172.05Z" fill="#1B4B5E"/>
<path d="M61.1914 171.568C61.1914 173.493 61.1914 175.418 61.1914 177.345C61.1914 177.804 61.9051 177.805 61.9051 177.345C61.9051 175.42 61.9051 173.494 61.9051 171.568C61.9051 171.109 61.1914 171.108 61.1914 171.568Z" fill="#1B4B5E"/>
<path d="M48.0694 179.907C49.589 179.408 51.166 179.95 52.6584 180.288C54.1921 180.637 55.7539 180.864 57.3212 180.997C60.5013 181.265 63.7031 181.124 66.8734 180.797C70.0535 180.469 73.2097 179.958 76.366 179.452C79.6426 178.927 82.9202 178.402 86.1969 177.877C89.903 177.284 93.6091 176.69 97.3152 176.096C97.7675 176.024 97.5755 175.336 97.1254 175.409C90.532 176.465 83.9387 177.522 77.3453 178.577C71.0491 179.586 64.6792 180.73 58.2757 180.352C56.5067 180.248 54.7452 180.022 53.0142 179.639C51.3406 179.269 49.5825 178.66 47.8796 179.22C47.4458 179.361 47.6312 180.051 48.0694 179.907Z" fill="#1B4B5E"/>
<path d="M79.4343 179.792C80.1772 183.379 80.6653 187.017 80.8876 190.673C80.9972 192.479 81.0439 194.288 81.0265 196.096C81.0178 197.02 80.9918 197.943 80.9495 198.865C80.9299 199.288 80.9072 199.711 80.8811 200.133C80.8551 200.544 80.841 200.983 80.6696 201.365C80.4983 201.747 80.1599 201.958 79.7965 202.134C79.367 202.34 78.9234 202.517 78.4863 202.707C77.5112 203.129 76.5362 203.55 75.5611 203.972C75.7401 204.075 75.9191 204.177 76.098 204.28C76.034 198.787 75.7314 193.297 75.188 187.83C75.0329 186.268 74.8572 184.709 74.6641 183.151C74.6077 182.701 73.894 182.696 73.9504 183.151C74.6283 188.602 75.0709 194.083 75.2715 199.573C75.329 201.142 75.3659 202.711 75.3843 204.28C75.3876 204.574 75.6793 204.693 75.9212 204.588C76.8236 204.198 77.7271 203.807 78.6295 203.417C79.0547 203.233 79.4809 203.052 79.905 202.865C80.2662 202.706 80.6263 202.529 80.9115 202.249C81.4799 201.693 81.5471 200.883 81.5948 200.134C81.6556 199.174 81.6967 198.212 81.7206 197.251C81.8139 193.481 81.6284 189.704 81.1686 185.96C80.9061 183.828 80.5579 181.706 80.1219 179.602C80.0297 179.153 79.341 179.343 79.4343 179.792Z" fill="#1B4B5E"/>
<path d="M67.8774 206.434C73.832 205.377 79.7377 204.049 85.5697 202.453C87.2042 202.005 88.8333 201.536 90.4559 201.047C90.894 200.915 90.7075 200.226 90.2661 200.359C84.4764 202.104 78.6075 203.587 72.6812 204.795C71.0207 205.134 69.3558 205.451 67.6866 205.748C67.2365 205.826 67.4273 206.515 67.8774 206.434Z" fill="#1B4B5E"/>
<path d="M68.4975 30.603C69.1743 31.9414 70.0517 33.8189 69.1146 35.2419C68.3804 36.3568 66.8326 36.6291 65.71 37.1855C65.1113 37.4827 64.5636 37.8775 64.1753 38.4285C63.7078 39.0933 63.5603 39.909 63.4605 40.6986C63.3597 41.4947 63.3098 42.2994 63.0224 43.0576C62.7371 43.8103 62.2425 44.4784 61.6568 45.0251C60.1871 46.3993 58.1513 46.9199 56.1904 47.0338C55.7337 47.0609 55.7305 47.7746 56.1904 47.7475C58.0494 47.639 59.9648 47.2052 61.4887 46.0837C62.9009 45.0446 63.7968 43.5999 64.0354 41.8602C64.1504 41.0196 64.1655 40.1291 64.4909 39.333C64.7784 38.6302 65.3413 38.1725 66.0018 37.8352C67.2491 37.1985 68.7621 36.9208 69.6396 35.7321C70.8663 34.0694 69.9324 31.86 69.1135 30.2418C68.9064 29.8329 68.2903 30.1941 68.4975 30.603Z" fill="#C23F37"/>
<path d="M44.3861 41.1368C42.4273 44.946 43.1291 49.3712 44.4621 53.2563C44.8699 54.445 45.3341 55.6132 45.7983 56.7802C45.9653 57.2021 46.6562 57.0177 46.4859 56.5904C44.9881 52.8225 43.3785 48.7812 44.0076 44.6445C44.1746 43.549 44.4946 42.4829 45.0022 41.4969C45.2115 41.0891 44.5966 40.7279 44.3861 41.1368Z" fill="#C23F37"/>
<path d="M86.6877 29.1619C86.4415 28.5372 86.3775 27.8626 86.538 27.2064C86.7094 26.5057 87.1183 25.9537 87.6313 25.4602C88.5597 24.5697 89.8515 23.5198 91.2344 23.7584C92.3527 23.9515 93.1488 24.958 93.4351 26.0046C93.7746 27.2443 93.3505 28.5285 92.6737 29.5763C92.3103 30.1392 91.8678 30.6457 91.3852 31.1088C90.9199 31.5557 90.3537 32.0524 89.6693 32.0503C89.3895 32.0492 89.0945 31.9657 88.9036 31.7498C88.6802 31.4971 88.6259 31.1305 88.5847 30.8084C88.5012 30.1533 88.4611 29.4201 88.9047 28.8789C89.6129 28.0155 90.9253 27.945 91.8006 28.5763C92.8516 29.3344 93.1997 30.7357 92.9676 31.9602C92.6975 33.3833 91.8114 34.9462 90.5272 35.6859C89.9643 36.0102 89.3266 36.1349 88.6953 35.9581C88.1194 35.7965 87.6162 35.4061 87.4524 34.8139C87.3309 34.3713 86.6421 34.559 86.7647 35.0037C87.1454 36.3844 88.7626 37.0156 90.0685 36.6501C91.6173 36.2174 92.7019 34.7434 93.2941 33.3247C93.9232 31.8182 93.959 30.0416 92.9286 28.701C92.0425 27.548 90.5468 27.0968 89.2159 27.7498C88.6075 28.048 88.1183 28.5828 87.9274 29.2379C87.8005 29.675 87.8027 30.1403 87.8461 30.5893C87.8862 31.0112 87.9361 31.4429 88.115 31.8312C88.4524 32.5622 89.2561 32.8561 90.0175 32.7347C90.8342 32.6056 91.4947 32.0134 92.0576 31.4483C93.1932 30.3095 94.1217 28.8669 94.2562 27.2292C94.3722 25.8235 93.7182 24.3484 92.549 23.5447C91.1455 22.5805 89.4578 23.1076 88.1975 24.0469C87.5175 24.5545 86.8363 25.1369 86.3602 25.8463C85.9122 26.5144 85.6953 27.3474 85.7376 28.1489C85.7604 28.5621 85.846 28.9667 85.9968 29.3507C86.166 29.7747 86.8558 29.5904 86.6877 29.1619Z" fill="#84211F"/>
<path d="M50.6567 28.2462C50.5916 26.3807 50.0233 24.4284 48.6274 23.1171C47.3345 21.9023 45.4397 21.334 43.7477 22.0086C42.161 22.6409 41.0221 24.0802 40.3236 25.5954C39.5774 27.2169 39.2108 29.0488 39.4711 30.8276C39.713 32.486 40.6978 34.4903 42.4516 34.96C44.2304 35.4361 46.251 33.9383 46.5927 32.1877C46.7543 31.3612 46.533 30.4892 45.9354 29.8807C45.3193 29.2527 44.4072 29.1041 43.6003 29.4263C42.0427 30.0467 41.1381 31.7723 40.9245 33.3591C40.7195 34.8819 41.111 36.5218 42.2173 37.6314C43.3985 38.8147 45.2619 39.2008 46.84 38.6899C47.237 38.562 47.6133 38.3787 47.9582 38.1444C48.3357 37.8873 47.9788 37.2691 47.5981 37.5283C46.418 38.332 44.8204 38.4199 43.5579 37.7442C42.3942 37.1205 41.713 35.8992 41.6013 34.6042C41.4874 33.2842 41.8757 31.859 42.7814 30.8699C43.2543 30.3525 43.9549 29.8568 44.6957 29.9859C45.3822 30.1052 45.8497 30.7734 45.9267 31.4361C46.1067 32.9719 44.3671 34.5229 42.8746 34.3222C41.354 34.1183 40.4874 32.3309 40.2206 30.9957C39.9234 29.5119 40.1728 27.9436 40.6978 26.5401C41.2011 25.193 42.0416 23.8438 43.2716 23.0509C44.7271 22.1127 46.507 22.3058 47.8421 23.3763C49.2988 24.5433 49.8801 26.4414 49.943 28.2462C49.9593 28.7039 50.673 28.7061 50.6567 28.2462Z" fill="#84211F"/>
<path d="M66.7942 21.5074C68.625 23.9673 69.6012 26.9836 69.5415 30.0509C69.5329 30.5108 70.2465 30.5108 70.2552 30.0509C70.317 26.8708 69.3105 23.6994 67.4102 21.1473C67.1391 20.7839 66.5198 21.1386 66.7942 21.5074Z" fill="#84211F"/>
<path d="M66.8173 29.3549C64.8932 29.1781 62.9095 29.7367 61.3465 30.8723C59.7825 32.009 58.6892 33.6814 58.2695 35.5697C58.0569 36.5285 58.0125 37.5155 58.1459 38.4884C58.2131 38.9754 58.327 39.4494 58.481 39.9169C58.6502 40.4267 58.8628 40.9527 58.801 41.5015C58.7034 42.3692 57.9853 43.0373 57.2651 43.443C56.3432 43.9625 55.2651 44.0948 54.2434 44.2944C53.1078 44.5156 51.9896 44.8334 51.1165 45.6306C50.341 46.34 49.8605 47.3497 50.0947 48.4051C50.1945 48.853 50.8822 48.6632 50.7824 48.2153C50.5872 47.3335 51.1295 46.5168 51.7933 45.9864C52.5883 45.3497 53.6132 45.1382 54.5905 44.9527C56.3356 44.6198 58.4517 44.1946 59.276 42.3865C59.7077 41.4408 59.4398 40.5655 59.1361 39.6273C58.8519 38.7477 58.7391 37.8323 58.7944 36.9103C58.9072 35.0491 59.7272 33.2508 61.1025 31.9862C62.635 30.5773 64.7468 29.8799 66.8162 30.0697C67.275 30.1098 67.2718 29.3961 66.8173 29.3549Z" fill="#84211F"/>
<path d="M57.609 28.0456C56.1307 29.191 54.6079 30.3851 53.6686 32.0381C53.2174 32.832 52.9127 33.7095 52.8357 34.6227C52.7608 35.5219 52.9908 36.3852 53.2391 37.241C53.5038 38.1488 53.8519 39.1868 53.4257 40.1C53.2326 40.5132 53.8476 40.8766 54.0417 40.4601C54.8368 38.754 53.7066 37.1206 53.5504 35.4156C53.3801 33.5652 54.4192 31.8765 55.6752 30.6129C56.4268 29.8569 57.2718 29.2018 58.1134 28.55C58.2674 28.4307 58.236 28.1704 58.1134 28.0456C57.9648 27.8938 57.7609 27.9285 57.609 28.0456Z" fill="#84211F"/>
<path d="M55.7585 34.0727C55.5654 34.5727 55.4699 35.1117 55.4678 35.6475C55.4667 35.8341 55.6326 36.0131 55.8246 36.0044C56.0187 35.9957 56.1803 35.8482 56.1814 35.6475C56.1814 35.5196 56.1879 35.3905 56.1999 35.2625C56.202 35.2354 56.2053 35.2083 56.2086 35.1801C56.2107 35.1616 56.2129 35.1432 56.215 35.1258C56.2129 35.1389 56.2118 35.153 56.2096 35.166C56.2129 35.1031 56.2291 35.038 56.2411 34.9762C56.2877 34.7321 56.3571 34.4946 56.4461 34.2625C56.5133 34.0879 56.3723 33.8634 56.1966 33.8232C55.9938 33.7766 55.83 33.8861 55.7585 34.0727Z" fill="#84211F"/>
<path d="M72.3708 28.7245C74.1441 29.0662 75.1952 30.7939 76.6648 31.6909C77.5488 32.23 78.5531 32.3786 79.5455 32.5998C80.5379 32.8211 81.4089 33.2018 82.039 34.0304C82.6952 34.8938 83.0369 35.9545 83.359 36.9762C83.4968 37.4122 84.1855 37.2257 84.0467 36.7864C83.4404 34.8612 82.6486 32.8601 80.5835 32.1432C79.552 31.7853 78.4099 31.769 77.4197 31.2907C76.5683 30.8785 75.8947 30.1996 75.1973 29.577C74.4305 28.8915 73.5942 28.2353 72.5595 28.0369C72.1116 27.9501 71.9196 28.6377 72.3708 28.7245Z" fill="#84211F"/>
<path d="M75.3753 26.139C76.4512 26.5295 77.5749 26.9275 78.4773 27.6531C79.2701 28.2898 79.9003 29.2052 79.9253 30.2497C79.9361 30.7085 80.6497 30.7096 80.6389 30.2497C80.6107 29.0458 79.948 27.9557 79.0391 27.1965C78.0304 26.3538 76.7842 25.8939 75.564 25.4514C75.1324 25.2941 74.9458 25.9839 75.3753 26.139Z" fill="#84211F"/>
<path d="M82.9004 30.3786C83.0089 30.4295 83.1141 30.4859 83.2161 30.5499C83.2638 30.5803 83.3115 30.6128 83.3571 30.6454C83.3733 30.6573 83.4189 30.692 83.3798 30.6616C83.407 30.6833 83.433 30.705 83.459 30.7267C83.5458 30.8005 83.6282 30.8796 83.7052 30.9632C83.7443 31.0055 83.7811 31.0478 83.818 31.0922C83.8191 31.0944 83.8852 31.179 83.8473 31.128C83.8646 31.1508 83.8809 31.1736 83.8972 31.1974C83.9634 31.2907 84.023 31.3883 84.0783 31.4881C84.1087 31.5434 84.1369 31.5998 84.1629 31.6562C84.1662 31.6638 84.202 31.7441 84.1857 31.7072C84.1716 31.6736 84.2074 31.7625 84.2063 31.7604C84.2464 31.8666 84.2812 31.9762 84.3083 32.0868C84.3235 32.1476 84.3364 32.2094 84.3473 32.2712C84.3494 32.2842 84.3614 32.3612 84.3527 32.2951C84.357 32.3287 84.3603 32.3634 84.3636 32.397C84.3809 32.5825 84.5154 32.7625 84.7204 32.7539C84.8983 32.7463 85.0957 32.5955 85.0773 32.397C84.9721 31.2799 84.2866 30.2419 83.2605 29.7625C83.0859 29.6812 82.8755 29.7137 82.7725 29.8905C82.6824 30.0456 82.7247 30.2972 82.9004 30.3786Z" fill="#84211F"/>
<path d="M50.2887 35.2835C50.1802 36.4039 50.0729 37.5243 49.9644 38.6447C49.8668 39.6545 49.7974 40.6816 49.1065 41.4842C48.5219 42.1643 47.7735 42.6784 47.2453 43.4105C46.7399 44.1112 46.4687 44.9691 46.4145 45.8281C46.3537 46.7923 46.5945 47.7728 47.1108 48.5906C47.3548 48.9778 47.973 48.6199 47.7268 48.2305C46.8429 46.8303 46.9188 44.8802 47.9969 43.5992C48.5566 42.9344 49.2843 42.4354 49.8114 41.7402C50.4091 40.9528 50.5457 40.0026 50.639 39.0449C50.7616 37.7911 50.8809 36.5384 51.0024 35.2846C51.0458 34.8269 50.3321 34.8301 50.2887 35.2835Z" fill="#84211F"/>
<path d="M61.9663 24.0359C61.9316 24.0511 61.9706 24.0337 61.9847 24.0294C62.014 24.0185 62.0422 24.0077 62.0725 23.9979C62.1192 23.9827 62.1669 23.9686 62.2146 23.9567C62.2688 23.9426 62.3231 23.9328 62.3773 23.922C62.3958 23.9187 62.4315 23.9133 62.3925 23.9187C62.4228 23.9144 62.4543 23.9122 62.4847 23.909C62.5888 23.9003 62.6951 23.8981 62.7992 23.9036C62.9337 23.9101 62.9391 23.9111 63.0725 23.9383C63.1756 23.96 63.2776 23.9882 63.3763 24.0229C63.4902 24.063 63.5021 24.0684 63.6138 24.127C63.8264 24.2387 63.937 24.3233 64.1008 24.4936C64.2342 24.6324 64.4706 24.6281 64.6051 24.4936C64.744 24.3548 64.7396 24.1281 64.6051 23.9892C63.8318 23.1899 62.6159 22.9849 61.6072 23.4198C61.4304 23.4957 61.3903 23.756 61.4793 23.9079C61.5855 24.0901 61.7895 24.1118 61.9663 24.0359Z" fill="#84211F"/>
<path d="M50.6695 52.7217C51.7639 53.8627 52.6825 55.1545 53.407 56.5601C53.6175 56.9679 54.2336 56.6078 54.0232 56.2C53.2726 54.7434 52.3084 53.3995 51.1739 52.2173C50.8561 51.8854 50.3517 52.3909 50.6695 52.7217Z" fill="#7F4924"/>
<path d="M50.8749 55.6708C51.2957 55.5504 51.7176 55.43 52.1384 55.3096C52.3174 55.2587 52.4475 55.0558 52.3878 54.8704C52.3293 54.6882 52.1417 54.5667 51.9486 54.6209C51.5278 54.7413 51.1059 54.8617 50.6851 54.9821C50.5061 55.0331 50.3759 55.2359 50.4356 55.4214C50.4941 55.6036 50.6818 55.7251 50.8749 55.6708Z" fill="#7F4924"/>
<path opacity="0.58" d="M75.6401 68.3228L61.9414 69.1091L75.4915 72.2903L75.6401 68.3228Z" fill="#7F4924"/>
<path d="M71.7455 47.1633C72.5123 49.8141 75.0449 51.7664 77.802 51.8402C77.6989 51.6612 77.597 51.4823 77.4939 51.3033C77.0286 52.1797 76.5156 53.0289 75.9571 53.8489C75.6978 54.2296 76.3161 54.5864 76.5731 54.209C77.1317 53.389 77.6436 52.5398 78.11 51.6634C78.238 51.4226 78.0785 51.1341 77.802 51.1265C75.3638 51.0614 73.111 49.3152 72.4331 46.9735C72.3062 46.5332 71.6164 46.7208 71.7455 47.1633Z" fill="#7F4924"/>
<path d="M71.2985 54.6545C71.9927 56.4007 74.2823 57.2283 75.9125 56.2423C76.3051 56.0048 75.9461 55.3877 75.5524 55.6263C74.3496 56.3541 72.5155 55.7955 71.9873 54.4657C71.9157 54.2868 71.7487 54.161 71.548 54.2163C71.3777 54.2629 71.2269 54.4744 71.2985 54.6545Z" fill="#7F4924"/>
<path d="M63.4692 50.5287C63.8846 49.5558 64.7143 48.6273 65.8217 48.4972C66.7458 48.3887 67.8717 49.0145 67.9823 50.0059C68.004 50.1989 68.1309 50.3605 68.3391 50.3627C68.5159 50.3649 68.7176 50.1968 68.6959 50.0059C68.5462 48.6761 67.2751 47.7249 65.9605 47.7748C64.5505 47.828 63.3846 48.9245 62.8531 50.1697C62.7772 50.3475 62.8011 50.5504 62.9811 50.6577C63.1297 50.7456 63.3933 50.7055 63.4692 50.5287Z" fill="black"/>
<path d="M78.1909 50.1806C78.6063 49.2077 79.436 48.2793 80.5434 48.1491C81.4675 48.0407 82.5933 48.6665 82.704 49.6568C82.7257 49.8498 82.8525 50.0114 83.0608 50.0136C83.2376 50.0158 83.4393 49.8476 83.4176 49.6568C83.2679 48.327 81.9968 47.3758 80.6822 47.4257C79.2722 47.4788 78.1063 48.5754 77.5748 49.8205C77.4989 49.9995 77.5227 50.2012 77.7028 50.3086C77.8514 50.3986 78.1149 50.3574 78.1909 50.1806Z" fill="black"/>
<path d="M57.3377 47.5359C56.3757 47.7929 55.9613 49.0359 56.2747 49.9817C56.5893 50.9275 57.4082 51.6086 58.2368 52.1617C59.0655 52.7149 59.9614 53.2127 60.5829 53.9915C61.3107 54.9047 61.5774 56.1672 61.2802 57.2963C60.983 58.4254 60.1306 59.3939 59.0481 59.831C60.0047 59.4135 60.3052 58.1076 59.9169 57.1401C59.5286 56.1716 58.6479 55.4937 57.7509 54.9611C56.854 54.4286 55.8865 53.9817 55.1349 53.2583C53.5687 51.7496 53.2975 49.0814 54.5275 47.2886L57.3377 47.5359Z" fill="#C23F37"/>
<path d="M78.1777 42.3291C78.1333 43.3498 78.3025 44.6719 79.2949 44.9105C79.745 45.019 80.207 44.84 80.6637 44.7608C81.8014 44.5645 82.9425 44.994 84.0173 45.416C83.3655 44.4192 82.5737 43.4821 81.5476 42.878C80.5205 42.2738 79.2276 42.0417 78.1191 42.4767L78.1777 42.3291Z" fill="#84211F"/>
<path d="M68.404 42.564C68.4485 43.5846 68.2792 44.9068 67.2868 45.1454C66.8367 45.2539 66.3747 45.0749 65.9181 44.9957C64.7803 44.7994 63.6393 45.2289 62.5645 45.6508C63.2163 44.6541 64.008 43.717 65.0341 43.1128C66.0601 42.5087 67.3541 42.2766 68.4626 42.7115L68.404 42.564Z" fill="#84211F"/>
<path d="M94.1408 90.4728C96.5996 94.052 98.5552 97.9664 99.9489 102.078C101.336 106.173 102.179 110.45 102.426 114.766C102.566 117.21 102.516 119.662 102.276 122.097C102.231 122.553 102.946 122.55 102.99 122.097C103.42 117.729 103.23 113.313 102.461 108.993C101.693 104.675 100.337 100.464 98.4489 96.5054C97.387 94.2819 96.1517 92.1431 94.7569 90.1116C94.4987 89.7363 93.8805 90.0921 94.1408 90.4728Z" fill="#5E340E"/>
<path d="M56.0143 82.2099C57.0349 83.3683 58.3137 84.2729 59.74 84.8618C61.2985 85.5039 62.9949 85.6969 64.6695 85.6199C66.4396 85.5386 68.1935 85.1948 69.9234 84.8293C70.7846 84.647 71.6501 84.4648 72.4983 84.2316C73.226 84.0321 73.9441 83.7533 74.5178 83.249C75.0005 82.8249 75.4441 82.2956 75.7651 81.7392C76.0591 81.2294 76.3064 80.5342 75.9203 80.0038C75.6524 79.6361 75.033 79.9919 75.3042 80.3639C75.5743 80.7359 75.238 81.2544 75.0265 81.5765C74.7477 82.0028 74.3975 82.4084 74.0135 82.7435C73.4853 83.2045 72.7901 83.4193 72.1241 83.5917C71.3703 83.7869 70.6078 83.954 69.8464 84.1156C66.7704 84.7718 63.4374 85.4377 60.3799 84.3455C58.8907 83.813 57.5631 82.8889 56.5197 81.7045C56.215 81.3596 55.7117 81.8661 56.0143 82.2099Z" fill="#5E340E"/>
<path d="M56.2977 82.5042C55.814 83.104 55.3302 83.7038 54.8454 84.3025C54.7283 84.4478 54.6936 84.6669 54.8454 84.8069C54.9756 84.9262 55.225 84.962 55.3497 84.8069C55.8335 84.2071 56.3172 83.6073 56.802 83.0086C56.9192 82.8632 56.9539 82.6441 56.802 82.5042C56.673 82.3849 56.4235 82.3491 56.2977 82.5042Z" fill="#5E340E"/>
<path d="M58.0306 83.8296C57.5588 84.5574 57.087 85.2863 56.6152 86.0141C56.5132 86.1713 56.5784 86.4154 56.7432 86.5021C56.9211 86.5965 57.1228 86.5412 57.2312 86.3741C57.703 85.6464 58.1749 84.9175 58.6467 84.1897C58.7487 84.0325 58.6835 83.7884 58.5187 83.7017C58.3419 83.6084 58.1401 83.6626 58.0306 83.8296Z" fill="#5E340E"/>
<path d="M60.0721 84.9437C59.7499 85.5955 59.4289 86.2474 59.1067 86.8982C59.0243 87.0652 59.0558 87.2919 59.2348 87.3862C59.3953 87.4708 59.6349 87.4372 59.7228 87.2583C60.0449 86.6064 60.366 85.9546 60.6881 85.3038C60.7705 85.1368 60.7391 84.9101 60.5601 84.8157C60.3985 84.73 60.1599 84.7647 60.0721 84.9437Z" fill="#5E340E"/>
<path d="M62.3546 85.3741C62.052 86.155 61.7483 86.937 61.4457 87.7179C61.3785 87.8926 61.5206 88.1171 61.6952 88.1572C61.9002 88.2038 62.0618 88.0943 62.1345 87.9078C62.4371 87.1268 62.7408 86.3448 63.0434 85.5639C63.1106 85.3893 62.9697 85.1648 62.7939 85.1246C62.589 85.0791 62.4262 85.1875 62.3546 85.3741Z" fill="#5E340E"/>
<path d="M65.0706 85.555C64.9958 86.0344 64.9199 86.5127 64.845 86.9921C64.8298 87.0898 64.8288 87.1787 64.8808 87.2676C64.9242 87.3414 65.0088 87.4119 65.0945 87.4314C65.2658 87.4705 65.5023 87.3794 65.5338 87.182C65.6086 86.7026 65.6845 86.2242 65.7594 85.7448C65.7746 85.6472 65.7756 85.5583 65.7236 85.4704C65.6802 85.3967 65.5956 85.3262 65.5099 85.3067C65.3385 85.2665 65.1021 85.3576 65.0706 85.555Z" fill="#5E340E"/>
<path d="M68.1123 85.1062C68.1123 85.6474 68.1123 86.1897 68.1123 86.7309C68.1123 86.9175 68.2761 87.0964 68.4692 87.0877C68.6622 87.0791 68.826 86.9305 68.826 86.7309C68.826 86.1897 68.826 85.6474 68.826 85.1062C68.826 84.9196 68.6622 84.7406 68.4692 84.7493C68.275 84.758 68.1123 84.9066 68.1123 85.1062Z" fill="#5E340E"/>
<path d="M71.0654 84.6496C71.1847 85.3112 71.3051 85.9739 71.4244 86.6355C71.4581 86.8199 71.6913 86.9403 71.8637 86.885C72.0611 86.821 72.149 86.6431 72.1132 86.4457C71.9939 85.7841 71.8735 85.1214 71.7542 84.4598C71.7205 84.2754 71.4874 84.155 71.3149 84.2103C71.1175 84.2743 71.0296 84.4522 71.0654 84.6496Z" fill="#5E340E"/>
<path d="M73.8109 83.9164C73.8651 83.9663 73.9161 84.0173 73.9649 84.0715C73.9876 84.0975 74.0104 84.1235 74.0321 84.1496C74.0375 84.1561 74.043 84.1626 74.0484 84.1691C74.0647 84.1897 74.0592 84.1821 74.0321 84.1474C74.031 84.1528 74.0582 84.1832 74.0625 84.1886C74.1482 84.3068 74.222 84.4348 74.2827 84.5672C74.287 84.5769 74.2957 84.6084 74.3033 84.6138C74.2903 84.6051 74.2784 84.552 74.2968 84.5997C74.3087 84.6322 74.3218 84.6637 74.3326 84.6962C74.3565 84.7656 74.377 84.8361 74.3944 84.9066C74.4117 84.9771 74.4172 85.052 74.4356 85.1225C74.4302 85.1008 74.428 85.0574 74.4324 85.104C74.4345 85.1257 74.4367 85.1463 74.4378 85.168C74.441 85.2071 74.4421 85.245 74.4432 85.2841C74.4486 85.4706 74.6037 85.6496 74.8 85.6409C74.9888 85.6322 75.1623 85.4836 75.1569 85.2841C75.1373 84.578 74.8348 83.8882 74.3131 83.4088C74.1753 83.2819 73.9421 83.2624 73.8087 83.4088C73.684 83.5487 73.6645 83.7808 73.8109 83.9164Z" fill="#5E340E"/>
<path d="M75.4511 81.9127C76.0162 82.4398 76.6724 82.8433 77.3926 83.1199C77.5672 83.1871 77.7918 83.0461 77.8319 82.8704C77.8785 82.6665 77.77 82.5038 77.5824 82.4311C77.5444 82.416 77.5065 82.4019 77.4685 82.3867C77.4381 82.3737 77.4371 82.3737 77.4685 82.3867C77.4447 82.3769 77.4219 82.3661 77.398 82.3563C77.3232 82.3227 77.2494 82.288 77.1756 82.2511C77.0205 82.173 76.8687 82.0884 76.7212 81.9962C76.578 81.9062 76.4403 81.8097 76.3047 81.7088C76.3297 81.7294 76.3318 81.7294 76.3047 81.7088C76.2885 81.6958 76.2733 81.6828 76.257 81.6697C76.2255 81.6437 76.1941 81.6177 76.1627 81.5917C76.0922 81.532 76.0238 81.4713 75.9566 81.4084C75.8199 81.2815 75.5856 81.263 75.4522 81.4084C75.3242 81.5461 75.3047 81.7771 75.4511 81.9127Z" fill="#5E340E"/>
<path d="M116.69 132.359C117.267 129.256 118.927 126.418 121.397 124.444C123.806 122.519 126.891 121.531 129.969 121.803C131.726 121.958 133.435 122.529 134.931 123.464C135.321 123.708 135.68 123.091 135.291 122.848C132.481 121.091 128.965 120.604 125.768 121.451C122.652 122.277 119.915 124.296 118.123 126.964C117.07 128.531 116.347 130.316 116.002 132.171C115.919 132.619 116.606 132.812 116.69 132.359Z" fill="#5E340E"/>
<path d="M15.7086 127.92C20.0145 130.503 25.1068 131.731 30.1177 131.427C31.5191 131.342 32.9139 131.137 34.2815 130.817C34.7284 130.712 34.5397 130.024 34.0918 130.13C29.3509 131.24 24.3107 130.86 19.7694 129.116C18.4852 128.622 17.2488 128.013 16.0687 127.305C15.6739 127.067 15.3149 127.684 15.7086 127.92Z" fill="#5E340E"/>
<path d="M35.3774 127.521C35.5672 133.229 35.3708 138.948 34.783 144.63C34.617 146.232 34.4207 147.831 34.1919 149.426C34.1648 149.618 34.2396 149.806 34.4413 149.865C34.6083 149.913 34.8535 149.806 34.8806 149.616C35.693 143.93 36.1268 138.192 36.1605 132.448C36.1702 130.805 36.1463 129.163 36.091 127.521C36.0758 127.063 35.3622 127.061 35.3774 127.521Z" fill="#5E340E"/>
<path d="M35.3006 142.05C35.7073 143.199 36.1151 144.347 36.5218 145.495C36.5858 145.676 36.7648 145.798 36.9611 145.745C37.1369 145.696 37.2746 145.489 37.2106 145.305C36.8039 144.157 36.3961 143.009 35.9893 141.861C35.9253 141.68 35.7463 141.558 35.55 141.611C35.3732 141.66 35.2355 141.868 35.3006 142.05Z" fill="#5E340E"/>
<path d="M16.4129 124.912C15.9639 126.838 14.9248 128.544 14.2296 130.382C13.5051 132.297 13.1233 134.319 12.8597 136.344C12.71 137.491 12.6005 138.644 12.4931 139.796C12.4497 140.253 13.1645 140.251 13.2068 139.796C13.3955 137.782 13.5864 135.764 14.0007 133.781C14.2068 132.798 14.466 131.826 14.8044 130.881C15.1374 129.951 15.5647 129.063 15.9736 128.166C16.4259 127.175 16.8533 126.168 17.1017 125.103C17.2058 124.655 16.517 124.464 16.4129 124.912Z" fill="#5E340E"/>
<path d="M40.7649 139.536C39.7703 134.155 39.2703 128.695 39.0783 123.23C38.8863 117.752 38.9981 112.268 39.2183 106.793C39.343 103.706 39.5024 100.621 39.6629 97.5356C39.6868 97.0768 38.9732 97.0779 38.9493 97.5356C38.663 103.051 38.3788 108.568 38.292 114.092C38.2063 119.579 38.3158 125.076 38.8213 130.544C39.1054 133.621 39.5144 136.687 40.0762 139.726C40.1597 140.177 40.8484 139.986 40.7649 139.536Z" fill="#5E340E"/>
<path d="M37.3123 99.1755C37.6887 99.95 38.065 100.725 38.4403 101.5C38.5249 101.673 38.7711 101.72 38.9284 101.628C39.1051 101.525 39.1409 101.313 39.0563 101.14C38.68 100.365 38.3036 99.5899 37.9283 98.8155C37.8437 98.6419 37.5975 98.5953 37.4403 98.6875C37.2635 98.7916 37.2277 99.002 37.3123 99.1755Z" fill="#5E340E"/>
<path d="M96.5027 90.3471C96.3595 91.5477 96.2152 92.7484 96.0721 93.9491C96.0493 94.141 96.2522 94.3059 96.429 94.3059C96.6405 94.3059 96.763 94.141 96.7858 93.9491C96.9289 92.7484 97.0732 91.5477 97.2164 90.3471C97.2392 90.1551 97.0363 89.9902 96.8595 89.9902C96.6469 89.9902 96.5255 90.1551 96.5027 90.3471Z" fill="#5E340E"/>
<path d="M58.9124 136.883C62.829 134.923 66.7867 133.044 70.7813 131.248C74.7825 129.45 78.8216 127.736 82.8954 126.107C85.1937 125.188 87.5039 124.297 89.8228 123.431C90.249 123.272 90.0647 122.582 89.633 122.744C85.493 124.287 81.3856 125.916 77.315 127.632C73.2683 129.337 69.2563 131.124 65.2834 132.996C63.0263 134.059 60.7833 135.15 58.5523 136.267C58.1412 136.472 58.5024 137.088 58.9124 136.883Z" fill="#5E340E"/>
<path d="M62.3633 139.272C68.5911 136.233 74.9133 133.389 81.3234 130.755C83.1369 130.01 84.958 129.281 86.7855 128.569C87.2085 128.404 87.0241 127.713 86.5957 127.881C80.0826 130.422 73.6509 133.17 67.3135 136.123C65.5358 136.952 63.7657 137.797 62.0032 138.657C61.5911 138.857 61.9522 139.473 62.3633 139.272Z" fill="#5E340E"/>
<path d="M59.7095 165.227C60.3017 166.077 60.6835 167.039 60.8364 168.064C60.8646 168.255 61.1054 168.36 61.2757 168.314C61.4796 168.257 61.5534 168.066 61.5252 167.874C61.3636 166.798 60.9481 165.761 60.3256 164.867C60.216 164.708 60.0132 164.636 59.8375 164.739C59.6813 164.83 59.6 165.067 59.7095 165.227Z" fill="#5E340E"/>
<path d="M61.6788 165.697C61.7981 166.359 61.9185 167.021 62.0378 167.683C62.0714 167.867 62.3046 167.988 62.4771 167.932C62.6745 167.868 62.7623 167.69 62.7265 167.493C62.6072 166.831 62.4868 166.169 62.3675 165.507C62.3339 165.323 62.1007 165.202 61.9282 165.258C61.7297 165.322 61.643 165.5 61.6788 165.697Z" fill="#5E340E"/>
<path d="M87.7045 162.34C87.6676 162.253 87.7121 162.366 87.7186 162.383C87.7294 162.413 87.7392 162.443 87.7479 162.474C87.7674 162.54 87.7826 162.606 87.7945 162.673C87.7978 162.693 87.8216 162.775 87.7978 162.686C87.8064 162.72 87.8054 162.761 87.8076 162.796C87.8119 162.86 87.813 162.924 87.8108 162.988C87.8097 163.019 87.8075 163.052 87.8054 163.083C87.8032 163.104 87.8 163.208 87.8043 163.111C87.8021 163.172 87.7826 163.239 87.7674 163.298C87.7523 163.36 87.7338 163.422 87.7121 163.481C87.7056 163.5 87.6742 163.613 87.6969 163.524C87.6883 163.557 87.6655 163.592 87.6492 163.622C87.5646 163.788 87.6004 164.017 87.7772 164.111C87.9399 164.196 88.1752 164.16 88.2653 163.983C88.4236 163.671 88.5126 163.336 88.5245 162.987C88.5364 162.635 88.4583 162.299 88.3217 161.978C88.2891 161.902 88.1839 161.835 88.108 161.814C88.0223 161.791 87.9084 161.801 87.8336 161.85C87.6535 161.967 87.6264 162.156 87.7045 162.34Z" fill="#5E340E"/>
<path d="M90.0232 162.186C89.9993 162.546 89.9766 162.905 89.9527 163.264C89.9408 163.451 90.1251 163.63 90.3095 163.621C90.5134 163.613 90.6534 163.464 90.6664 163.264C90.6903 162.905 90.713 162.545 90.7369 162.186C90.7488 162 90.5644 161.821 90.38 161.829C90.1772 161.839 90.0362 161.987 90.0232 162.186Z" fill="#5E340E"/>
<path d="M74.4711 165.255C74.546 165.358 74.6111 165.466 74.6653 165.581C74.6718 165.595 74.6783 165.611 74.6848 165.625C74.6642 165.576 74.662 165.569 74.6761 165.605C74.6848 165.627 74.6934 165.65 74.701 165.671C74.7227 165.731 74.7412 165.792 74.7564 165.853C74.7716 165.915 74.7835 165.977 74.7943 166.04C74.8084 166.122 74.7867 165.957 74.7943 166.04C74.7976 166.072 74.8008 166.103 74.8019 166.134C74.8095 166.261 74.8041 166.388 74.7868 166.514C74.7759 166.598 74.8345 166.709 74.8909 166.767C74.9527 166.829 75.0546 166.875 75.1436 166.871C75.2358 166.867 75.3313 166.836 75.3963 166.767C75.4647 166.692 75.4874 166.614 75.5004 166.514C75.5752 165.954 75.418 165.35 75.0861 164.895C75.0297 164.818 74.9679 164.757 74.8724 164.731C74.7867 164.707 74.6729 164.718 74.598 164.767C74.4505 164.862 74.354 165.093 74.4711 165.255Z" fill="#5E340E"/>
<path d="M76.3765 165.468C76.396 165.488 76.4145 165.508 76.4329 165.529C76.4416 165.54 76.4503 165.551 76.4601 165.561C76.4904 165.597 76.4503 165.549 76.4427 165.538C76.4731 165.585 76.5078 165.628 76.536 165.676C76.5653 165.724 76.5913 165.772 76.6162 165.822C76.6227 165.835 76.6281 165.847 76.6336 165.86C76.6542 165.904 76.6271 165.845 76.6228 165.832C76.6325 165.861 76.6455 165.891 76.6563 165.92C76.6748 165.972 76.69 166.026 76.7041 166.079C76.7106 166.106 76.7171 166.134 76.7214 166.161C76.7247 166.178 76.7388 166.268 76.7302 166.206C76.7215 166.143 76.7323 166.234 76.7345 166.252C76.7366 166.28 76.7388 166.307 76.7388 166.335C76.741 166.395 76.7388 166.454 76.7345 166.512C76.7214 166.699 76.908 166.878 77.0913 166.869C77.2963 166.86 77.4341 166.712 77.4482 166.512C77.4883 165.945 77.2692 165.374 76.882 164.963C76.754 164.828 76.5056 164.824 76.3776 164.963C76.2432 165.109 76.2399 165.322 76.3765 165.468Z" fill="#5E340E"/>
<path d="M51.9844 166.573C52.2252 166.874 52.4659 167.175 52.7056 167.476C52.7588 167.543 52.877 167.58 52.9584 167.58C53.0462 167.58 53.1503 167.541 53.2111 167.476C53.2729 167.407 53.3195 167.318 53.3152 167.223C53.3109 167.192 53.3066 167.16 53.3022 167.129C53.2849 167.068 53.2545 167.016 53.21 166.971C52.9692 166.671 52.7285 166.369 52.4888 166.069C52.4356 166.002 52.3174 165.965 52.236 165.965C52.1482 165.965 52.0441 166.004 51.9833 166.069C51.9204 166.137 51.8749 166.226 51.8792 166.322C51.8835 166.353 51.8878 166.385 51.8922 166.416C51.9095 166.477 51.9399 166.529 51.9844 166.573Z" fill="#5E340E"/>
<path d="M78.3202 174.096C78.3202 175.397 77.2648 176.452 75.9633 176.452C74.6617 176.452 73.6064 175.397 73.6064 174.096C73.6064 172.794 74.6617 171.739 75.9633 171.739C77.2648 171.739 78.3202 172.794 78.3202 174.096Z" fill="#1B4B5E"/>
<path d="M43.3908 76.8013C43.4146 77.2959 42.8203 77.6256 42.457 77.8534C42.0253 78.1246 41.5664 78.3512 41.0979 78.5519C40.1489 78.9586 39.1608 79.2656 38.2085 79.6647C36.3614 80.4391 34.8158 81.6658 33.8527 83.4468C33.3321 84.4099 33.0165 85.4598 32.9102 86.5488C32.8657 87.0054 33.5794 87.0021 33.6238 86.5488C33.8126 84.6214 34.8061 82.8144 36.292 81.5802C37.8799 80.2623 39.9764 79.8643 41.8094 79.0107C42.3148 78.7753 42.8062 78.5042 43.2541 78.1723C43.7053 77.8382 44.1349 77.4033 44.1067 76.8003C44.0828 76.3447 43.3691 76.3415 43.3908 76.8013Z" fill="#7F4924"/>
<path d="M25.2351 74.5715C26.2514 75.7863 27.7232 76.4501 29.0497 77.2538C29.6896 77.641 30.31 78.0705 30.8046 78.6377C31.4022 79.3232 31.6691 80.1746 31.8068 81.0596C31.9771 82.1497 31.9912 83.2636 32.3383 84.3211C32.4803 84.7549 33.1702 84.5695 33.0259 84.1313C32.4229 82.2939 32.8068 80.18 31.6257 78.5358C30.6842 77.2245 29.1885 76.5281 27.836 75.7277C27.0616 75.2689 26.3197 74.7624 25.7373 74.0672C25.4445 73.7147 24.9423 74.2212 25.2351 74.5715Z" fill="#7F4924"/>
<path d="M26.2706 56.4116C28.5027 59.866 29.0211 64.1156 29.7587 68.0755C29.994 69.3391 30.2294 70.6026 30.4636 71.8662C30.5472 72.3174 31.2348 72.1265 31.1513 71.6764C30.737 69.4475 30.327 67.2176 29.9062 64.9908C29.5309 63.0071 29.1187 61.0157 28.4062 59.1209C28.0027 58.0493 27.5081 57.0146 26.8855 56.0515C26.6382 55.6675 26.02 56.0243 26.2706 56.4116Z" fill="#7F4924"/>
<path d="M25.7791 74.2327C29.0351 73.6937 32.3171 73.3195 35.6111 73.1091C36.0677 73.0798 36.071 72.3661 35.6111 72.3954C32.2531 72.6091 28.9082 72.9941 25.5893 73.544C25.137 73.6188 25.3289 74.3065 25.7791 74.2327Z" fill="#7F4924"/>
<path d="M136.984 130.228C137.02 131.309 136.546 132.345 135.715 133.036C135.566 133.16 135.588 133.414 135.715 133.54C135.861 133.687 136.071 133.664 136.219 133.54C137.183 132.738 137.739 131.48 137.697 130.227C137.682 129.77 136.969 129.768 136.984 130.228Z" fill="#7F4924"/>
<path d="M50.2017 32.1285C50.8124 28.7 51.9187 25.3735 53.4946 22.2682C53.3081 22.2921 53.1215 22.316 52.9339 22.3409C53.7018 23.0904 53.9144 24.1967 53.7777 25.2314C53.6237 26.3963 53.0087 27.4342 52.3384 28.3757C51.6052 29.4061 50.8004 30.3801 50.1041 31.4376C49.4056 32.4994 48.7798 33.6079 48.2299 34.7543C47.6822 35.8964 47.2071 37.0743 46.8144 38.2782C46.399 39.5516 46.014 40.9051 46.129 42.2587C46.1702 42.7436 46.2548 43.3 46.654 43.6286C47.1323 44.0223 47.7245 43.7783 48.09 43.3607C48.8872 42.4486 49.2158 41.2327 49.4772 40.0787C50.1746 37.0005 50.4978 33.84 50.4479 30.6859C50.2147 30.7174 49.9805 30.7488 49.7473 30.7803C50.9794 34.7337 52.8514 38.4767 55.2864 41.826C55.5543 42.1937 56.1736 41.8379 55.9024 41.4659C53.5022 38.1643 51.6497 34.4875 50.4349 30.5905C50.3178 30.2152 49.7277 30.2716 49.7342 30.6848C49.7765 33.3725 49.5499 36.0602 49.0379 38.699C48.8134 39.8574 48.6051 41.1047 48.0455 42.1579C47.9186 42.3965 47.3709 43.4334 47.0412 43.0071C46.9088 42.8358 46.8752 42.5787 46.8524 42.3705C46.8156 42.0353 46.8145 41.6958 46.8373 41.3596C46.923 40.083 47.3579 38.8227 47.7906 37.6285C48.2006 36.4951 48.6865 35.3899 49.2418 34.3205C49.795 33.2543 50.4154 32.2228 51.0998 31.2358C51.7885 30.2423 52.577 29.3204 53.2463 28.3117C53.923 27.2911 54.4436 26.1642 54.5185 24.9277C54.5868 23.7986 54.2614 22.6403 53.4371 21.8366C53.2809 21.6847 52.9827 21.6999 52.8764 21.9081C51.2733 25.0676 50.1334 28.4505 49.5119 31.9386C49.4338 32.3877 50.1215 32.5807 50.2017 32.1285Z" fill="#6DA8C6"/>
<path d="M50.4205 32.7018C52.1223 33.7181 53.9911 34.4383 55.9347 34.8222C56.3826 34.9112 56.5746 34.2235 56.1245 34.1346C54.2362 33.7615 52.4335 33.0727 50.7806 32.0857C50.3858 31.8493 50.0268 32.4664 50.4205 32.7018Z" fill="#6DA8C6"/>
<path d="M85.2052 32.2239C84.1889 30.6393 83.076 29.0807 82.2105 27.4071C81.8081 26.6306 81.4665 25.7976 81.3472 24.9255C81.2919 24.5221 81.2853 24.1034 81.3461 23.6999C81.3743 23.509 81.409 23.2997 81.4816 23.1208C81.537 22.9841 81.5977 22.8106 81.73 22.9179C81.8439 23.0112 81.9318 23.227 82.0088 23.3529C82.0977 23.4993 82.1834 23.6468 82.2658 23.7965C82.4448 24.1197 82.6097 24.4505 82.7626 24.7878C83.0576 25.4364 83.3005 26.1078 83.5153 26.7867C83.9448 28.1458 84.2507 29.5406 84.5489 30.9332C85.1433 33.7055 85.7008 36.5797 87.1661 39.0494C87.5251 39.6546 87.9394 40.2284 88.4047 40.7566C88.8245 41.2327 89.4134 41.6839 90.0761 41.7067C90.8896 41.7338 91.2529 41.0049 91.2464 40.2848C91.2388 39.4355 90.9156 38.6253 90.5002 37.8975C89.5609 36.2511 88.2681 34.7467 86.9113 33.4311C86.5664 33.097 86.2127 32.7738 85.8483 32.4625C85.6661 32.3063 85.4817 32.1534 85.2951 32.0037C85.1248 31.8671 84.934 31.6643 84.7377 31.5677C84.5066 31.4549 84.2507 31.6013 84.0262 31.6751C83.7713 31.7586 83.5164 31.8421 83.2626 31.9256C82.7539 32.0927 82.2442 32.2597 81.7344 32.4267C81.2995 32.5688 81.486 33.2586 81.9242 33.1144C82.8331 32.8161 83.7431 32.5189 84.652 32.2207C84.5609 32.2087 84.4687 32.1968 84.3776 32.1849C85.6596 33.1643 86.8364 34.2825 87.8852 35.507C88.4004 36.1079 88.8831 36.7359 89.3321 37.3888C89.7952 38.0635 90.2453 38.7793 90.4416 39.5819C90.562 40.0754 90.7107 41.1991 89.8798 40.9551C89.2735 40.7761 88.8494 40.2143 88.4828 39.7338C87.6878 38.6904 87.1021 37.5006 86.6596 36.2695C85.7463 33.7326 85.3613 31.0471 84.716 28.4386C84.3906 27.1241 83.9969 25.8258 83.4492 24.585C83.1856 23.9863 82.883 23.4038 82.5348 22.8496C82.3678 22.5839 82.1899 22.2672 81.8688 22.1717C81.5413 22.0752 81.2344 22.2379 81.0337 22.4906C80.5348 23.1186 80.5413 24.1663 80.6335 24.9212C80.743 25.8193 81.0565 26.6707 81.4513 27.4798C81.8634 28.3269 82.3699 29.1208 82.8775 29.9126C83.4491 30.8031 84.0196 31.6946 84.5912 32.5851C84.8364 32.969 85.4546 32.6122 85.2052 32.2239Z" fill="#6DA8C6"/>
<path d="M84.4215 32.0476C83.7067 33.1952 82.993 34.3438 82.2783 35.4913C82.0353 35.8828 82.6525 36.2408 82.8943 35.8514C83.6091 34.7039 84.3228 33.5553 85.0375 32.4077C85.2816 32.0173 84.6644 31.6583 84.4215 32.0476Z" fill="#6DA8C6"/>
<path d="M80.0203 54.7774C80.08 54.7774 80.1407 54.7774 80.2003 54.7774C80.2491 54.7796 80.2958 54.7687 80.3381 54.7471C80.3826 54.733 80.4206 54.708 80.4531 54.6733C80.4878 54.6408 80.5127 54.6028 80.5268 54.5583C80.5496 54.516 80.5594 54.4705 80.5572 54.4206C80.5529 54.3891 80.5485 54.3577 80.5442 54.3251C80.5268 54.2644 80.4964 54.2123 80.452 54.1679C80.4281 54.1494 80.4043 54.131 80.3793 54.1126C80.324 54.08 80.2633 54.0637 80.1993 54.0637C80.1396 54.0637 80.0789 54.0637 80.0192 54.0637C79.9704 54.0616 79.9238 54.0724 79.8815 54.0941C79.837 54.1082 79.7991 54.1332 79.7665 54.1679C79.7318 54.2004 79.7069 54.2384 79.6928 54.2828C79.67 54.3251 79.6602 54.3718 79.6624 54.4206C79.6667 54.452 79.671 54.4835 79.6754 54.5149C79.6927 54.5757 79.7231 54.6277 79.7676 54.6722C79.7915 54.6907 79.8153 54.7091 79.8403 54.7275C79.8956 54.7612 79.9564 54.7774 80.0203 54.7774Z" fill="#C23F37"/>
<path d="M83.0162 52.5061C83.0759 52.5658 83.1366 52.6265 83.1962 52.6862C83.2288 52.7209 83.2668 52.7458 83.3112 52.7599C83.3535 52.7827 83.3991 52.7925 83.449 52.7903C83.4978 52.7925 83.5444 52.7816 83.5867 52.7599C83.6312 52.7458 83.6691 52.7209 83.7017 52.6862C83.7201 52.6623 83.7386 52.6384 83.7581 52.6146C83.7906 52.5593 83.8069 52.4985 83.8069 52.4345C83.8026 52.4031 83.7982 52.3716 83.7939 52.3402C83.7765 52.2794 83.7461 52.2274 83.7017 52.1829C83.642 52.1232 83.5813 52.0625 83.5217 52.0029C83.4891 51.9681 83.4512 51.9432 83.4067 51.9291C83.3644 51.9063 83.3188 51.8966 83.2689 51.8987C83.2201 51.8966 83.1735 51.9074 83.1312 51.9291C83.0867 51.9432 83.0488 51.9681 83.0162 52.0029C82.9978 52.0267 82.9793 52.0506 82.9609 52.0755C82.9284 52.1308 82.9121 52.1916 82.9121 52.2556C82.9164 52.287 82.9207 52.3185 82.9251 52.3499C82.9414 52.4096 82.9718 52.4616 83.0162 52.5061Z" fill="#C23F37"/>
<path d="M63.0528 54.4246C63.016 54.4246 62.978 54.4246 62.9412 54.4246C62.8924 54.4224 62.8468 54.4333 62.8034 54.455C62.7589 54.4691 62.7209 54.494 62.6884 54.5287C62.6537 54.5613 62.6288 54.5992 62.6147 54.6437C62.5919 54.686 62.5821 54.7315 62.5843 54.7814C62.5886 54.8129 62.593 54.8443 62.5973 54.8769C62.6147 54.9376 62.6451 54.9897 62.6895 55.0341C62.7134 55.0526 62.7372 55.071 62.7622 55.0895C62.8175 55.122 62.8782 55.1383 62.9422 55.1383C62.9791 55.1383 63.0171 55.1383 63.054 55.1383C63.1028 55.1404 63.1494 55.1296 63.1917 55.1079C63.2361 55.0938 63.2741 55.0688 63.3066 55.0341C63.3414 55.0016 63.3663 54.9636 63.3804 54.9192C63.4032 54.8769 63.4129 54.8313 63.4108 54.7814C63.4064 54.75 63.4021 54.7185 63.3977 54.6871C63.3804 54.6263 63.3501 54.5743 63.3056 54.5298C63.2817 54.5114 63.2578 54.4929 63.2329 54.4745C63.1776 54.4409 63.1168 54.4246 63.0528 54.4246C63.016 54.4246 62.978 54.4246 62.9412 54.4246C62.8924 54.4224 62.8468 54.4333 62.8034 54.455C62.7589 54.4691 62.7209 54.494 62.6884 54.5287C62.6537 54.5613 62.6288 54.5992 62.6147 54.6437C62.5919 54.686 62.5821 54.7315 62.5843 54.7814C62.5886 54.8129 62.593 54.8443 62.5973 54.8769C62.6147 54.9376 62.6451 54.9897 62.6895 55.0341C62.7134 55.0526 62.7372 55.071 62.7622 55.0895C62.8175 55.122 62.8782 55.1383 62.9422 55.1383C62.9791 55.1383 63.0171 55.1383 63.054 55.1383C63.1028 55.1404 63.1494 55.1296 63.1917 55.1079C63.2361 55.0938 63.2741 55.0688 63.3066 55.0341C63.3414 55.0016 63.3663 54.9636 63.3804 54.9192C63.4032 54.8769 63.4129 54.8313 63.4108 54.7814C63.4064 54.75 63.4021 54.7185 63.3977 54.6871C63.3804 54.6263 63.3501 54.5743 63.3056 54.5298C63.2817 54.5114 63.2578 54.4929 63.2329 54.4745C63.1776 54.4409 63.1168 54.4246 63.0528 54.4246Z" fill="#C23F37"/>
<path d="M68.2822 53.337C68.2822 53.2773 68.2822 53.2166 68.2822 53.1569C68.2844 53.1081 68.2735 53.0615 68.2518 53.0192C68.2377 52.9747 68.2128 52.9368 68.178 52.9042C68.1455 52.8695 68.1075 52.8446 68.0631 52.8305C68.0208 52.8077 67.9742 52.7979 67.9254 52.8001C67.8939 52.8044 67.8624 52.8088 67.831 52.8131C67.7702 52.8305 67.7182 52.8608 67.6737 52.9053C67.6553 52.9292 67.6368 52.953 67.6184 52.978C67.5859 53.0333 67.5696 53.094 67.5696 53.158C67.5696 53.2188 67.5696 53.2784 67.5696 53.3381C67.5674 53.3869 67.5782 53.4335 67.5999 53.4758C67.614 53.5203 67.639 53.5582 67.6737 53.5908C67.7063 53.6255 67.7442 53.6504 67.7887 53.6645C67.831 53.6873 67.8765 53.6971 67.9264 53.6949C67.9579 53.6906 67.9893 53.6862 68.0219 53.6819C68.0826 53.6645 68.1346 53.6342 68.1791 53.5897C68.1975 53.5658 68.216 53.542 68.2355 53.5181C68.2659 53.4617 68.2822 53.4021 68.2822 53.337Z" fill="#C23F37"/>
<path d="M65.7649 56.9471C65.7649 57.0067 65.7649 57.0675 65.7649 57.1282C65.7628 57.177 65.7736 57.2226 65.7953 57.266C65.8094 57.3104 65.8343 57.3484 65.8691 57.3809C65.9016 57.4156 65.9396 57.4406 65.984 57.4547C66.0263 57.4775 66.073 57.4872 66.1218 57.485C66.1533 57.4807 66.1847 57.4764 66.2161 57.472C66.2769 57.4547 66.329 57.4243 66.3734 57.3798C66.3919 57.356 66.4103 57.3321 66.4287 57.3072C66.4612 57.2519 66.4776 57.1911 66.4776 57.1271C66.4776 57.0664 66.4776 57.0067 66.4776 56.946C66.4797 56.8972 66.4689 56.8506 66.4472 56.8083C66.4331 56.7638 66.4081 56.7258 66.3734 56.6933C66.3409 56.6586 66.3029 56.6336 66.2584 56.6195C66.2161 56.5968 66.1706 56.587 66.1207 56.5892C66.0892 56.5935 66.0578 56.5978 66.0252 56.6022C65.9645 56.6195 65.9125 56.6499 65.868 56.6944C65.8496 56.7182 65.8311 56.7421 65.8116 56.767C65.7812 56.8224 65.7649 56.882 65.7649 56.9471Z" fill="#C23F37"/>
</g>
<defs>
<clipPath id="clip0_1236_2517">
<rect width="151" height="208" fill="white"/>
</clipPath>
</defs>
</svg>
