<svg width="136" height="350" viewBox="0 0 136 350" fill="none" xmlns="http://www.w3.org/2000/svg">
<path d="M56.3427 240.689C57.1427 236.129 62.9057 259.151 62.0027 301.947C61.9497 304.48 62.6377 307.027 63.7317 309.313C64.4537 310.822 65.4947 312.171 66.1237 313.721C66.7527 315.271 66.8977 317.179 65.8837 318.51C64.0527 320.914 60.3317 319.802 57.3097 319.832C52.0667 319.884 47.0007 324.115 42.0387 322.421C42.5787 318.864 46.1987 316.632 47.6917 313.359C48.8997 310.712 48.6047 307.652 48.2337 304.766C47.2597 297.174 36.1037 227.954 34.4307 220.486L56.3427 240.689Z" fill="#CB7748"/>
<path d="M46.6793 313.599C47.8973 317.867 50.0963 319.083 54.4703 319.835C57.9733 320.437 63.9353 318.58 67.3513 317.601C67.9253 319.225 66.6923 325.376 66.6923 325.376C66.6923 325.376 58.0793 327.36 57.0663 326.997C55.9533 326.598 53.7833 323.639 53.3313 324.183C50.1903 327.969 45.0613 329.41 40.1963 330.14C34.8423 330.943 29.3963 331.133 23.9993 330.705C23.4673 330.663 22.9803 330.345 22.7723 329.853C22.4663 329.128 22.9853 328.615 23.4643 328.203C26.3633 325.708 29.8353 324.104 33.4423 322.742C38.5333 320.821 43.0633 317.663 46.6793 313.599Z" fill="#F59F18"/>
<path d="M70.6113 229.944C73.1313 241.88 98.1023 302.576 104.726 331.572C108.58 331.844 112.494 331.218 116.071 329.757C116.697 329.501 117.369 329.166 117.625 328.54C117.826 328.049 117.723 327.492 117.611 326.974C114.297 311.588 101.332 242.589 86.3983 221.981L70.6113 229.944Z" fill="#CB7748"/>
<path d="M102.393 326.863C106.651 323.865 111.996 322.448 117.179 322.942C117.811 325.594 118.443 328.245 119.075 330.897C119.608 333.134 120.145 335.419 119.943 337.71C119.625 341.314 117.514 344.514 115.116 347.223C114.314 348.129 113.41 349.038 112.241 349.347C110.689 349.757 109.067 349.007 107.755 348.08C105.846 346.732 103.247 341.446 103.358 339.111C103.776 330.381 102.393 326.863 102.393 326.863Z" fill="#F59F18"/>
<path d="M26.9231 328.937C32.8241 328.816 38.7141 328.118 44.4801 326.852C46.0951 326.497 47.6991 326.097 49.2921 325.655C49.6991 325.542 49.5261 324.907 49.1171 325.021C43.4851 326.586 37.7051 327.603 31.8761 328.043C30.2281 328.167 28.5761 328.245 26.9231 328.279C26.5001 328.288 26.4991 328.946 26.9231 328.937Z" fill="#AE660A"/>
<path d="M57.8316 325.751C60.5536 325.297 63.2756 324.842 65.9986 324.388C66.4156 324.318 66.2386 323.684 65.8236 323.754C63.1016 324.208 60.3796 324.663 57.6566 325.117C57.2406 325.186 57.4166 325.82 57.8316 325.751Z" fill="#AE660A"/>
<path d="M104.988 340.129C106.059 342.319 107.306 344.68 109.756 345.538C110.85 345.921 112.055 345.893 113.084 345.338C114.113 344.784 114.847 343.828 115.53 342.907C116.523 341.567 117.512 340.223 118.503 338.881C118.755 338.54 118.184 338.212 117.935 338.549C117.12 339.653 116.304 340.758 115.489 341.862C114.824 342.763 114.179 343.746 113.278 344.433C111.376 345.882 108.984 344.853 107.589 343.217C106.725 342.204 106.138 340.985 105.557 339.797C105.37 339.416 104.803 339.749 104.988 340.129Z" fill="#AE660A"/>
<path d="M55.69 305.372C54.328 306.858 54.358 309.329 55.771 310.772C56.068 311.075 56.533 310.61 56.236 310.307C55.079 309.126 55.035 307.059 56.155 305.837C56.441 305.526 55.976 305.06 55.69 305.372Z" fill="#89563D"/>
<path d="M111.552 312.263C112.505 312.685 113.191 313.617 113.276 314.629C113.291 314.806 113.417 314.958 113.605 314.958C113.772 314.958 113.949 314.807 113.934 314.629C113.829 313.377 113.043 312.208 111.884 311.695C111.722 311.623 111.531 311.648 111.434 311.813C111.352 311.952 111.389 312.19 111.552 312.263Z" fill="#89563D"/>
<path d="M41.9238 128.366C41.0848 134.561 34.3018 142.664 31.4148 148.209C28.0888 154.598 25.6518 161.448 24.1958 168.502C22.4938 176.747 22.1318 185.216 20.5878 193.492C18.7398 203.399 15.2228 223.317 11.7208 232.768C9.70678 238.204 7.67877 243.67 4.76777 248.683C4.43977 249.249 4.08679 249.869 4.18879 250.515C4.28579 251.129 4.76777 251.6 5.22377 252.023C10.0808 256.526 15.4548 261.268 22.0518 261.852C28.1038 262.388 33.9318 259.27 40.0058 259.147C46.7848 259.01 53.0128 262.564 59.5228 264.46C64.7158 265.972 70.2108 266.434 75.5828 265.809C89.0648 264.242 101.126 256.043 114.631 254.687C122.023 253.945 130.457 254.981 135.929 249.957C131.323 243.413 126.726 232.741 124.59 225.029C111.806 178.85 91.4878 129.983 85.9558 128.942C84.5688 128.681 82.2558 127.458 80.8448 127.489C73.1968 127.657 65.6568 125.218 58.0128 125.515C52.8598 125.715 47.8458 127.152 42.8908 128.579L41.9238 128.366Z" fill="#C23F37"/>
<mask id="mask0_943_1776" style="mask-type:luminance" maskUnits="userSpaceOnUse" x="4" y="125" width="132" height="142">
<path d="M41.9238 128.366C41.0848 134.561 34.3018 142.664 31.4148 148.209C28.0888 154.598 25.6518 161.448 24.1958 168.502C22.4938 176.747 22.1318 185.216 20.5878 193.492C18.7398 203.399 15.2228 223.317 11.7208 232.768C9.70678 238.204 7.67877 243.67 4.76777 248.683C4.43977 249.249 4.08679 249.869 4.18879 250.515C4.28579 251.129 4.76777 251.6 5.22377 252.023C10.0808 256.526 15.4548 261.268 22.0518 261.852C28.1038 262.388 33.9318 259.27 40.0058 259.147C46.7848 259.01 53.0128 262.564 59.5228 264.46C64.7158 265.972 70.2108 266.434 75.5828 265.809C89.0648 264.242 101.126 256.043 114.631 254.687C122.023 253.945 130.457 254.981 135.929 249.957C131.323 243.413 126.726 232.741 124.59 225.029C111.806 178.85 91.4878 129.983 85.9558 128.942C84.5688 128.681 82.2558 127.458 80.8448 127.489C73.1968 127.657 65.6568 125.218 58.0128 125.515C52.8598 125.715 47.8458 127.152 42.8908 128.579L41.9238 128.366Z" fill="white"/>
</mask>
<g mask="url(#mask0_943_1776)">
<path d="M25.782 184.745C36.2467 184.745 44.73 178.732 44.73 171.315C44.73 163.898 36.2467 157.885 25.782 157.885C15.3173 157.885 6.83398 163.898 6.83398 171.315C6.83398 178.732 15.3173 184.745 25.782 184.745Z" fill="#D96161"/>
</g>
<mask id="mask1_943_1776" style="mask-type:luminance" maskUnits="userSpaceOnUse" x="4" y="125" width="132" height="142">
<path d="M41.9238 128.366C41.0848 134.561 34.3018 142.664 31.4148 148.209C28.0888 154.598 25.6518 161.448 24.1958 168.502C22.4938 176.747 22.1318 185.216 20.5878 193.492C18.7398 203.399 15.2228 223.317 11.7208 232.768C9.70678 238.204 7.67877 243.67 4.76777 248.683C4.43977 249.249 4.08679 249.869 4.18879 250.515C4.28579 251.129 4.76777 251.6 5.22377 252.023C10.0808 256.526 15.4548 261.268 22.0518 261.852C28.1038 262.388 33.9318 259.27 40.0058 259.147C46.7848 259.01 53.0128 262.564 59.5228 264.46C64.7158 265.972 70.2108 266.434 75.5828 265.809C89.0648 264.242 101.126 256.043 114.631 254.687C122.023 253.945 130.457 254.981 135.929 249.957C131.323 243.413 126.726 232.741 124.59 225.029C111.806 178.85 91.4878 129.983 85.9558 128.942C84.5688 128.681 82.2558 127.458 80.8448 127.489C73.1968 127.657 65.6568 125.218 58.0128 125.515C52.8598 125.715 47.8458 127.152 42.8908 128.579L41.9238 128.366Z" fill="white"/>
</mask>
<g mask="url(#mask1_943_1776)">
<path d="M70.5486 168.297C81.0133 168.297 89.4966 162.284 89.4966 154.867C89.4966 147.449 81.0133 141.437 70.5486 141.437C60.0839 141.437 51.6006 147.449 51.6006 154.867C51.6006 162.284 60.0839 168.297 70.5486 168.297Z" fill="#D96161"/>
</g>
<mask id="mask2_943_1776" style="mask-type:luminance" maskUnits="userSpaceOnUse" x="4" y="125" width="132" height="142">
<path d="M41.9238 128.366C41.0848 134.561 34.3018 142.664 31.4148 148.209C28.0888 154.598 25.6518 161.448 24.1958 168.502C22.4938 176.747 22.1318 185.216 20.5878 193.492C18.7398 203.399 15.2228 223.317 11.7208 232.768C9.70678 238.204 7.67877 243.67 4.76777 248.683C4.43977 249.249 4.08679 249.869 4.18879 250.515C4.28579 251.129 4.76777 251.6 5.22377 252.023C10.0808 256.526 15.4548 261.268 22.0518 261.852C28.1038 262.388 33.9318 259.27 40.0058 259.147C46.7848 259.01 53.0128 262.564 59.5228 264.46C64.7158 265.972 70.2108 266.434 75.5828 265.809C89.0648 264.242 101.126 256.043 114.631 254.687C122.023 253.945 130.457 254.981 135.929 249.957C131.323 243.413 126.726 232.741 124.59 225.029C111.806 178.85 91.4878 129.983 85.9558 128.942C84.5688 128.681 82.2558 127.458 80.8448 127.489C73.1968 127.657 65.6568 125.218 58.0128 125.515C52.8598 125.715 47.8458 127.152 42.8908 128.579L41.9238 128.366Z" fill="white"/>
</mask>
<g mask="url(#mask2_943_1776)">
<path d="M71.3816 213.896C81.8463 213.896 90.3296 207.883 90.3296 200.466C90.3296 193.049 81.8463 187.036 71.3816 187.036C60.9169 187.036 52.4336 193.049 52.4336 200.466C52.4336 207.883 60.9169 213.896 71.3816 213.896Z" fill="#D96161"/>
</g>
<mask id="mask3_943_1776" style="mask-type:luminance" maskUnits="userSpaceOnUse" x="4" y="125" width="132" height="142">
<path d="M41.9238 128.366C41.0848 134.561 34.3018 142.664 31.4148 148.209C28.0888 154.598 25.6518 161.448 24.1958 168.502C22.4938 176.747 22.1318 185.216 20.5878 193.492C18.7398 203.399 15.2228 223.317 11.7208 232.768C9.70678 238.204 7.67877 243.67 4.76777 248.683C4.43977 249.249 4.08679 249.869 4.18879 250.515C4.28579 251.129 4.76777 251.6 5.22377 252.023C10.0808 256.526 15.4548 261.268 22.0518 261.852C28.1038 262.388 33.9318 259.27 40.0058 259.147C46.7848 259.01 53.0128 262.564 59.5228 264.46C64.7158 265.972 70.2108 266.434 75.5828 265.809C89.0648 264.242 101.126 256.043 114.631 254.687C122.023 253.945 130.457 254.981 135.929 249.957C131.323 243.413 126.726 232.741 124.59 225.029C111.806 178.85 91.4878 129.983 85.9558 128.942C84.5688 128.681 82.2558 127.458 80.8448 127.489C73.1968 127.657 65.6568 125.218 58.0128 125.515C52.8598 125.715 47.8458 127.152 42.8908 128.579L41.9238 128.366Z" fill="white"/>
</mask>
<g mask="url(#mask3_943_1776)">
<path d="M102.823 242.214C113.288 242.214 121.771 236.201 121.771 228.784C121.771 221.366 113.288 215.354 102.823 215.354C92.3583 215.354 83.875 221.366 83.875 228.784C83.875 236.201 92.3583 242.214 102.823 242.214Z" fill="#D96161"/>
</g>
<mask id="mask4_943_1776" style="mask-type:luminance" maskUnits="userSpaceOnUse" x="4" y="125" width="132" height="142">
<path d="M41.9238 128.366C41.0848 134.561 34.3018 142.664 31.4148 148.209C28.0888 154.598 25.6518 161.448 24.1958 168.502C22.4938 176.747 22.1318 185.216 20.5878 193.492C18.7398 203.399 15.2228 223.317 11.7208 232.768C9.70678 238.204 7.67877 243.67 4.76777 248.683C4.43977 249.249 4.08679 249.869 4.18879 250.515C4.28579 251.129 4.76777 251.6 5.22377 252.023C10.0808 256.526 15.4548 261.268 22.0518 261.852C28.1038 262.388 33.9318 259.27 40.0058 259.147C46.7848 259.01 53.0128 262.564 59.5228 264.46C64.7158 265.972 70.2108 266.434 75.5828 265.809C89.0648 264.242 101.126 256.043 114.631 254.687C122.023 253.945 130.457 254.981 135.929 249.957C131.323 243.413 126.726 232.741 124.59 225.029C111.806 178.85 91.4878 129.983 85.9558 128.942C84.5688 128.681 82.2558 127.458 80.8448 127.489C73.1968 127.657 65.6568 125.218 58.0128 125.515C52.8598 125.715 47.8458 127.152 42.8908 128.579L41.9238 128.366Z" fill="white"/>
</mask>
<g mask="url(#mask4_943_1776)">
<path d="M44.9392 256.164C55.4039 256.164 63.8872 250.151 63.8872 242.734C63.8872 235.317 55.4039 229.304 44.9392 229.304C34.4745 229.304 25.9912 235.317 25.9912 242.734C25.9912 250.151 34.4745 256.164 44.9392 256.164Z" fill="#D96161"/>
</g>
<mask id="mask5_943_1776" style="mask-type:luminance" maskUnits="userSpaceOnUse" x="4" y="125" width="132" height="142">
<path d="M41.9238 128.366C41.0848 134.561 34.3018 142.664 31.4148 148.209C28.0888 154.598 25.6518 161.448 24.1958 168.502C22.4938 176.747 22.1318 185.216 20.5878 193.492C18.7398 203.399 15.2228 223.317 11.7208 232.768C9.70678 238.204 7.67877 243.67 4.76777 248.683C4.43977 249.249 4.08679 249.869 4.18879 250.515C4.28579 251.129 4.76777 251.6 5.22377 252.023C10.0808 256.526 15.4548 261.268 22.0518 261.852C28.1038 262.388 33.9318 259.27 40.0058 259.147C46.7848 259.01 53.0128 262.564 59.5228 264.46C64.7158 265.972 70.2108 266.434 75.5828 265.809C89.0648 264.242 101.126 256.043 114.631 254.687C122.023 253.945 130.457 254.981 135.929 249.957C131.323 243.413 126.726 232.741 124.59 225.029C111.806 178.85 91.4878 129.983 85.9558 128.942C84.5688 128.681 82.2558 127.458 80.8448 127.489C73.1968 127.657 65.6568 125.218 58.0128 125.515C52.8598 125.715 47.8458 127.152 42.8908 128.579L41.9238 128.366Z" fill="white"/>
</mask>
<g mask="url(#mask5_943_1776)">
<path d="M14.3298 224.307C24.7945 224.307 33.2778 218.294 33.2778 210.877C33.2778 203.46 24.7945 197.447 14.3298 197.447C3.86514 197.447 -4.61816 203.46 -4.61816 210.877C-4.61816 218.294 3.86514 224.307 14.3298 224.307Z" fill="#D96161"/>
</g>
<mask id="mask6_943_1776" style="mask-type:luminance" maskUnits="userSpaceOnUse" x="4" y="125" width="132" height="142">
<path d="M41.9238 128.366C41.0848 134.561 34.3018 142.664 31.4148 148.209C28.0888 154.598 25.6518 161.448 24.1958 168.502C22.4938 176.747 22.1318 185.216 20.5878 193.492C18.7398 203.399 15.2228 223.317 11.7208 232.768C9.70678 238.204 7.67877 243.67 4.76777 248.683C4.43977 249.249 4.08679 249.869 4.18879 250.515C4.28579 251.129 4.76777 251.6 5.22377 252.023C10.0808 256.526 15.4548 261.268 22.0518 261.852C28.1038 262.388 33.9318 259.27 40.0058 259.147C46.7848 259.01 53.0128 262.564 59.5228 264.46C64.7158 265.972 70.2108 266.434 75.5828 265.809C89.0648 264.242 101.126 256.043 114.631 254.687C122.023 253.945 130.457 254.981 135.929 249.957C131.323 243.413 126.726 232.741 124.59 225.029C111.806 178.85 91.4878 129.983 85.9558 128.942C84.5688 128.681 82.2558 127.458 80.8448 127.489C73.1968 127.657 65.6568 125.218 58.0128 125.515C52.8598 125.715 47.8458 127.152 42.8908 128.579L41.9238 128.366Z" fill="white"/>
</mask>
<g mask="url(#mask6_943_1776)">
<path d="M115.733 189.118C126.198 189.118 134.681 183.105 134.681 175.688C134.681 168.271 126.198 162.258 115.733 162.258C105.268 162.258 96.7852 168.271 96.7852 175.688C96.7852 183.105 105.268 189.118 115.733 189.118Z" fill="#D96161"/>
</g>
<mask id="mask7_943_1776" style="mask-type:luminance" maskUnits="userSpaceOnUse" x="4" y="125" width="132" height="142">
<path d="M41.9238 128.366C41.0848 134.561 34.3018 142.664 31.4148 148.209C28.0888 154.598 25.6518 161.448 24.1958 168.502C22.4938 176.747 22.1318 185.216 20.5878 193.492C18.7398 203.399 15.2228 223.317 11.7208 232.768C9.70678 238.204 7.67877 243.67 4.76777 248.683C4.43977 249.249 4.08679 249.869 4.18879 250.515C4.28579 251.129 4.76777 251.6 5.22377 252.023C10.0808 256.526 15.4548 261.268 22.0518 261.852C28.1038 262.388 33.9318 259.27 40.0058 259.147C46.7848 259.01 53.0128 262.564 59.5228 264.46C64.7158 265.972 70.2108 266.434 75.5828 265.809C89.0648 264.242 101.126 256.043 114.631 254.687C122.023 253.945 130.457 254.981 135.929 249.957C131.323 243.413 126.726 232.741 124.59 225.029C111.806 178.85 91.4878 129.983 85.9558 128.942C84.5688 128.681 82.2558 127.458 80.8448 127.489C73.1968 127.657 65.6568 125.218 58.0128 125.515C52.8598 125.715 47.8458 127.152 42.8908 128.579L41.9238 128.366Z" fill="white"/>
</mask>
<g mask="url(#mask7_943_1776)">
<path d="M48.0613 137.063C58.526 137.063 67.0093 131.05 67.0093 123.633C67.0093 116.216 58.526 110.203 48.0613 110.203C37.5966 110.203 29.1133 116.216 29.1133 123.633C29.1133 131.05 37.5966 137.063 48.0613 137.063Z" fill="#D96161"/>
</g>
<mask id="mask8_943_1776" style="mask-type:luminance" maskUnits="userSpaceOnUse" x="4" y="125" width="132" height="142">
<path d="M41.9238 128.366C41.0848 134.561 34.3018 142.664 31.4148 148.209C28.0888 154.598 25.6518 161.448 24.1958 168.502C22.4938 176.747 22.1318 185.216 20.5878 193.492C18.7398 203.399 15.2228 223.317 11.7208 232.768C9.70678 238.204 7.67877 243.67 4.76777 248.683C4.43977 249.249 4.08679 249.869 4.18879 250.515C4.28579 251.129 4.76777 251.6 5.22377 252.023C10.0808 256.526 15.4548 261.268 22.0518 261.852C28.1038 262.388 33.9318 259.27 40.0058 259.147C46.7848 259.01 53.0128 262.564 59.5228 264.46C64.7158 265.972 70.2108 266.434 75.5828 265.809C89.0648 264.242 101.126 256.043 114.631 254.687C122.023 253.945 130.457 254.981 135.929 249.957C131.323 243.413 126.726 232.741 124.59 225.029C111.806 178.85 91.4878 129.983 85.9558 128.942C84.5688 128.681 82.2558 127.458 80.8448 127.489C73.1968 127.657 65.6568 125.218 58.0128 125.515C52.8598 125.715 47.8458 127.152 42.8908 128.579L41.9238 128.366Z" fill="white"/>
</mask>
<g mask="url(#mask8_943_1776)">
<path d="M72.6316 283.858C83.0963 283.858 91.5796 277.845 91.5796 270.428C91.5796 263.01 83.0963 256.998 72.6316 256.998C62.1669 256.998 53.6836 263.01 53.6836 270.428C53.6836 277.845 62.1669 283.858 72.6316 283.858Z" fill="#D96161"/>
</g>
<path d="M40.816 40.0765C41.409 41.7955 39.508 43.7565 37.712 43.3495C35.915 42.9425 35.0319 40.5105 36.0729 39.0125C36.3859 39.0255 36.0499 39.5025 35.7369 39.4985C33.9489 39.4785 32.373 37.7685 32.525 36.0145C30.899 35.9015 29.402 34.7275 28.926 33.1915C28.45 31.6565 29.026 29.8595 30.311 28.8715C28.995 27.4435 28.334 25.3635 28.895 23.5155C29.456 21.6675 31.375 20.2255 33.32 20.4545C32.73 18.9565 32.559 17.3015 32.832 15.7175C33.018 14.6395 33.431 13.5565 34.241 12.8085C35.051 12.0605 36.318 11.7265 37.312 12.2145C36.277 10.0135 36.642 7.24053 38.214 5.37253C38.869 4.59453 39.7429 3.95652 40.7499 3.75952C41.7569 3.56252 42.896 3.87153 43.522 4.67153C44.043 3.48753 44.5819 2.27752 45.4819 1.34052C46.3829 0.402525 47.7329 -0.222474 49.0079 0.0745259C50.2829 0.371526 51.263 1.82252 50.748 3.00952C51.784 2.80452 52.927 2.76553 53.827 3.31153C54.727 3.85753 55.1999 5.16053 54.5549 5.98453C55.1119 5.74753 55.841 6.05553 56.049 6.61753C57.346 4.07253 59.1879 1.23852 62.0729 1.03552C62.8269 0.982524 63.6429 1.15453 64.1639 1.69453C64.6849 2.23453 64.775 3.19853 64.214 3.69853C65.514 1.56253 68.999 1.19552 70.729 3.01052C70.485 3.21252 70.24 3.41553 69.996 3.61753C71.058 3.02753 72.535 3.30852 73.298 4.24452C74.061 5.18152 74.017 6.66253 73.202 7.55453C75.488 7.96453 76.798 10.9805 75.52 12.8915C76.044 12.0885 77.16 11.8055 78.103 12.0305C79.046 12.2555 79.8329 12.8935 80.4819 13.6025C80.9699 14.1365 81.422 14.7875 81.379 15.5045C81.335 16.2215 80.5459 16.8985 79.8879 16.5895C80.9309 16.0545 82.315 16.2585 83.153 17.0715C83.991 17.8845 84.2179 19.2435 83.6899 20.2785C85.2759 20.1345 86.8849 21.2335 87.3049 22.7455C87.7249 24.2575 86.907 26.0095 85.468 26.6805C87.419 28.2495 87.06 31.7845 84.833 32.9435C86.124 35.0425 85.053 38.1715 82.735 39.0715C83.029 40.6565 81.439 42.2865 79.819 42.0605C79.676 43.4755 77.7659 44.3715 76.5599 43.5895C75.4499 44.6885 73.787 45.2165 72.233 44.9645C70.68 44.7125 69.277 43.6855 68.584 42.2935C69.025 42.6055 68.5779 43.2775 68.1199 43.5655C65.5149 45.1995 62.07 45.4515 59.248 44.2155C58.896 44.0615 58.5359 43.8815 58.1509 43.8935C57.6739 43.9085 57.264 44.2105 56.872 44.4785C54.964 45.7825 52.152 46.4485 50.451 44.8925C49.683 44.1905 49.199 43.0855 48.188 42.8135C47.732 42.6905 47.246 42.7675 46.775 42.7305C45.403 42.6215 44.214 41.4035 44.157 40.0495C44.061 40.9065 42.657 41.2095 42.205 40.4725L40.816 40.0765Z" fill="black"/>
<path d="M52.2578 66.4426C42.7808 66.6336 33.4928 70.9936 27.6458 77.9936C26.7828 79.0266 25.9808 80.1236 24.9128 80.9706C23.0038 82.4836 20.4238 83.0486 17.9268 83.1476C17.2158 83.1756 16.4778 83.1756 15.8338 83.4576C15.0008 83.8226 14.4678 84.5926 14.0018 85.3366C9.05379 93.2356 9.87278 98.9066 9.96578 108.068C10.0778 119.088 21.1878 120.794 23.7238 120.804C26.8028 120.816 33.9428 112.071 35.7768 110.522C37.3348 115.764 40.8658 129.287 41.7648 130.065C42.5758 130.768 52.4718 135.123 59.7208 134.205C66.9688 133.287 79.9908 131.114 86.9988 129.15C87.6128 128.978 87.9368 124.31 88.5768 124.343C89.3738 124.384 90.1078 124.739 90.8718 124.959C93.9028 125.83 94.7988 125.748 97.2838 123.902C100.998 121.142 101.025 119.628 102.855 115.528C108.107 103.765 106.596 95.2956 104.906 89.5886C102.865 82.6986 101.455 79.8406 97.0508 75.5596C93.9198 72.5166 89.6788 70.7306 85.4828 69.1826C76.1538 65.7426 65.5448 63.1526 56.2858 66.7566L52.2578 66.4426Z" fill="#F59F18"/>
<path d="M68.4832 22.3228L40.7832 22.5058C41.4882 27.5018 40.9152 39.4378 41.6202 44.4338C42.0752 47.6558 42.6502 51.1268 44.9732 53.4048C46.9542 55.3468 52.6842 55.1068 52.6842 55.1068L52.1912 66.6418C50.7252 67.0878 50.0662 68.7888 50.8482 70.1048C54.0212 75.4418 61.1552 87.4158 63.0042 90.3118C66.2992 84.0858 73.4322 68.9458 73.4492 67.6448C73.4662 66.3608 70.5492 65.2278 70.5492 65.2278L70.3792 45.2008C70.3792 45.2008 72.6042 46.0058 73.5592 45.3508C74.5142 44.6958 75.0622 43.5948 75.4262 42.4948C76.0752 40.5308 76.2002 38.1978 74.9422 36.5558C73.6842 34.9138 70.7042 34.6698 69.7142 36.4848C69.3232 31.9708 68.9322 27.4568 68.5412 22.9418L68.4832 22.3228Z" fill="#CB7748"/>
<path d="M94.234 94.1885C93.721 89.7375 92.538 87.2025 92.024 82.7515C91.888 81.5705 91.942 77.2985 92.814 76.5935C95.953 74.0525 99.896 67.9525 98.634 64.1165C98.423 63.4755 98.143 62.8255 98.21 62.1535C98.258 61.6695 98.815 59.3805 95.973 59.0655C97.509 56.4435 100.716 51.3215 101.104 48.4655C101.131 48.2695 101.109 48.0665 101.026 47.8855C100.687 47.1495 99.721 47.3295 99.254 47.8245C96.331 50.9265 92.725 55.8975 91.005 59.4135C90.75 59.9355 89.966 59.7585 89.965 59.1775C89.959 55.7915 90.419 50.2065 90.217 47.5595C90.181 47.0865 90.123 46.5655 89.611 46.3295C89.291 46.1825 88.917 46.2245 88.613 46.4005C87.973 46.7715 87.741 47.4835 87.556 48.1595C86.569 51.7705 86.364 56.2805 86.657 60.0115C84.598 58.8565 84.375 61.8145 82.097 63.3285C80.698 64.2585 79.767 65.7535 79.671 67.4305C79.551 69.5165 79.917 71.5925 80.156 73.6675C80.76 78.9245 80.544 84.2375 80.328 89.5255C80.247 91.5115 80.165 93.4975 80.084 95.4835L83.343 95.9675C86.343 96.4125 89.408 96.0685 92.235 94.9675L94.234 94.1885Z" fill="#CB7748"/>
<path d="M85.6226 73.7927C87.6066 71.8687 87.5046 68.9287 86.9606 66.4307C86.7776 66.5377 86.5936 66.6437 86.4106 66.7507C87.1496 67.5077 88.0746 68.3207 89.2196 68.0497C90.1916 67.8197 90.5576 66.8187 90.4776 65.9127C90.4106 65.1587 90.1086 64.4797 89.7676 63.8137C89.3746 63.0457 88.9286 62.3017 88.4496 61.5847C88.0066 60.9207 87.5326 60.2067 86.9196 59.6847C86.5986 59.4117 86.1316 59.8757 86.4546 60.1497C86.9056 60.5327 87.2636 61.0277 87.6026 61.5077C88.0396 62.1277 88.4416 62.7727 88.8156 63.4317C89.1156 63.9627 89.4196 64.5087 89.6266 65.0837C89.8466 65.6947 90.0166 66.6057 89.5296 67.1387C89.1886 67.5117 88.6236 67.4987 88.1856 67.3217C87.6646 67.1107 87.2616 66.6777 86.8766 66.2847C86.6376 66.0397 86.2596 66.2947 86.3266 66.6047C86.8196 68.8687 86.9646 71.5757 85.1576 73.3267C84.8536 73.6227 85.3186 74.0877 85.6226 73.7927Z" fill="#571F1F"/>
<path d="M95.5372 59.0227C93.5222 59.0857 91.9912 60.6707 91.3082 62.4597C90.9122 63.4977 90.7642 64.6167 90.6962 65.7207C90.6682 66.1767 90.5652 66.7887 91.0142 67.0827C91.4152 67.3457 91.8981 67.1247 92.2321 66.8547C92.7291 66.4537 93.1332 65.8917 93.5582 65.4167C94.0452 64.8727 94.5321 64.3287 95.0201 63.7857C95.3011 63.4717 94.8621 63.0247 94.5551 63.3207C93.0981 64.7227 91.4882 66.3797 91.3292 68.5077C91.2952 68.9667 91.3122 69.4897 91.5692 69.8887C91.8742 70.3607 92.4181 70.4247 92.9131 70.2347C93.8841 69.8607 94.7882 69.2707 95.5792 68.6007C96.4742 67.8417 97.2311 66.9217 97.8141 65.9037C98.0251 65.5357 97.4562 65.2037 97.2462 65.5717C96.3452 67.1447 95.0102 68.4397 93.4052 69.2847C93.1312 69.4287 92.4881 69.8637 92.1951 69.6187C91.9151 69.3847 91.9642 68.8277 91.9882 68.5087C92.0552 67.6287 92.4551 66.8117 92.9481 66.0947C93.5351 65.2407 94.2771 64.5027 95.0211 63.7867C94.8661 63.6317 94.7112 63.4767 94.5562 63.3217C93.8502 64.1097 93.1431 64.8987 92.4371 65.6867C92.1861 65.9667 91.8921 66.4277 91.5051 66.5307C91.3221 66.5797 91.3282 66.4337 91.3292 66.2847C91.3302 66.0487 91.3501 65.8117 91.3661 65.5767C91.4861 63.8367 91.8741 61.9877 93.1841 60.7377C93.8251 60.1267 94.6462 59.7097 95.5402 59.6817C95.9602 59.6667 95.9622 59.0087 95.5372 59.0227Z" fill="#571F1F"/>
<path d="M91.1617 70.4963C89.1887 71.5183 87.7546 73.4983 87.4156 75.6963C87.3886 75.8733 87.4606 76.0484 87.6456 76.1014C87.8016 76.1464 88.0237 76.0463 88.0507 75.8713C88.3667 73.8253 89.6546 72.0174 91.4946 71.0644C91.8696 70.8704 91.5377 70.3023 91.1617 70.4963Z" fill="#571F1F"/>
<path d="M13.5202 85.1783C14.6222 79.7203 15.7232 74.2623 16.8252 68.8043C16.8712 68.5743 16.9162 68.3293 16.8282 68.1123C16.7372 67.8893 16.5241 67.7433 16.3231 67.6093C14.9501 66.6913 13.6371 65.6833 12.3961 64.5943C11.4511 63.7653 10.5092 62.8253 10.1822 61.6113C9.85616 60.3973 10.4002 58.8653 11.6112 58.5303C10.2392 58.0403 10.0082 55.8043 11.2502 55.0433C7.47815 52.9203 3.97115 50.3273 0.83615 47.3423C0.16915 46.7073 -0.425815 45.4703 0.410185 45.0433C0.688185 44.9013 1.01917 44.9103 1.30417 45.0373C4.48217 46.4573 7.50518 48.2253 10.3012 50.2993C11.0982 50.8903 11.9332 51.5313 12.9722 51.4783C13.4792 51.4533 13.9632 51.2133 14.2382 50.7863C14.6552 50.1363 14.3512 49.5183 14.0662 48.9523C12.7772 46.3923 11.6452 43.7533 10.6782 41.0543C10.6502 40.9753 10.6222 40.8943 10.5962 40.8123C10.2332 39.6713 11.7312 38.8883 12.4652 39.8343C14.8352 42.8913 15.7092 47.1453 18.1732 50.2393C19.6332 52.0713 21.5942 53.4243 23.3302 54.9983C25.0652 56.5723 26.6522 58.5223 26.9592 60.8443C27.1072 61.9593 26.9492 63.0893 26.8422 64.2093C26.2402 70.5323 27.2732 76.8843 28.3032 83.1523L22.8762 85.6223C20.8922 86.5253 18.6492 86.6843 16.5582 86.0693L13.5202 85.1783Z" fill="#CB7748"/>
<path d="M12.0536 63.4954C13.2256 63.0654 14.4436 63.4374 15.5736 63.8254C16.4706 64.1334 17.5116 64.6114 18.4736 64.2854C18.9136 64.1364 19.2676 63.8064 19.4026 63.3554C19.5476 62.8684 19.3936 62.3474 19.1526 61.9194C18.6216 60.9774 17.6286 60.2304 16.7036 59.7044C15.6266 59.0914 14.4266 58.7304 13.1916 58.6344C12.7656 58.6014 12.7766 59.2484 13.1916 59.2924C14.3676 59.4164 15.5436 59.5404 16.7196 59.6644C17.4986 59.7464 18.4276 59.8654 19.1136 59.3884C19.8906 58.8474 19.8466 57.7994 19.2856 57.1154C18.6656 56.3614 17.5466 56.0294 16.6416 55.7814C15.4596 55.4574 14.2256 55.3294 13.0036 55.3994C12.5826 55.4234 12.5796 56.0814 13.0036 56.0574C13.9366 56.0044 14.8736 56.0624 15.7896 56.2534C16.6366 56.4294 17.5436 56.6784 18.2896 57.1294C18.6346 57.3374 18.9376 57.6284 19.0326 58.0334C19.1116 58.3684 18.9956 58.6924 18.7006 58.8744C18.1096 59.2394 17.2576 59.0644 16.6116 58.9964C15.4716 58.8764 14.3316 58.7564 13.1916 58.6364C13.1916 58.8554 13.1916 59.0754 13.1916 59.2944C15.0956 59.4434 17.0396 60.3454 18.2816 61.8194C18.5656 62.1564 18.8776 62.6444 18.7876 63.1064C18.7136 63.4874 18.3706 63.6764 18.0136 63.7194C17.1156 63.8274 16.2006 63.3374 15.3726 63.0684C14.2476 62.7024 13.0276 62.4444 11.8796 62.8644C11.4846 63.0054 11.6546 63.6414 12.0536 63.4954Z" fill="#571F1F"/>
<path d="M41.3988 38.9928C41.5288 39.1858 41.4668 39.2158 41.3988 38.9928C39.9148 36.7888 37.9288 35.1098 37.6858 32.4628C37.5168 30.6168 37.4438 28.7378 37.8298 26.9248C38.7648 22.5358 42.3838 19.0248 46.5808 17.4358C50.7778 15.8468 55.4638 15.9768 59.8448 16.9448C61.5918 17.3308 63.3208 17.8498 64.9108 18.6698C68.0958 20.3118 70.5998 23.1238 72.1848 26.3378C73.7698 29.5518 74.3958 32.7038 74.5048 36.2858C72.4228 34.2038 70.3378 35.9188 69.7158 36.4938C69.1888 32.5948 67.1828 28.4068 63.9968 26.0978C60.8108 23.7888 56.7818 22.7378 52.8538 22.9698C51.1218 23.0728 49.3868 23.4208 47.8198 24.1668C44.9098 25.5538 43.1938 27.8678 42.0218 30.8718C40.8518 33.8748 41.2468 35.7728 41.3988 38.9928Z" fill="#F59F18"/>
<path d="M24.6068 57.3604C23.7288 56.3914 22.5469 55.7054 21.2699 55.4234C20.0579 55.1554 18.5809 55.1584 17.6159 56.0494C17.3039 56.3374 17.7698 56.8014 18.0808 56.5144C18.8998 55.7584 20.2609 55.8464 21.2649 56.0974C22.3759 56.3754 23.3739 56.9774 24.1419 57.8254C24.4259 58.1394 24.8898 57.6734 24.6068 57.3604Z" fill="#571F1F"/>
<path d="M17.9097 59.8146C18.3937 59.9636 18.8787 60.1136 19.3627 60.2626C19.6047 60.3376 19.8467 60.4115 20.0887 60.4865C20.2887 60.5485 20.5227 60.5885 20.7077 60.6905C20.9057 60.7995 20.7847 61.0095 20.7307 61.1815C20.6597 61.4095 20.5927 61.6385 20.5337 61.8695C20.4177 62.3265 20.3317 62.7916 20.2867 63.2606C20.1287 64.8996 20.6177 66.6315 21.9947 67.6325C22.3377 67.8815 22.6667 67.3116 22.3267 67.0646C20.8557 65.9946 20.7337 63.9716 21.0967 62.3426C21.1977 61.8926 21.3857 61.4535 21.4627 61.0005C21.5317 60.5945 21.3397 60.2625 20.9707 60.0895C20.5547 59.8945 20.0777 59.7946 19.6397 59.6596C19.1207 59.4996 18.6017 59.3395 18.0827 59.1795C17.6787 59.0555 17.5057 59.6906 17.9097 59.8146Z" fill="#571F1F"/>
<path d="M18.0014 69.4246C19.7194 70.0856 21.5844 70.3276 23.4134 70.1256C23.8294 70.0796 23.8344 69.4216 23.4134 69.4676C21.6334 69.6636 19.8474 69.4326 18.1764 68.7896C17.7814 68.6386 17.6104 69.2736 18.0014 69.4246Z" fill="#571F1F"/>
<path d="M84.2356 79.0754C85.7606 79.1244 87.2866 79.0934 88.8076 78.9794C89.2276 78.9484 89.2306 78.2904 88.8076 78.3214C87.2866 78.4344 85.7606 78.4664 84.2356 78.4174C83.8116 78.4044 83.8126 79.0624 84.2356 79.0754Z" fill="#571F1F"/>
<path d="M71.0829 41.5695C71.9239 40.5045 72.8749 39.5305 73.9199 38.6635C74.0569 38.5495 74.0369 38.3155 73.9199 38.1985C73.7849 38.0635 73.5919 38.0845 73.4549 38.1985C72.4099 39.0655 71.4589 40.0395 70.6179 41.1045C70.5079 41.2435 70.4819 41.4335 70.6179 41.5695C70.7319 41.6845 70.9719 41.7095 71.0829 41.5695Z" fill="#571F1F"/>
<path d="M71.7255 40.1098C71.9925 40.6458 72.0586 41.2948 71.9126 41.8798C71.8706 42.0468 71.9665 42.2448 72.1425 42.2848C72.3125 42.3238 72.5025 42.2338 72.5475 42.0548C72.7385 41.2878 72.6455 40.4838 72.2935 39.7778C72.2165 39.6238 71.9855 39.5678 71.8435 39.6598C71.6855 39.7618 71.6435 39.9448 71.7255 40.1098Z" fill="#571F1F"/>
<path opacity="0.43" d="M52.6843 55.1064L62.9503 54.9204L52.6562 57.7004L52.6843 55.1064Z" fill="#571F1F"/>
<path d="M54.0284 35.5896C53.8194 37.2276 52.9784 38.7616 51.7494 39.8566C51.4484 40.1246 51.1214 40.3386 50.7904 40.5646C50.4364 40.8066 50.2664 41.1586 50.5094 41.5526C50.9494 42.2656 51.6154 42.9486 52.3994 43.2606C52.7924 43.4166 52.9634 42.7806 52.5744 42.6266C52.1954 42.4766 51.8904 42.1996 51.6204 41.9016C51.4824 41.7486 51.3534 41.5876 51.2274 41.4236C51.1834 41.3656 51.1314 41.2706 51.0764 41.2216C51.0474 41.1466 51.0324 41.1436 51.0324 41.2126C51.0574 41.1806 51.0874 41.1546 51.1214 41.1336C51.4054 40.9166 51.7144 40.7396 51.9934 40.5116C52.2934 40.2656 52.5734 39.9946 52.8294 39.7036C53.8484 38.5456 54.4904 37.1186 54.6854 35.5896C54.7394 35.1706 54.0814 35.1746 54.0284 35.5896Z" fill="#571F1F"/>
<path d="M52.2107 45.2614C53.7167 45.8034 55.5086 45.1513 56.3466 43.7983C56.5696 43.4373 56.0017 43.1063 55.7787 43.4663C55.0867 44.5843 53.6136 45.0694 52.3856 44.6274C52.2186 44.5674 52.0257 44.6953 51.9807 44.8573C51.9307 45.0393 52.0437 45.2014 52.2107 45.2614Z" fill="#571F1F"/>
<path d="M63.2618 38.2097C63.2618 39.1017 62.7668 39.8247 62.1568 39.8247C61.5468 39.8247 61.0518 39.1017 61.0518 38.2097C61.0518 37.3177 61.5468 36.5947 62.1568 36.5947C62.7668 36.5947 63.2618 37.3177 63.2618 38.2097Z" fill="black"/>
<path d="M48.1265 39.7237C48.7368 39.7237 49.2315 39.0006 49.2315 38.1087C49.2315 37.2167 48.7368 36.4937 48.1265 36.4937C47.5163 36.4937 47.0215 37.2167 47.0215 38.1087C47.0215 39.0006 47.5163 39.7237 48.1265 39.7237Z" fill="black"/>
<path d="M59.9083 31.1395C59.1603 31.4945 58.9944 32.5125 59.6214 33.0525C59.6264 33.0565 59.6303 33.0605 59.6353 33.0635C60.0883 33.4445 60.6853 33.5965 61.2653 33.7135C62.4523 33.9545 63.6584 34.0965 64.8684 34.1385C65.0494 34.1445 65.2544 34.1395 65.3784 34.0065C65.4884 33.8885 65.4953 33.7075 65.4663 33.5485C65.3073 32.6675 64.3604 32.1995 63.5304 31.8655L61.2113 30.9345C60.9093 30.8135 60.5713 30.8235 60.2783 30.9635L59.9083 31.1395Z" fill="black"/>
<path d="M50.2327 30.5146C50.9807 30.8696 51.1467 31.8876 50.5197 32.4276C50.5157 32.4316 50.5107 32.4356 50.5067 32.4386C50.0537 32.8196 49.4567 32.9716 48.8767 33.0886C47.6907 33.3296 46.4837 33.4716 45.2737 33.5136C45.0917 33.5196 44.8867 33.5146 44.7637 33.3816C44.6537 33.2636 44.6467 33.0826 44.6757 32.9236C44.8347 32.0426 45.7817 31.5746 46.6117 31.2406L48.9307 30.3096C49.2327 30.1886 49.5707 30.1986 49.8637 30.3376L50.2327 30.5146Z" fill="black"/>
<path d="M74.7072 11.1416C74.8092 9.94759 75.9442 9.00759 77.1082 8.94359C78.4432 8.86959 79.6712 9.70559 80.3182 10.8356C80.9842 11.9986 81.1522 13.4946 80.8442 14.7926C80.5902 15.8616 79.9212 17.0466 78.7392 17.2506C78.1642 17.3496 77.6392 17.1036 77.4922 16.5216C77.3782 16.0736 77.4932 15.5516 77.7742 15.1856C78.5492 14.1756 80.2202 14.2536 81.3352 14.4386C83.5942 14.8146 86.0072 16.2126 86.4272 18.6456C86.6922 20.1816 86.0722 21.7926 85.0992 22.9666C84.0852 24.1916 82.7272 25.0526 81.3182 25.7566C80.9392 25.9456 81.2722 26.5136 81.6502 26.3246C83.1162 25.5916 84.5452 24.6776 85.5932 23.3966C86.6012 22.1656 87.2622 20.5656 87.1242 18.9526C86.8712 16.0036 84.0752 14.1816 81.3582 13.7796C80.0022 13.5796 78.2012 13.5776 77.2692 14.7706C76.5172 15.7336 76.6282 17.4706 77.9572 17.8586C79.4542 18.2956 80.7432 16.9476 81.2482 15.6956C81.8072 14.3096 81.7742 12.6156 81.2302 11.2306C80.6642 9.78659 79.4402 8.57759 77.8652 8.32959C76.4452 8.10559 74.9242 8.79959 74.3102 10.1396C74.1632 10.4616 74.0792 10.7876 74.0492 11.1406C74.0142 11.5636 74.6722 11.5616 74.7072 11.1416Z" fill="black"/>
<path d="M38.8275 8.41157C37.3575 7.80357 35.6615 7.68657 34.1405 8.18557C32.7875 8.62957 31.6175 9.56456 30.9055 10.8016C30.2115 12.0076 30.0125 13.4486 30.4245 14.7856C30.8285 16.0976 31.7895 17.2976 33.0985 17.7856C33.7915 18.0436 34.6275 17.9676 35.0835 17.3276C35.5045 16.7376 35.2455 15.9986 34.6785 15.6186C34.0085 15.1696 33.1144 15.3776 32.4094 15.6226C31.7774 15.8416 31.1775 16.1506 30.6345 16.5416C28.3895 18.1546 27.0985 20.9596 27.6045 23.7106C27.8665 25.1316 28.6115 26.4806 29.7705 27.3596C30.9055 28.2206 32.4405 28.5706 33.8305 28.2336C34.1785 28.1496 34.5135 28.0146 34.8305 27.8466C35.2045 27.6476 34.8725 27.0796 34.4985 27.2786C33.4195 27.8506 32.0975 27.8206 30.9945 27.3246C29.8605 26.8146 29.0125 25.8236 28.5625 24.6756C27.6825 22.4296 28.2805 19.8816 29.8685 18.1066C30.6325 17.2526 31.6035 16.5756 32.6965 16.2186C33.2505 16.0376 34.1125 15.7946 34.5315 16.3626C34.6765 16.5586 34.6725 16.7966 34.5205 16.9856C34.3215 17.2346 33.9925 17.3026 33.6895 17.2626C32.5345 17.1096 31.5805 15.9666 31.1755 14.9476C30.7405 13.8546 30.7655 12.6336 31.2525 11.5616C31.8035 10.3486 32.8465 9.36457 34.0955 8.89757C35.5725 8.34557 37.2055 8.44957 38.6515 9.04757C39.0435 9.20757 39.2135 8.57157 38.8275 8.41157Z" fill="black"/>
<path d="M47.8711 67.4896C45.7921 69.7486 44.0871 72.7426 44.3931 75.9166C44.5271 77.3066 45.0071 78.6686 45.8631 79.7806C46.2771 80.3176 46.7701 80.7856 47.3391 81.1566C47.9321 81.5436 48.6021 81.7976 49.2671 82.0286C50.5421 82.4716 51.9981 82.8666 52.7021 84.1326C53.3631 85.3186 53.0781 86.7756 52.8101 88.0306C52.5111 89.4306 52.1001 90.8746 52.2451 92.3196C52.3831 93.7046 53.0961 94.9896 54.1861 95.8556C55.3141 96.7506 56.7191 97.1176 58.1391 96.8856C59.5391 96.6566 60.8061 95.8436 61.6031 94.6736C61.9351 94.1866 62.2631 93.5156 62.8201 93.2486C63.5111 92.9176 64.1161 93.7626 64.5561 94.1716C65.6871 95.2226 66.9941 96.2126 68.5771 96.3806C69.9731 96.5286 71.3361 95.8906 72.3001 94.9076C73.3501 93.8356 73.8961 92.4176 73.9591 90.9286C74.0311 89.2356 73.5091 87.5566 72.7401 86.0646C72.3621 85.3306 71.8921 84.5316 72.4621 83.7666C72.6951 83.4536 73.0081 83.1966 73.2951 82.9356C73.5791 82.6786 73.8661 82.4246 74.1521 82.1706C76.3501 80.2216 78.6351 78.0746 79.0461 75.0106C79.3911 72.4346 78.4731 69.7006 76.6241 67.8686C76.1691 67.4176 75.6561 67.0256 75.1031 66.7026C74.7361 66.4886 74.4051 67.0576 74.7711 67.2706C76.9361 68.5326 78.2881 70.9486 78.4451 73.4276C78.5251 74.6886 78.3001 75.9556 77.7331 77.0896C77.0651 78.4246 76.0461 79.5306 74.9681 80.5446C74.4191 81.0606 73.8521 81.5566 73.2891 82.0566C72.7461 82.5396 72.0771 83.0286 71.7351 83.6856C71.3451 84.4336 71.5731 85.2096 71.9261 85.9216C72.2951 86.6666 72.6641 87.3906 72.9111 88.1886C73.3751 89.6836 73.5091 91.3706 72.8951 92.8456C72.3941 94.0486 71.3871 95.1166 70.1391 95.5436C68.7171 96.0306 67.3261 95.5106 66.1601 94.6636C65.5401 94.2126 64.9981 93.6746 64.4411 93.1516C63.9381 92.6796 63.3031 92.3346 62.6131 92.6216C62.0381 92.8606 61.6571 93.4086 61.3211 93.9076C60.9481 94.4616 60.5781 94.9836 60.0321 95.3846C58.9491 96.1796 57.5171 96.5136 56.2071 96.1656C54.9131 95.8226 53.8371 94.8616 53.2721 93.6576C52.6811 92.3976 52.8581 90.9836 53.1261 89.6656C53.3981 88.3316 53.8191 86.9716 53.7521 85.5966C53.6871 84.2646 53.0441 83.1106 51.9021 82.4066C50.7401 81.6896 49.3521 81.4866 48.1461 80.8636C46.9621 80.2526 46.0801 79.1946 45.5681 77.9746C44.3971 75.1816 45.2681 72.1426 46.9061 69.7366C47.3361 69.1056 47.8181 68.5156 48.3351 67.9536C48.6231 67.6436 48.1581 67.1766 47.8711 67.4896Z" fill="#AE660A"/>
<path d="M61.7443 132.13C61.5873 127.257 61.5754 122.379 61.7124 117.506C61.8494 112.632 62.1344 107.763 62.5664 102.907C62.8094 100.173 63.1004 97.4435 63.4364 94.7195C63.4884 94.3005 62.8293 94.3045 62.7783 94.7195C62.1813 99.5585 61.7303 104.415 61.4263 109.281C61.1233 114.147 60.9674 119.022 60.9594 123.898C60.9544 126.643 60.9983 129.388 61.0863 132.131C61.1003 132.552 61.7583 132.554 61.7443 132.13Z" fill="#AE660A"/>
<path d="M79.8331 95.1264C79.7851 96.4024 78.8061 97.3974 78.0741 98.3554C77.2801 99.3934 76.6551 100.624 76.7951 101.971C76.9181 103.149 77.6471 104.135 78.8131 104.446C79.8731 104.728 80.9271 104.328 81.4201 103.329C81.6721 102.819 81.7991 102.265 81.9901 101.732C82.1451 101.3 82.3551 100.878 82.8391 100.773C82.7151 100.723 82.5911 100.672 82.4671 100.622C83.2361 101.635 83.061 103.047 83.797 104.082C84.428 104.969 85.5691 105.209 86.5611 104.811C87.0491 104.615 87.4891 104.28 87.7511 103.817C88.1011 103.197 88.0121 102.496 87.9841 101.814C87.9711 101.497 87.967 101.173 88.099 100.878C88.209 100.633 88.4291 100.333 88.7231 100.315C89.0321 100.297 89.255 100.608 89.414 100.831C89.584 101.07 89.7411 101.318 89.9031 101.563C90.5001 102.466 91.3881 103.615 92.6311 103.17C93.2271 102.957 93.6551 102.422 93.8451 101.831C94.0801 101.101 93.922 100.297 93.69 99.5894C93.618 99.3694 93.26 98.2684 93.836 98.5444C94.509 98.8674 95.0311 99.4994 95.5971 99.9684C96.5731 100.776 98.1381 101.46 99.2351 100.455C99.7591 99.9754 99.9401 99.2114 99.8511 98.5264C99.7491 97.7404 99.2901 97.0604 98.7531 96.4984C97.5881 95.2784 96.0841 94.3704 94.5111 93.7854C94.1141 93.6374 93.942 94.2734 94.336 94.4194C95.675 94.9174 96.9221 95.6754 97.9681 96.6494C98.4631 97.1104 98.946 97.6474 99.138 98.3104C99.288 98.8294 99.24 99.4584 98.875 99.8824C98.447 100.379 97.749 100.36 97.177 100.167C96.526 99.9484 96.0151 99.4744 95.5151 99.0224C95.2681 98.7994 95.0201 98.5774 94.7561 98.3744C94.4911 98.1694 94.1891 97.9264 93.8561 97.8504C93.2811 97.7194 92.9081 98.1614 92.8631 98.6904C92.8121 99.2974 93.1201 99.8544 93.2381 100.434C93.3691 101.083 93.3161 101.811 92.8141 102.295C91.8631 103.211 90.9331 101.931 90.4501 101.199C90.1471 100.739 89.8541 100.173 89.3861 99.8594C88.8691 99.5134 88.2341 99.6514 87.8301 100.1C87.3701 100.61 87.2961 101.253 87.3301 101.913C87.3611 102.502 87.4571 103.147 87.0751 103.649C86.4921 104.416 85.163 104.624 84.479 103.886C84.041 103.414 83.9091 102.737 83.7641 102.132C83.6101 101.487 83.4421 100.827 83.0351 100.289C82.9411 100.165 82.8201 100.104 82.6631 100.138C80.7301 100.558 81.6471 103.931 79.4511 103.879C78.3711 103.853 77.577 103.015 77.453 101.97C77.299 100.674 77.978 99.5364 78.742 98.5574C79.542 97.5314 80.4391 96.4914 80.4911 95.1254C80.5071 94.7024 79.8491 94.7034 79.8331 95.1264Z" fill="#AE660A"/>
<path d="M13.6429 85.2824C12.6789 86.0464 11.715 86.8084 10.752 87.5734C9.96796 88.1954 9.17994 88.9144 9.08594 89.9734C8.99394 91.0064 9.72499 91.7564 10.714 91.9034C11.7 92.0504 12.668 91.7274 13.489 91.1914C13.908 90.9174 14.295 90.5944 14.655 90.2474C14.993 89.9204 15.2819 89.4884 15.6719 89.2234C15.7819 89.1484 16.0199 88.9844 16.1249 89.1434C16.2379 89.3144 16.0569 89.6384 15.9839 89.7954C15.7429 90.3094 15.5159 90.8374 15.3929 91.3934C15.1719 92.3904 15.3099 93.4594 16.0859 94.1854C16.7379 94.7954 17.7059 94.9874 18.4579 94.4384C19.2359 93.8714 19.476 92.8464 19.668 91.9574C19.828 91.2144 20.155 89.9974 21.069 89.8834C20.959 89.7734 20.85 89.6644 20.74 89.5544C20.778 90.9404 20.8639 92.6254 22.0699 93.5424C23.0409 94.2804 24.658 94.3464 25.266 93.1104C25.576 92.4784 25.488 91.7624 25.335 91.1004C25.25 90.7314 25.141 90.3684 25.051 90.0004C24.971 89.6744 24.826 89.2324 24.972 88.9074C25.2 88.4014 25.9709 88.5714 26.3019 88.8544C26.8449 89.3194 27.071 90.0564 27.424 90.6574C28.092 91.7954 29.316 92.8704 30.713 92.3094C31.263 92.0884 31.7309 91.6404 31.8179 91.0344C31.9289 90.2564 31.415 89.4914 31.001 88.8764C30.562 88.2244 30.048 87.6204 29.467 87.0894C29.304 86.9404 28.711 86.5934 28.972 86.3464C29.211 86.1194 29.586 86.1594 29.871 86.2564C31.166 86.6954 31.614 88.5594 33.166 88.4774C33.716 88.4484 34.304 88.1774 34.504 87.6304C34.77 86.9014 34.1659 86.2944 33.6719 85.8524C32.4899 84.7944 31.137 83.9384 29.676 83.3214C29.302 83.1634 28.923 83.0224 28.538 82.8954C28.135 82.7634 27.962 83.3984 28.363 83.5304C29.804 84.0034 31.16 84.7134 32.371 85.6274C32.66 85.8454 32.938 86.0774 33.207 86.3184C33.46 86.5444 33.83 86.8214 33.898 87.1764C33.996 87.6844 33.32 87.8644 32.937 87.8154C32.32 87.7374 31.87 87.1154 31.488 86.6864C31.05 86.1954 30.554 85.7384 29.894 85.5784C29.313 85.4384 28.509 85.5874 28.277 86.2214C28.018 86.9294 28.8499 87.3964 29.2709 87.8124C29.8029 88.3374 30.2689 88.9244 30.6589 89.5624C30.9689 90.0704 31.445 90.7944 30.983 91.3494C30.658 91.7394 30.059 91.8944 29.577 91.7674C28.93 91.5964 28.448 91.0534 28.102 90.5104C27.462 89.5034 27.05 87.9524 25.601 87.9344C25.048 87.9274 24.498 88.2154 24.324 88.7664C24.119 89.4154 24.417 90.1874 24.584 90.8134C24.757 91.4634 25.0159 92.2964 24.6249 92.9174C24.2819 93.4604 23.616 93.5194 23.05 93.3324C21.51 92.8244 21.436 90.9054 21.399 89.5584C21.395 89.3974 21.2509 89.2064 21.0699 89.2294C20.2449 89.3324 19.7079 89.9244 19.3879 90.6584C19.0629 91.4034 18.998 92.2174 18.713 92.9744C18.452 93.6664 17.8619 94.3534 17.0469 94.0414C16.1119 93.6834 15.836 92.6164 15.998 91.7194C16.095 91.1814 16.302 90.6694 16.532 90.1764C16.716 89.7824 16.9299 89.3184 16.7319 88.8874C16.5469 88.4834 16.0989 88.3434 15.6929 88.4824C15.2719 88.6264 14.9749 88.9594 14.6849 89.2774C14.0409 89.9834 13.298 90.6654 12.405 91.0374C11.692 91.3354 10.404 91.5334 9.90296 90.7564C9.64796 90.3604 9.71197 89.8134 9.91797 89.4114C10.174 88.9094 10.612 88.5334 11.043 88.1854C12.058 87.3644 13.0889 86.5634 14.1119 85.7524C14.4399 85.4854 13.9709 85.0224 13.6429 85.2824Z" fill="#AE660A"/>
<path d="M36.9399 85.7415C36.6689 89.3785 35.5689 92.8745 34.7369 96.4055C33.9839 99.6015 33.4679 102.906 33.9179 106.187C34.1589 107.947 34.6989 109.66 35.6049 111.194C35.8199 111.558 36.3889 111.228 36.1729 110.862C34.5529 108.12 34.2269 104.871 34.4859 101.749C34.7699 98.3215 35.7909 95.0195 36.5879 91.6905C37.0569 89.7325 37.4479 87.7525 37.5979 85.7415C37.6289 85.3195 36.9709 85.3215 36.9399 85.7415Z" fill="#AE660A"/>
<path d="M34.8567 89.1117C35.2007 89.7547 35.5448 90.3987 35.8888 91.0417C35.9698 91.1937 36.1938 91.2537 36.3388 91.1597C36.4928 91.0597 36.5438 90.8717 36.4568 90.7097C36.1128 90.0657 35.7688 89.4227 35.4248 88.7797C35.3438 88.6277 35.1198 88.5677 34.9748 88.6617C34.8208 88.7607 34.7697 88.9487 34.8567 89.1117Z" fill="#AE660A"/>
<path d="M30.4918 91.7277C30.8958 96.9527 30.8558 102.21 30.3658 107.428C30.2278 108.899 30.0538 110.367 29.8438 111.831C29.8188 112.008 29.8878 112.182 30.0738 112.236C30.2278 112.28 30.4538 112.182 30.4788 112.006C31.2268 106.789 31.5388 101.513 31.3898 96.2437C31.3468 94.7367 31.2668 93.2317 31.1498 91.7287C31.1178 91.3087 30.4598 91.3047 30.4918 91.7277Z" fill="#AE660A"/>
<path d="M30.8337 108.123C31.3827 108.77 31.7397 109.601 31.8287 110.435C31.8477 110.612 31.9667 110.764 32.1577 110.764C32.3207 110.764 32.5057 110.613 32.4867 110.435C32.3757 109.405 31.9687 108.448 31.2987 107.658C31.1837 107.522 30.9517 107.54 30.8337 107.658C30.6997 107.792 30.7187 107.987 30.8337 108.123Z" fill="#AE660A"/>
<path d="M79.877 104.909C79.889 110.686 81.843 116.426 85.312 121.041C86.281 122.329 87.359 123.529 88.545 124.62C88.856 124.906 89.3229 124.442 89.0099 124.155C84.8569 120.334 82.032 115.166 80.98 109.627C80.685 108.072 80.538 106.492 80.535 104.909C80.534 104.485 79.876 104.485 79.877 104.909Z" fill="#AE660A"/>
<path d="M97.816 101.642C99.345 103.772 100.568 106.109 101.431 108.585C101.57 108.982 102.205 108.811 102.065 108.41C101.183 105.881 99.946 103.486 98.383 101.309C98.139 100.969 97.568 101.297 97.816 101.642Z" fill="#AE660A"/>
<path d="M100.232 105.403C100.721 105.698 101.211 105.993 101.7 106.288C101.848 106.377 102.068 106.326 102.15 106.17C102.234 106.01 102.19 105.815 102.032 105.72C101.543 105.425 101.053 105.13 100.564 104.835C100.416 104.746 100.196 104.797 100.114 104.953C100.03 105.112 100.074 105.308 100.232 105.403Z" fill="#AE660A"/>
<path d="M64.2638 105.164C63.9228 106.1 64.8978 107.227 65.8728 106.843C66.3538 106.654 66.6967 106.206 66.7367 105.688C66.7727 105.228 66.4798 104.792 66.0648 104.608C65.6018 104.403 65.0238 104.434 64.6608 104.821C64.5428 104.947 64.5268 105.163 64.6608 105.286C64.7888 105.403 65.0008 105.42 65.1258 105.286C65.1398 105.271 65.1538 105.256 65.1688 105.242C65.1758 105.236 65.2278 105.197 65.1818 105.229C65.1348 105.261 65.1907 105.224 65.1977 105.22C65.2147 105.209 65.2317 105.199 65.2497 105.189C65.2617 105.183 65.2738 105.177 65.2858 105.171C65.3478 105.138 65.2128 105.194 65.2808 105.174C65.3198 105.163 65.3568 105.15 65.3968 105.142C65.4058 105.14 65.4728 105.128 65.4128 105.138C65.3538 105.148 65.4197 105.138 65.4297 105.138C65.4637 105.136 65.4978 105.135 65.5318 105.137C65.5528 105.138 65.5728 105.14 65.5928 105.141C65.6628 105.146 65.5328 105.125 65.5768 105.139C65.6158 105.151 65.6578 105.155 65.6968 105.167C65.7128 105.172 65.7298 105.177 65.7458 105.183C65.7518 105.185 65.7588 105.188 65.7648 105.19C65.7978 105.203 65.7908 105.2 65.7428 105.18C65.7528 105.196 65.8178 105.217 65.8338 105.226C65.8458 105.233 65.9068 105.283 65.9188 105.281C65.8928 105.284 65.8658 105.236 65.9158 105.28C65.9308 105.293 65.9458 105.307 65.9598 105.322C65.9738 105.336 65.9868 105.352 66.0008 105.366C66.0398 105.408 65.9857 105.352 65.9867 105.347C65.9837 105.358 66.0368 105.428 66.0448 105.441C66.0728 105.487 66.0328 105.463 66.0418 105.427C66.0388 105.437 66.0598 105.478 66.0628 105.488C66.0668 105.503 66.0718 105.518 66.0748 105.533C66.0788 105.548 66.0818 105.563 66.0838 105.579C66.0778 105.53 66.0767 105.523 66.0807 105.56C66.0817 105.598 66.0838 105.636 66.0818 105.675C66.0808 105.692 66.0608 105.743 66.0798 105.7C66.1008 105.653 66.0758 105.712 66.0738 105.724C66.0648 105.762 66.0528 105.798 66.0408 105.835C66.0178 105.91 66.0748 105.773 66.0378 105.842C66.0268 105.863 66.0168 105.884 66.0058 105.904C65.9848 105.942 65.9568 105.975 65.9358 106.012C65.9128 106.053 65.9878 105.955 65.9358 106.01C65.9198 106.027 65.9048 106.045 65.8878 106.062C65.8658 106.084 65.8308 106.132 65.8018 106.141C65.8588 106.122 65.8298 106.122 65.8028 106.139C65.7798 106.154 65.7578 106.169 65.7338 106.183C65.7168 106.193 65.6998 106.201 65.6828 106.211C65.6568 106.226 65.6378 106.254 65.6878 106.211C65.6638 106.232 65.6088 106.239 65.5778 106.247C65.5658 106.25 65.5208 106.266 65.5098 106.261C65.5238 106.259 65.5378 106.257 65.5518 106.255C65.5398 106.256 65.5288 106.257 65.5168 106.258C65.4968 106.258 65.4778 106.26 65.4578 106.259C65.4478 106.259 65.3517 106.252 65.4087 106.258C65.4657 106.264 65.3918 106.254 65.3848 106.252C65.3628 106.247 65.3408 106.241 65.3198 106.235C65.3058 106.231 65.2918 106.225 65.2768 106.221C65.2038 106.198 65.3388 106.256 65.2728 106.219C65.2398 106.201 65.2068 106.184 65.1748 106.164C65.1578 106.153 65.1317 106.14 65.1197 106.125C65.1297 106.133 65.1408 106.141 65.1508 106.148C65.1388 106.138 65.1278 106.128 65.1168 106.118C65.0828 106.087 65.0528 106.053 65.0218 106.02C64.9688 105.964 65.0598 106.079 65.0168 106.015C65.0038 105.996 64.9908 105.977 64.9778 105.958C64.9528 105.919 64.9328 105.878 64.9118 105.837C64.8758 105.768 64.9337 105.905 64.9087 105.831C64.9017 105.809 64.8938 105.788 64.8868 105.766C64.8818 105.749 64.8438 105.645 64.8558 105.633C64.8578 105.647 64.8588 105.661 64.8608 105.675C64.8588 105.66 64.8577 105.645 64.8567 105.63C64.8547 105.607 64.8538 105.585 64.8538 105.562C64.8538 105.539 64.8558 105.517 64.8558 105.494C64.8568 105.428 64.8377 105.564 64.8567 105.48C64.8687 105.431 64.8798 105.384 64.8968 105.337C64.9558 105.175 64.8308 104.97 64.6668 104.932C64.4828 104.892 64.3278 104.991 64.2638 105.164Z" fill="#AE660A"/>
<path d="M63.8478 117.45C63.5068 118.386 64.4818 119.513 65.4568 119.129C65.9378 118.94 66.2808 118.492 66.3208 117.974C66.3568 117.514 66.0638 117.078 65.6488 116.894C65.1858 116.689 64.6078 116.72 64.2458 117.107C64.1278 117.233 64.1118 117.449 64.2458 117.572C64.3738 117.689 64.5857 117.706 64.7107 117.572C64.7247 117.557 64.7388 117.542 64.7538 117.528C64.7608 117.522 64.8128 117.483 64.7668 117.515C64.7198 117.547 64.7758 117.51 64.7828 117.505C64.7998 117.494 64.8168 117.484 64.8348 117.474C64.8468 117.468 64.8588 117.462 64.8708 117.456C64.9328 117.423 64.7978 117.479 64.8658 117.459C64.9048 117.448 64.9417 117.435 64.9817 117.427C64.9907 117.425 65.0578 117.413 64.9978 117.423C64.9388 117.433 65.0048 117.423 65.0148 117.423C65.0488 117.421 65.0828 117.42 65.1168 117.422C65.1368 117.423 65.1578 117.425 65.1778 117.426C65.2478 117.431 65.1178 117.41 65.1618 117.424C65.2008 117.436 65.2428 117.44 65.2818 117.452C65.2978 117.457 65.3147 117.462 65.3307 117.468C65.3377 117.47 65.3438 117.473 65.3498 117.475C65.3828 117.488 65.3758 117.485 65.3278 117.465C65.3378 117.482 65.4028 117.502 65.4188 117.511C65.4308 117.518 65.4918 117.568 65.5038 117.566C65.4778 117.569 65.4507 117.521 65.4997 117.565C65.5147 117.578 65.5298 117.592 65.5438 117.607C65.5578 117.621 65.5708 117.637 65.5848 117.652C65.6238 117.694 65.5698 117.638 65.5708 117.633C65.5678 117.644 65.6208 117.714 65.6288 117.727C65.6568 117.773 65.6168 117.749 65.6258 117.713C65.6238 117.723 65.6438 117.764 65.6468 117.774C65.6518 117.789 65.6557 117.804 65.6587 117.819C65.6627 117.834 65.6658 117.849 65.6678 117.865C65.6618 117.816 65.6608 117.809 65.6648 117.846C65.6658 117.884 65.6678 117.922 65.6658 117.961C65.6648 117.978 65.6448 118.029 65.6638 117.986C65.6848 117.939 65.6598 117.998 65.6568 118.01C65.6478 118.048 65.6357 118.084 65.6247 118.121C65.6017 118.196 65.6588 118.059 65.6218 118.128C65.6108 118.149 65.6008 118.17 65.5898 118.19C65.5688 118.228 65.5418 118.261 65.5198 118.299C65.4968 118.339 65.5718 118.242 65.5198 118.297C65.5038 118.314 65.4888 118.332 65.4728 118.349C65.4508 118.371 65.4148 118.419 65.3868 118.428C65.4438 118.409 65.4148 118.409 65.3878 118.426C65.3648 118.441 65.3428 118.456 65.3188 118.47C65.3018 118.48 65.2848 118.488 65.2678 118.498C65.2418 118.513 65.2228 118.541 65.2728 118.498C65.2488 118.519 65.1938 118.526 65.1628 118.533C65.1518 118.536 65.1058 118.552 65.0948 118.547C65.1088 118.545 65.1228 118.543 65.1358 118.541C65.1248 118.542 65.1128 118.543 65.1008 118.544C65.0818 118.544 65.0618 118.546 65.0428 118.545C65.0328 118.545 64.9368 118.538 64.9938 118.544C65.0508 118.55 64.9778 118.54 64.9698 118.538C64.9478 118.533 64.9258 118.527 64.9038 118.521C64.8898 118.516 64.8758 118.511 64.8608 118.507C64.7878 118.484 64.9237 118.542 64.8567 118.505C64.8237 118.487 64.7908 118.47 64.7588 118.45C64.7418 118.439 64.7168 118.426 64.7038 118.411C64.7138 118.419 64.7248 118.427 64.7348 118.434C64.7228 118.424 64.7118 118.414 64.7008 118.404C64.6668 118.373 64.6368 118.339 64.6058 118.306C64.5528 118.25 64.6438 118.365 64.6008 118.301C64.5878 118.282 64.5748 118.263 64.5628 118.244C64.5378 118.205 64.5178 118.164 64.4968 118.123C64.4608 118.054 64.5188 118.191 64.4938 118.117C64.4868 118.095 64.4788 118.074 64.4718 118.052C64.4668 118.036 64.4288 117.931 64.4408 117.919C64.4428 117.933 64.4448 117.947 64.4458 117.961C64.4438 117.946 64.4428 117.931 64.4418 117.916C64.4398 117.893 64.4388 117.871 64.4388 117.848C64.4388 117.825 64.4408 117.803 64.4408 117.78C64.4418 117.714 64.4228 117.85 64.4418 117.766C64.4538 117.717 64.4647 117.67 64.4817 117.623C64.5407 117.461 64.4158 117.256 64.2518 117.218C64.0668 117.178 63.9108 117.277 63.8478 117.45Z" fill="#AE660A"/>
<path d="M48.5106 112.743C53.9856 112.014 59.5136 111.696 65.0366 111.798C66.6016 111.827 68.1657 111.89 69.7277 111.986C70.1507 112.012 70.1487 111.354 69.7277 111.328C64.2147 110.991 58.6776 111.068 53.1766 111.563C51.6176 111.704 50.0616 111.878 48.5106 112.085C48.3336 112.109 48.1836 112.219 48.1816 112.414C48.1806 112.574 48.3346 112.767 48.5106 112.743Z" fill="#AE660A"/>
<path d="M50.2315 116.367C54.1525 115.247 58.1905 114.556 62.2625 114.322C63.4185 114.255 64.5765 114.226 65.7345 114.232C66.1575 114.234 66.1585 113.576 65.7345 113.574C61.6165 113.555 57.4975 113.99 53.4745 114.87C52.3265 115.121 51.1865 115.41 50.0555 115.733C49.6495 115.848 49.8225 116.483 50.2315 116.367Z" fill="#AE660A"/>
<path d="M87.4149 128.942C88.1499 130.364 89.9278 133.158 89.4968 133.315C81.5158 136.208 71.9628 137.493 63.4918 138.053C55.3798 138.59 46.4738 138.902 40.0078 133.974L41.7648 130.065L42.4958 130.234C53.8278 132.847 65.4718 133.882 76.7958 131.233L87.4149 128.942Z" fill="#6B1212"/>
<path d="M77.7576 133.036C78.9026 141.251 80.0476 149.466 81.1926 157.68C82.3376 165.895 83.4827 174.11 84.6277 182.324C85.2727 186.953 85.9177 191.581 86.5637 196.21C86.6217 196.628 87.2556 196.45 87.1976 196.035C86.0526 187.82 84.9077 179.606 83.7627 171.391C82.6177 163.176 81.4727 154.961 80.3277 146.747C79.6827 142.118 79.0377 137.49 78.3927 132.861C78.3347 132.443 77.6996 132.621 77.7576 133.036Z" fill="#6B1212"/>
<path d="M80.6708 135.878C82.1898 142.524 83.6188 149.191 84.9538 155.876C86.2888 162.561 87.5318 169.265 88.6818 175.985C89.3268 179.754 89.9418 183.528 90.5288 187.306C90.5938 187.723 91.2278 187.546 91.1628 187.131C90.1168 180.394 88.9788 173.672 87.7478 166.966C86.5158 160.261 85.1918 153.572 83.7758 146.904C82.9818 143.164 82.1578 139.43 81.3058 135.703C81.2108 135.29 80.5758 135.465 80.6708 135.878Z" fill="#6B1212"/>
<path d="M54.842 136.068C53.864 139.939 52.886 143.811 51.908 147.682C50.925 151.573 49.943 155.463 48.96 159.354C47.982 163.225 47.004 167.097 46.026 170.968C45.048 174.839 44.07 178.711 43.093 182.582C42.11 186.473 41.128 190.363 40.145 194.254C40.023 194.736 39.902 195.217 39.78 195.699C39.676 196.11 40.311 196.285 40.414 195.874C41.392 192.003 42.37 188.131 43.348 184.26C44.331 180.369 45.313 176.479 46.296 172.588C47.274 168.717 48.252 164.845 49.229 160.974C50.207 157.103 51.185 153.231 52.163 149.36C53.146 145.469 54.128 141.579 55.111 137.688C55.233 137.207 55.354 136.725 55.476 136.244C55.58 135.833 54.946 135.657 54.842 136.068Z" fill="#6B1212"/>
<path d="M57.9145 137.33C56.7625 144.322 55.6665 151.323 54.6265 158.333C53.5925 165.3 52.6145 172.275 51.6915 179.257C51.1725 183.184 50.6705 187.113 50.1865 191.044C50.1345 191.463 50.7935 191.459 50.8445 191.044C51.7075 184.04 52.6255 177.043 53.5995 170.054C54.5675 163.108 55.5915 156.169 56.6695 149.239C57.2785 145.325 57.9055 141.414 58.5485 137.506C58.6175 137.091 57.9835 136.913 57.9145 137.33Z" fill="#6B1212"/>
<path d="M10.2174 251.356C16.6774 255.597 24.4644 257.736 32.1854 257.405C36.3564 257.226 40.3354 256.082 44.4224 255.352C46.5814 254.966 48.7814 254.743 50.9734 254.952C52.9474 255.14 54.8754 255.663 56.7484 256.297C60.4604 257.552 64.0294 259.281 67.8854 260.079C71.5344 260.835 75.2664 260.567 78.8534 259.615C86.4484 257.599 93.0455 253.085 100.266 250.137C108.109 246.935 116.642 245.472 125.104 245.874C126.143 245.923 127.179 246.003 128.214 246.106C128.635 246.148 128.632 245.49 128.214 245.448C119.906 244.616 111.434 245.565 103.518 248.227C96.0264 250.747 89.4044 255.195 82.0044 257.919C78.4544 259.226 74.7014 260.074 70.8994 259.83C66.9924 259.579 63.3514 258.07 59.7374 256.687C56.0794 255.288 52.3504 254.068 48.3844 254.229C44.0944 254.403 39.9864 255.792 35.7614 256.412C28.0064 257.551 19.8844 256.048 13.0204 252.277C12.1774 251.814 11.3544 251.315 10.5504 250.787C10.1944 250.554 9.86444 251.124 10.2174 251.356Z" fill="#6B1212"/>
<path d="M101.823 204.502C103.865 210.935 105.229 217.58 105.87 224.299C106.049 226.177 106.171 228.06 106.239 229.946C106.254 230.368 106.912 230.37 106.897 229.946C106.653 223.179 105.695 216.436 104.037 209.87C103.567 208.007 103.039 206.159 102.458 204.327C102.33 203.925 101.694 204.097 101.823 204.502Z" fill="#6B1212"/>
<path d="M107.942 215.982C108.666 220.177 109.553 224.342 110.602 228.467C110.706 228.877 111.341 228.703 111.236 228.292C110.187 224.167 109.299 220.001 108.576 215.807C108.505 215.391 107.871 215.568 107.942 215.982Z" fill="#6B1212"/>
<path d="M83.6221 138.694C86.6031 141.723 89.7511 144.586 93.0521 147.263C93.9881 148.022 94.9371 148.766 95.8971 149.497C96.2341 149.753 96.5621 149.182 96.2291 148.929C92.8841 146.382 89.6811 143.648 86.6401 140.745C85.7761 139.92 84.9251 139.081 84.0871 138.23C83.7901 137.926 83.3241 138.391 83.6221 138.694Z" fill="#6B1212"/>
<path d="M47.7382 139.757C44.2012 142.335 40.2412 144.316 36.0512 145.584C34.8602 145.945 33.6522 146.247 32.4332 146.493C32.0182 146.577 32.1942 147.211 32.6082 147.127C36.9512 146.251 41.1442 144.638 44.9562 142.378C46.0262 141.744 47.0652 141.057 48.0712 140.324C48.4092 140.078 48.0812 139.507 47.7382 139.757Z" fill="#6B1212"/>
<path d="M53.9961 67.5186C53.9961 67.9216 53.6701 68.2476 53.2671 68.2476C52.8641 68.2476 52.5381 67.9216 52.5381 67.5186C52.5381 67.1166 52.8641 66.7896 53.2671 66.7896C53.6701 66.7896 53.9961 67.1156 53.9961 67.5186Z" fill="white"/>
<path d="M55.7666 68.6636C55.7666 69.0656 55.4406 69.3926 55.0376 69.3926C54.6346 69.3926 54.3086 69.0666 54.3086 68.6636C54.3086 68.2616 54.6346 67.9346 55.0376 67.9346C55.4406 67.9346 55.7666 68.2616 55.7666 68.6636Z" fill="white"/>
<path d="M57.1196 70.0176C57.5222 70.0176 57.8486 69.6912 57.8486 69.2886C57.8486 68.886 57.5222 68.5596 57.1196 68.5596C56.717 68.5596 56.3906 68.886 56.3906 69.2886C56.3906 69.6912 56.717 70.0176 57.1196 70.0176Z" fill="white"/>
<path d="M59.9306 69.7046C59.9306 70.1066 59.6047 70.4336 59.2017 70.4336C58.7997 70.4336 58.4727 70.1076 58.4727 69.7046C58.4727 69.3026 58.7987 68.9756 59.2017 68.9756C59.6047 68.9756 59.9306 69.3026 59.9306 69.7046Z" fill="white"/>
<path d="M62.0117 70.0166C62.0117 70.4186 61.6857 70.7456 61.2827 70.7456C60.8807 70.7456 60.5537 70.4196 60.5537 70.0166C60.5537 69.6136 60.8797 69.2876 61.2827 69.2876C61.6857 69.2886 62.0117 69.6146 62.0117 70.0166Z" fill="white"/>
<path d="M64.0947 69.6006C64.0947 70.0036 63.7687 70.3296 63.3657 70.3296C62.9627 70.3296 62.6367 70.0036 62.6367 69.6006C62.6367 69.1986 62.9627 68.8716 63.3657 68.8716C63.7677 68.8716 64.0947 69.1976 64.0947 69.6006Z" fill="white"/>
<path d="M66.1768 69.1836C66.1768 69.5856 65.8508 69.9126 65.4478 69.9126C65.0458 69.9126 64.7188 69.5866 64.7188 69.1836C64.7188 68.7806 65.0448 68.4546 65.4478 68.4546C65.8508 68.4556 66.1768 68.7816 66.1768 69.1836Z" fill="white"/>
<path d="M68.2588 68.2466C68.2588 68.6486 67.9328 68.9756 67.5298 68.9756C67.1278 68.9756 66.8008 68.6496 66.8008 68.2466C66.8008 67.8436 67.1268 67.5176 67.5298 67.5176C67.9328 67.5186 68.2588 67.8446 68.2588 68.2466Z" fill="white"/>
<path d="M69.7168 67.2056C69.7168 67.6086 69.3908 67.9346 68.9878 67.9346C68.5858 67.9346 68.2588 67.6086 68.2588 67.2056C68.2588 66.8036 68.5848 66.4766 68.9878 66.4766C69.3898 66.4776 69.7168 66.8036 69.7168 67.2056Z" fill="white"/>
<path d="M71.1738 66.3735C71.1738 66.7755 70.8478 67.1025 70.4448 67.1025C70.0418 67.1025 69.7158 66.7765 69.7158 66.3735C69.7158 65.9715 70.0418 65.6445 70.4448 65.6445C70.8478 65.6445 71.1738 65.9705 71.1738 66.3735Z" fill="white"/>
<path d="M45.3404 24.1274C48.2654 21.5544 52.3594 21.2854 56.0704 21.4794C56.4934 21.5014 56.4924 20.8434 56.0704 20.8214C52.1674 20.6174 47.9414 20.9654 44.8754 23.6614C44.5564 23.9424 45.0234 24.4064 45.3404 24.1274Z" fill="#AE660A"/>
<path d="M49.0949 20.4877C51.4859 19.9097 53.9559 19.7487 56.4029 19.9997C56.8239 20.0427 56.8209 19.3847 56.4029 19.3417C53.8999 19.0847 51.3659 19.2617 48.9199 19.8527C48.5079 19.9527 48.6819 20.5867 49.0949 20.4877Z" fill="#AE660A"/>
<path d="M65.7886 25.4485C68.1606 27.2945 69.7966 29.9655 70.3566 32.9195C70.4356 33.3345 71.0696 33.1595 70.9906 32.7445C70.4126 29.6955 68.7026 26.8895 66.2536 24.9835C65.9236 24.7265 65.4546 25.1885 65.7886 25.4485Z" fill="#AE660A"/>
<path d="M67.9171 25.1094C69.5711 26.6254 70.8221 28.5404 71.5291 30.6704C71.6621 31.0704 72.297 30.8994 72.164 30.4954C71.422 28.2604 70.12 26.2364 68.383 24.6444C68.071 24.3584 67.6041 24.8224 67.9171 25.1094Z" fill="#AE660A"/>
</svg>
