<svg width="24" height="24" viewBox="0 0 24 24" fill="none" xmlns="http://www.w3.org/2000/svg">
<g clip-path="url(#clip0_994_5814)">
<path d="M23.1432 11.8974C23.1448 11.6595 23.0968 11.4238 23.0024 11.2054C22.908 10.987 22.7691 10.7906 22.5946 10.6289L12.0003 0.857422L1.40603 10.6289C1.23156 10.7906 1.09268 10.987 0.998238 11.2054C0.903794 11.4238 0.855851 11.6595 0.857461 11.8974V21.4289C0.857461 21.8835 1.03807 22.3195 1.35956 22.641C1.68105 22.9625 2.11709 23.1431 2.57175 23.1431H21.4289C21.8835 23.1431 22.3196 22.9625 22.6411 22.641C22.9626 22.3195 23.1432 21.8835 23.1432 21.4289V11.8974Z" stroke="#0B3478" stroke-width="2" stroke-linecap="round" stroke-linejoin="round"/>
</g>
<defs>
<clipPath id="clip0_994_5814">
<rect width="24" height="24" fill="white"/>
</clipPath>
</defs>
</svg>
