<svg width="146" height="160" viewBox="0 0 146 160" fill="none" xmlns="http://www.w3.org/2000/svg" version="1.1" xmlns:xlink="http://www.w3.org/1999/xlink"><path d="M43.846 160q-.596 0-1.212-.032C21.008 158.807 3.233 128.543.806 102.106-.156 91.63.373 63.869 14.178 61.249c7.533-1.43 15.374 5.198 23.994 20.252 1.369 2.39.463 5.395-2.023 6.711-2.489 1.318-5.612.444-6.979-1.945-7.296-12.743-12.111-15.32-13.025-15.32h-.008c-2.632 1.008-6.572 14.19-5.094 30.291 1.02 11.1 5.288 23.425 11.422 32.968 6.252 9.73 13.812 15.523 20.741 15.896 4.878.257 8.377-2.548 13.693-7.152 5.57-4.824 12.539-10.85 23.11-10.644 11.033.192 21.723 6.842 31.769 19.77 1.699 2.187 1.234 5.283-1.039 6.916-2.274 1.634-5.494 1.185-7.192-1-8.048-10.354-16.029-15.672-23.723-15.805-6.58-.088-10.954 3.696-16.048 8.106C58.51 154.855 52.57 160 43.846 160m60.445-108.549a3.5 3.5 0 0 1-1.671-.428 3.55 3.55 0 0 1-1.416-4.798c13.797-25.644 19.199-29.78 23.85-28.237 4.384 1.444 6.153 6.76 2.229 29.66a3.52 3.52 0 0 1-4.06 2.884c-1.915-.332-3.197-2.163-2.867-4.088 2.11-12.316 2.236-17.95 2.006-20.479-2.097 2.134-6.526 7.925-14.978 23.63a3.51 3.51 0 0 1-3.093 1.856m-55.493 9.015c-1.886 0-3.447-1.508-3.51-3.421C44 18.52 40.55 9.524 39.15 7.445 37.478 9.04 32.762 16.07 24.447 47a3.52 3.52 0 0 1-4.312 2.492c-1.873-.51-2.981-2.454-2.474-4.34C29.097 2.614 35.159-.456 39.9.042c5.19.522 7.314 7.549 8.584 13.613 1.884 9.006 3.173 23.525 3.829 43.152.065 1.953-1.456 3.59-3.395 3.657z" fill="#2877ED"></path><path d="M76.548 60.468c-.384 0-.776-.065-1.159-.2-1.833-.644-2.8-2.662-2.16-4.507.88-2.537.694-5.284-.523-7.737-1.308-2.635-3.607-4.593-6.474-5.512-5.758-1.85-12.218 1.22-14.112 6.688a3.516 3.516 0 0 1-4.477 2.175c-1.834-.644-2.8-2.662-2.161-4.507 3.17-9.148 13.432-14.132 22.882-11.1 4.691 1.503 8.467 4.732 10.63 9.093 2.072 4.178 2.382 8.877.873 13.233a3.52 3.52 0 0 1-3.32 2.374" fill="#2877ED"></path><path d="M104.293 60.468c-.384 0-.774-.065-1.157-.2-1.834-.644-2.801-2.662-2.161-4.507.88-2.537.693-5.284-.523-7.737-1.308-2.635-3.607-4.593-6.474-5.512-5.76-1.85-12.217 1.22-14.112 6.688a3.517 3.517 0 0 1-4.478 2.175c-1.833-.644-2.799-2.662-2.16-4.507 3.17-9.148 13.434-14.132 22.882-11.1 4.691 1.503 8.467 4.732 10.631 9.093 2.071 4.178 2.381 8.877.871 13.233a3.52 3.52 0 0 1-3.319 2.374m-6.397 47.107c-4.46 0-9.095-.304-13.885-.992-10.158-1.456-20.027-4.518-29.33-9.099-2.526-1.244-3.526-4.22-2.232-6.65s4.39-3.39 6.914-2.146c8.31 4.09 17.112 6.823 26.164 8.122 22.156 3.178 40.747-2.831 52.446-8.43 2.54-1.218 5.624-.221 6.889 2.221s.23 5.41-2.311 6.625c-10.504 5.028-26.027 10.349-44.655 10.349" fill="#2877ED"></path><path d="M121.764 142.214a5.23 5.23 0 0 1-3.64-1.454 4.807 4.807 0 0 1 .014-6.987c4.324-4.143 18.329-19.321 16.996-40.673-.529-8.455-3.447-16.857-8.438-24.3-1.538-2.293-.852-5.351 1.533-6.83 2.387-1.48 5.564-.82 7.104 1.474 5.946 8.867 9.424 18.917 10.059 29.063 1.592 25.48-14.906 43.385-20.001 48.265a5.22 5.22 0 0 1-3.627 1.442" fill="#2877ED"></path></svg>