<svg width="119" height="119" viewBox="0 0 119 119" fill="none" xmlns="http://www.w3.org/2000/svg">
<path d="M12.6252 59.8889C12.6252 37.8704 12.6252 26.8611 19.4655 20.0209C26.3058 13.1806 37.3151 13.1806 59.3336 13.1806C81.3519 13.1806 92.3613 13.1806 99.2018 20.0209C106.042 26.8611 106.042 37.8704 106.042 59.8889C106.042 81.9072 106.042 92.9166 99.2018 99.7567C92.3613 106.597 81.3519 106.597 59.3336 106.597C37.3151 106.597 26.3058 106.597 19.4655 99.7567C12.6252 92.9166 12.6252 81.9072 12.6252 59.8889Z" stroke="#629BEE" stroke-width="8.5"/>
<path d="M34.9326 60.0251H69.2293M69.2293 60.0251C69.2293 62.8301 58.6329 72.2548 58.6329 72.2548M69.2293 60.0251C69.2293 57.1474 58.6329 47.9087 58.6329 47.9087M84.0992 40.1995V79.533" stroke="#629BEE" stroke-width="8.5" stroke-linecap="round"/>
</svg>
