<svg width="24" height="24" viewBox="0 0 24 24" fill="none" xmlns="http://www.w3.org/2000/svg">
<path d="M15.4291 16.286C19.6896 16.286 23.1434 12.8322 23.1434 8.57171C23.1434 4.31123 19.6896 0.857422 15.4291 0.857422C11.1686 0.857422 7.71484 4.31123 7.71484 8.57171C7.71484 12.8322 11.1686 16.286 15.4291 16.286Z" stroke="url(#paint0_linear_994_5820)" stroke-width="2" stroke-linecap="round" stroke-linejoin="round"/>
<path d="M17.5713 6.29134C17.3605 5.97426 17.0819 5.70794 16.7557 5.51164C16.4294 5.31533 16.0636 5.19393 15.6847 5.15621C15.3058 5.11848 14.9233 5.16537 14.5647 5.29349C14.2062 5.42161 13.8805 5.62776 13.6113 5.89706" stroke="url(#paint1_linear_994_5820)" stroke-width="2" stroke-linecap="round" stroke-linejoin="round"/>
<path d="M0.857422 23.1436L10.4231 14.4521" stroke="url(#paint2_linear_994_5820)" stroke-width="2" stroke-linecap="round" stroke-linejoin="round"/>
<defs>
<linearGradient id="paint0_linear_994_5820" x1="15.4291" y1="0.857422" x2="15.4291" y2="16.286" gradientUnits="userSpaceOnUse">
<stop offset="1" stop-color="#0B3478"/>
</linearGradient>
<linearGradient id="paint1_linear_994_5820" x1="15.5913" y1="5.14355" x2="15.5913" y2="6.29134" gradientUnits="userSpaceOnUse">
<stop offset="1" stop-color="#0B3478"/>
</linearGradient>
<linearGradient id="paint2_linear_994_5820" x1="5.64028" y1="14.4521" x2="5.64028" y2="23.1436" gradientUnits="userSpaceOnUse">
<stop offset="1" stop-color="#0B3478"/>
</linearGradient>
</defs>
</svg>
