<svg width="220" height="314" viewBox="0 0 220 314" fill="none" xmlns="http://www.w3.org/2000/svg">
<path fill-rule="evenodd" clip-rule="evenodd" d="M40.617 228.68C40.6701 224.75 40.7832 220.82 40.9317 216.892C47.6376 216.288 54.344 215.684 61.0499 215.081C62.7624 214.926 64.4745 214.772 66.1866 214.618C68.0455 214.451 69.9039 214.284 71.7624 214.116C71.9558 214.099 72.2165 214.095 72.507 214.09C73.433 214.074 74.6569 214.054 74.9323 213.589C75.3346 212.91 75.1287 211.121 74.9729 209.764C74.9107 209.223 74.8567 208.752 74.852 208.446C74.8252 206.755 74.7985 205.064 74.7717 203.373C74.7454 201.681 74.7186 199.99 74.6918 198.299L74.6914 198.272C74.4963 185.835 74.3012 173.398 74.1056 160.962C75.7115 161.014 77.317 161.062 78.9224 161.107C79.9632 161.136 81.0049 161.168 82.0475 161.199C87.9992 161.378 93.9687 161.557 99.9148 161.375C103.419 161.267 106.739 160.323 110.047 159.208C111.806 158.616 113.547 157.97 115.274 157.292C115.433 157.229 115.681 157.1 115.968 156.949C116.665 156.585 117.589 156.1 118.004 156.181C118.71 156.317 119.754 157.828 120.521 158.937C120.803 159.345 121.047 159.699 121.223 159.909C123.304 162.402 125.386 164.894 127.467 167.386L127.557 167.494C127.821 167.81 128.122 168.131 128.428 168.459C129.103 169.18 129.809 169.935 130.223 170.74C130.537 171.352 130.712 172.121 130.878 172.854C130.956 173.2 131.033 173.539 131.121 173.848C134.555 185.843 137.912 197.915 140.413 210.143C140.952 212.775 141.462 215.425 141.762 218.097C141.784 218.301 141.813 218.52 141.843 218.748C142.006 220.001 142.209 221.555 141.722 222.635C141.113 223.985 139.236 224.594 137.887 225.033C137.798 225.062 137.712 225.09 137.629 225.117C134.99 225.985 132.227 226.502 129.494 226.965C122.908 228.083 116.239 228.731 109.583 229.256C108.825 229.316 108.059 229.353 107.291 229.39C105.999 229.453 104.703 229.516 103.435 229.687C102.899 229.76 102.75 229.712 102.671 229.766C102.608 229.81 102.59 229.918 102.455 230.206C102.161 230.83 102.206 231.925 102.245 232.865C102.262 233.281 102.277 233.668 102.262 233.969C102.203 235.124 102.144 236.28 102.084 237.434C102.025 238.589 101.966 239.745 101.907 240.9C101.584 247.201 101.261 253.503 100.938 259.804C100.829 261.934 100.72 264.063 100.611 266.193C100.393 270.452 100.174 274.712 99.9558 278.971C99.8954 280.149 99.8354 281.328 99.7749 282.506C99.711 283.748 99.6476 284.991 99.5841 286.233C99.5625 286.652 99.569 287.111 99.5751 287.583C99.5884 288.566 99.6027 289.604 99.3679 290.45C99.2392 290.914 99.2772 291.084 99.2129 291.143C99.146 291.205 98.9681 291.145 98.3745 291.174C96.5757 291.261 94.7332 291.145 92.9054 291.029C91.9976 290.971 91.094 290.914 90.2004 290.882C88.727 290.83 87.2537 290.777 85.7803 290.724C84.1994 290.668 82.6182 290.611 81.0373 290.555C80.8236 290.547 80.6039 290.556 80.3889 290.565C79.7249 290.592 79.1042 290.618 78.8387 290.146C78.5365 289.608 78.6099 288.407 78.6686 287.448C78.6932 287.049 78.7152 286.692 78.7062 286.442L78.4519 279.337L77.7538 259.833C77.601 255.559 77.4478 251.284 77.2949 247.009C77.1305 242.417 76.9656 237.825 76.8015 233.233C73.4071 233.916 70.0127 234.598 66.6183 235.281L66.6114 235.283C61.5925 236.292 56.5732 237.302 51.5539 238.31C50.9332 238.435 50.2809 238.604 49.6131 238.776C47.8034 239.242 45.8772 239.738 44.1413 239.489C41.7804 239.151 40.8044 238.143 40.6718 235.903C40.5445 233.754 40.5756 231.589 40.6066 229.434C40.6101 229.183 40.6136 228.931 40.617 228.68ZM109.108 190.618L108.265 188.996L107.899 190.787L104.331 208.229L104.161 209.061L105.008 209.005L117.219 208.196L118.208 208.131L117.751 207.252L109.108 190.618ZM105.769 207.657L108.802 192.837L116.146 206.97L105.769 207.657Z" fill="#2877ED"/>
<path fill-rule="evenodd" clip-rule="evenodd" d="M210.532 49.4529C210.282 51.3929 210.46 53.5082 208.268 54.0198C206.24 54.4935 204.015 54.3606 201.947 54.5263C199.623 54.7131 197.306 54.9676 194.987 55.1976C192.064 55.487 192.481 54.3641 191.842 51.8688C191.257 49.5901 190.325 47.3161 189.55 45.0939C189.19 44.0611 188.759 43.1107 188.268 42.1374C187.823 41.256 188.034 40.0575 187.555 39.3168C185.918 36.7896 177.935 43.7 177.193 42.338C178.544 41.2871 180.882 40.111 181.296 38.3129C181.784 36.1994 180.44 35.5682 178.751 36.3409C174.596 38.2434 169.8 39.7301 165.269 40.4234C166.734 39.4445 179.99 31.7278 175.541 29.4388C174.539 28.9229 173.2 29.894 172.295 30.2613C170.86 30.8446 169.361 31.2356 167.863 31.6177C166.284 32.0204 164.702 32.4078 163.115 32.7739C162.001 33.0308 160.017 33.9432 158.932 33.718C157.831 33.4892 159.782 32.806 160.101 32.645C161.494 31.9437 162.865 31.1902 164.224 30.4271C166.636 29.0731 168.865 27.5047 170.699 25.4112C172.084 23.8316 174.37 20.3821 173.406 18.1979C172.848 16.9318 171.624 15.7616 170.904 14.5621C170.065 13.1611 169.387 11.6678 168.658 10.2082C169.878 10.7445 171.248 10.8818 172.494 11.3631C173.74 11.8448 175.005 12.2346 176.301 12.5927C178.902 13.3109 181.494 13.4385 184.071 14.021C186.988 14.6801 190.027 15.4172 192.99 15.7981C195.571 16.1293 197.89 16.8351 200.101 18.2409C204.616 21.1127 207.748 25.2382 209.332 30.34C210.26 33.3286 210.486 36.447 210.595 39.5567C210.71 42.835 210.952 46.1888 210.532 49.4529ZM185.195 49.694C182.042 51.9909 178.367 53.7856 174.984 55.7394C173.048 56.8568 171.071 57.9017 169.096 58.9491C167.695 59.6925 165.992 61.0609 164.45 61.4423C163.474 61.6834 163.547 61.702 162.929 60.8129C162.339 59.9638 161.823 59.0497 161.271 58.1752C160.252 56.563 159.225 54.9568 158.196 53.3507C155.891 49.7505 153.591 46.1508 151.169 42.627C148.74 39.0912 146.409 35.4902 144.056 31.9044C142.962 30.2372 141.874 28.5636 140.714 26.9423C139.827 25.7043 137.555 23.8159 138.634 22.3583C139.636 21.0043 141.92 19.8795 143.27 18.8546C144.921 17.6034 146.582 16.365 148.228 15.1073C151.766 12.4037 155.212 9.58238 158.748 6.87513C161.748 12.1343 165.278 17.0647 168.838 21.9541C165.618 24.0074 162.366 25.9592 158.973 27.717C156.467 29.0153 152.633 30.7695 151.051 33.2323C149.492 35.6575 151.023 38.4553 153.802 38.4997C155.465 38.5264 157.121 38.0864 158.751 37.8353C159.927 37.6537 162.075 36.8064 163.136 37.4035C161.229 38.6192 154.313 42.1615 158.041 45.2677C160.706 47.4878 165.211 44.2479 168.09 44.9148C167.213 46.5978 166.3 49.282 168.736 50.1971C170.763 50.9589 173.416 49.5392 175.24 48.7863C176.558 48.2423 177.868 47.6798 179.164 47.0861C180.194 46.6137 181.428 45.6564 182.53 45.4528C183.815 45.2147 186.431 48.7932 185.195 49.694ZM126.588 173.725C128.391 173.396 129.318 172.651 129.886 174.84C130.395 176.8 130.899 178.688 131.555 180.613C128.737 180.856 126.252 182.2 124.197 184.091C122.734 185.439 119.824 188.655 120.546 190.912C122.298 196.395 131.15 184.094 132.202 182.779C133.49 184.66 133.963 187.122 134.603 189.273C135.059 190.804 136.749 193.738 134.514 194.11C131.377 194.633 125.491 195.8 125.863 200.241C126.302 205.482 132.975 205.453 136.717 205.688C138.828 205.821 138.838 207.511 139.138 209.402C139.273 210.248 139.693 211.391 138.974 212.01C138.336 212.56 136.382 212.575 135.551 212.753C133.13 213.272 130.711 213.802 128.29 214.321C125.542 214.91 124.089 214.085 121.52 213.332C120.569 213.054 119.614 213.171 119.544 212.107C119.501 211.454 120.14 210.444 120.35 209.799C121.179 207.243 121.885 204.613 122.123 201.929C122.47 198.03 122.036 192.184 117.232 191.423C114.947 191.061 114.507 190.943 113.475 188.799C112.36 186.482 110.587 184.335 111.016 181.664C111.326 179.729 110.803 176.068 112.039 174.463C112.61 173.721 113.724 173.279 114.484 172.734C115.453 172.04 116.385 171.296 117.288 170.519C118.047 169.865 118.973 168.587 119.834 168.115C120.886 167.538 120.918 167.932 121.673 168.833C122.788 170.164 124.561 174.095 126.588 173.725ZM131.686 182.388C131.061 183.648 129.616 184.821 128.696 185.873C127.771 186.932 126.895 188.051 125.862 189.01C124.726 190.066 120.69 192.617 121.579 189.183C122.271 186.513 124.86 184.35 127.139 183.017C127.58 182.759 132.744 180.254 131.686 182.388ZM136.101 195.102C136.501 196.889 136.716 198.732 137.058 200.532C137.233 201.453 138.202 203.676 137.807 204.562C137.138 206.062 131.117 204.286 129.869 203.77C126.897 202.54 125.533 199.385 128.273 197.138C129.313 196.287 135.701 193.315 136.101 195.102ZM140.048 216.57C140.384 218.277 141.365 219.859 139.743 221.149C138.396 222.22 136.19 222.951 134.53 223.332C132.268 223.852 131.541 222.586 130.344 220.957C129.057 219.205 127.686 217.512 126.265 215.868C130.73 214.869 135.194 213.869 139.66 212.871C139.657 214.114 139.808 215.352 140.048 216.57ZM129.349 224.49C127.021 224.37 124.516 225.07 122.154 225.254C119.204 225.485 116.264 225.82 113.312 226.017C114.068 223.606 115.426 221.455 116.489 219.177C117.555 216.892 118.303 216.645 120.756 216.469C123.028 216.305 124.631 215.523 126.308 217.45C128.052 219.454 129.632 221.631 131.225 223.755C130.684 224.117 130.036 224.526 129.349 224.49ZM112.704 224.982C112.13 225.401 110.358 224.212 109.761 223.981C108.6 223.533 108.342 223.388 107.736 222.256C107.215 221.283 106.387 220.177 106.224 219.065C106.008 217.601 106.657 215.672 106.893 214.217C107.522 215.732 109.585 215.908 110.98 216.156C112.035 216.344 115.159 216.045 115.955 216.795C116.833 217.624 115.216 219.937 114.794 220.808C114.291 221.848 113.67 224.279 112.704 224.982ZM111.579 226.184C110.887 226.296 108.897 226.983 108.937 225.721C108.982 224.279 111.72 225.835 111.579 226.184ZM108.072 226.109C107.946 227.322 105.332 227.222 105.272 226.154C105.171 224.349 108.273 224.17 108.072 226.109ZM105.083 193.373C104.415 195.275 100.345 195.955 98.7819 196.541C97.3543 197.076 93.09 199.544 91.6179 198.649C96.6006 195.227 101.706 191.873 105.928 187.504C106.101 188.583 105.837 189.485 105.519 190.506C105.232 191.429 105.379 192.53 105.083 193.373ZM103.844 200.309C103.127 204.968 102.424 209.688 101.454 214.301C99.6047 213.736 98.08 212.592 96.1373 212.193C94.3648 211.83 92.534 211.821 90.7468 212.086C86.938 212.652 83.5427 214.535 80.2199 216.37C79.913 213.175 79.2776 209.755 79.3527 206.549C79.4148 203.886 83.9757 203.097 86.0444 201.997C87.2958 201.331 88.4273 200.395 89.8532 200.163C91.3205 199.924 92.7365 199.931 94.1857 199.484C97.6124 198.428 100.837 196.753 104.194 195.504C104.469 197.103 104.087 198.733 103.844 200.309ZM100.642 220.027C100.49 221.086 100.682 222.976 99.8745 223.783C99.1143 224.543 97.4898 224.568 96.487 224.774C93.4319 225.402 90.3798 226.037 87.3295 226.685C85.9645 226.974 84.5995 227.251 83.2288 227.51C82.5753 227.634 80.9357 228.26 80.3853 227.74C79.8629 227.247 80.2519 225.67 80.28 225.008C80.3365 223.687 80.4112 222.361 80.3279 221.039C80.169 218.503 80.3102 217.532 82.672 216.22C85.181 214.826 87.772 213.872 90.5961 213.355C93.4552 212.832 96.1792 213.118 98.901 214.215C99.6582 214.52 100.794 214.897 101.147 215.712C101.626 216.823 100.804 218.901 100.642 220.027ZM97.2032 260.901C96.0834 261.603 93.6465 261.483 92.36 261.626C90.2832 261.855 88.1929 261.724 86.1294 261.404C84.5762 261.163 82.258 260.829 81.0678 259.739C79.376 258.191 81.3281 258.12 82.6223 258.229C86.3858 258.545 90.1964 258.324 93.956 258.053C94.6881 258 96.6554 257.358 97.3612 257.658C98.2639 258.042 97.9871 260.41 97.2032 260.901ZM95.0693 285.925C88.0578 285.244 83.9929 279.442 81.4503 273.51C80.0853 270.326 80.5774 266.984 80.4427 263.617C80.4185 263.001 80.0317 261.475 80.6646 261.016C81.259 260.584 83.6644 261.919 84.315 262.078C87.6498 262.895 91.3382 262.973 94.6804 262.18C96.1283 261.836 96.939 261.197 97.3992 262.631C97.7696 263.786 97.1617 265.913 97.0953 267.124C96.9809 269.217 97.309 286.142 95.0693 285.925ZM81.0626 285.931C81.0358 284.915 80.523 274.644 81.0207 274.613C82.4997 277.802 84.0193 280.655 86.7122 283.001C88.088 284.2 89.6347 285.28 91.355 285.924C92.0013 286.165 95.6638 286.349 95.8434 287.15C96.1572 288.553 93.6573 287.987 92.9156 287.873C92.3203 287.781 91.785 287.527 91.2014 287.422C90.0889 287.22 89.0381 287.491 87.9214 287.513C86.2244 287.548 84.5576 287.37 82.8597 287.517C81.3078 287.651 81.1041 287.472 81.0626 285.931ZM82.0978 239.864C88.1001 237.925 93.1164 241.597 96.2841 246.403C98.0903 249.143 98.4944 251.06 98.1784 254.305C98.0653 255.467 98.2742 256.253 97.2054 256.726C96.1477 257.195 93.7445 256.848 92.5996 256.901C89.308 257.055 86.0288 257.259 82.7371 257.064C80.599 256.937 80.2972 256.575 80.3339 254.501C80.3784 252.004 80.1703 249.519 80.0291 247.018C79.8759 244.312 78.9465 240.882 82.0978 239.864ZM80.1336 236.268C80.1371 234.433 80.027 232.55 80.1392 230.719C80.251 228.903 81.0242 228.993 82.7397 228.683C86.4549 228.012 90.1649 227.26 93.8299 226.351C95.2796 225.991 96.9174 225.3 98.4275 225.295C100.012 225.289 99.928 226.103 99.8223 227.505C99.5874 230.611 99.018 233.671 98.8449 236.76C98.658 240.095 98.56 243.472 98.5751 246.81C98.5803 247.937 98.8544 248.771 97.893 247.717C96.9308 246.66 96.4598 244.977 95.6003 243.79C93.8403 241.36 91.2242 239.404 88.3215 238.581C86.7165 238.126 85.0282 238.047 83.3916 238.376C82.8952 238.476 80.4082 239.662 80.0917 239.428C79.8776 239.269 80.1332 236.342 80.1336 236.268ZM102.092 299.851C104.473 301.555 107.109 302.932 109.778 304.127C111.28 304.799 117.224 306.214 117.414 307.727C117.515 308.535 116.53 309.44 115.885 309.535C115.066 309.656 113.718 309.122 112.884 309.021C109.852 308.653 106.827 308.651 103.869 307.807C97.9625 306.123 91.8394 305.648 85.8721 304.18C84.4523 303.831 83.0294 303.503 81.6022 303.187C80.2467 302.886 79.6393 302.938 79.5914 301.49C79.4861 298.313 80.3978 295.058 80.4052 291.841C85.2328 292.391 90.0768 292.385 94.9174 292.838C96.9917 293.032 96.9433 293.424 97.8525 295.236C98.7961 297.115 100.401 298.641 102.092 299.851ZM78.554 196.625C78.4932 195.449 78.4453 194.27 78.3391 193.097C78.2674 192.309 77.5469 190.106 77.9531 189.492C78.4358 188.764 78.9219 189.208 79.7852 189.188C80.9232 189.161 81.8764 188.704 82.8149 188.105C84.5921 186.972 85.9135 185.481 87.067 183.741C88.0819 182.209 87.8929 180.116 87.8808 178.282C87.8484 173.539 88.1942 168.913 87.9045 164.149C87.7716 161.961 89.6408 163.303 91.15 163.586C93.6188 164.05 96.3022 163.729 98.8113 163.735C98.718 164.318 93.5873 165.766 92.7585 166.317C90.6363 167.728 89.399 169.984 89.5924 172.556C89.9818 177.732 95.6854 178.597 99.8525 178.606C96.3951 181.662 92.9994 184.575 90.2819 188.344C88.2784 191.123 84.7493 196.602 88.025 199.677C85.1296 201.32 82.2597 203.148 78.9849 203.939C78.8381 201.502 78.681 199.064 78.554 196.625ZM77.2395 102.155C78.4185 102.911 78.9141 101.842 79.8111 101.288C81.0747 100.507 81.493 100.584 81.6532 98.8402C81.9497 95.6068 80.5886 92.6797 78.8795 90.0338C78.1029 88.831 77.328 87.3987 76.2315 86.4587C75.2322 85.6015 74.2216 85.8965 73.2956 85.0104C72.9321 84.6623 73.0098 84.1705 72.4089 84.1843C72.013 84.1938 71.0512 85.419 70.7244 85.6895C69.6918 86.5437 68.4287 87.1938 67.0758 86.4893C65.1055 85.4643 65.7379 81.7429 67.2683 80.5375C68.4468 79.6091 69.8395 79.7528 71.1807 79.6026C72.1866 79.4909 72.3959 79.5345 71.9824 78.3839C71.6923 77.5785 71.0236 76.9499 70.6933 76.1617C70.0588 74.6487 70.1969 72.81 69.9228 71.2086C69.6767 69.7737 69.1008 68.2219 69.1216 66.7646C69.1492 64.9091 69.7557 64.4272 71.3642 63.907C72.9226 63.4031 74.2134 62.2922 75.5408 61.359C77.0431 60.3025 78.6887 59.6049 80.2329 58.6403C81.281 57.9849 81.9575 56.6605 83.1101 57.2791C84.4799 58.0143 85.9282 60.1424 87.0929 61.2296C85.3886 62.3107 84.9923 62.7836 85.2272 64.9001C85.4426 66.8401 85.838 68.5692 87.3222 69.9209C87.8924 70.4403 88.9557 70.8562 89.3977 71.455C89.9132 72.1526 89.5782 71.5378 89.513 72.3251C89.4785 72.7501 89.1422 73.0279 89.2151 73.5189C89.5424 75.6992 92.0488 74.4123 93.0818 73.6547C96.7724 70.9485 89.8812 68.7992 88.2447 67.8134C87.1145 67.1318 86.5555 64.9579 88.3461 65.5355C89.5376 65.9195 92.2284 69.1767 92.5016 66.2077C95.4553 67.9225 97.2783 71.5654 99.7549 73.8687C101.541 75.5301 103.94 77.3727 102.523 80.0254C100.716 83.4073 97.1337 84.9423 93.8632 86.4013C90.6911 87.8163 91.3499 91.8211 93.0451 94.2724C94.0255 95.6892 95.3098 96.5197 96.8552 97.2082C98.4335 97.9118 98.7616 98.7384 99.1061 100.37C99.489 102.181 99.0823 102.911 97.5136 103.846C95.9819 104.76 94.3808 105.644 92.7455 106.359C89.2095 107.906 85.5414 108.003 81.7805 108.53C80.4626 108.715 79.1986 109.1 78.4794 107.794C77.6708 106.324 77.6112 103.793 77.2395 102.155ZM76.671 95.1219C75.786 94.6555 73.6496 96.2039 72.5306 96.272C70.7205 96.3816 69.5325 96.3402 67.9258 97.2997C64.8884 99.1133 62.3681 101.448 59.9325 103.981C57.1895 106.833 54.4621 109.7 51.7282 112.56C50.4888 113.856 49.2434 115.145 47.985 116.421C46.993 117.427 46.0229 118.842 44.7952 119.56C44.8591 118.707 45.3823 118.104 45.5679 117.313C45.6759 116.851 45.4872 116.459 45.5572 116.017C45.58 115.873 45.966 115.374 46.0247 115.21C46.1814 114.778 46.373 114.35 46.5591 113.901C46.7326 113.482 46.7072 113.048 46.8833 112.611C47.0642 112.159 47.5602 111.861 47.732 111.416C48.2362 110.116 47.4018 109.513 46.0674 109.543C46.5893 106.941 46.8177 105.668 49.5404 104.75C52.1418 103.874 54.6831 102.889 57.0726 101.519C59.1943 100.303 60.9643 98.5495 63.004 97.194C64.8301 95.98 67.1034 94.7082 67.0844 92.2189C68.1196 92.9208 69.09 93.5114 70.2742 92.8125C71.274 92.2228 71.4065 91.7478 72.5621 91.6365C73.5054 91.5463 74.0899 91.5222 74.9317 91.9368C75.9224 92.4243 76.0576 92.7634 76.6347 91.328C77.2905 91.8794 78.9478 94.1767 78.8925 95.0861C78.8623 95.587 78.7863 95.813 78.1651 95.945C77.2844 96.1323 77.3185 95.4627 76.671 95.1219ZM72.544 231.084C72.1132 231.744 70.2975 231.622 69.5964 231.613C67.4591 231.585 66.7118 229.793 65.7742 228.061C64.2957 225.329 62.0862 219.657 64.5115 216.79C66.4261 214.528 70.1546 217.379 71.4609 219.087C72.5885 220.563 72.2535 222.777 72.3584 224.548C72.4469 226.041 73.3949 229.783 72.544 231.084ZM66.7049 232.073C65.8502 232.927 63.077 232.746 61.9447 232.93C59.9239 233.257 57.9144 233.65 55.9536 234.246C54.4941 234.69 53.0513 235.885 52.6667 233.852C52.3434 232.142 52.5044 230.092 52.535 228.367C52.5683 226.505 52.7634 224.667 52.9253 222.814C53.0349 221.561 52.7604 219.256 53.7844 218.294C54.6663 217.465 56.8114 217.385 57.9567 217.11C59.8376 216.659 61.8026 216.067 63.7573 216.269C62.6168 219.363 62.5201 222.608 63.7431 225.691C64.0919 226.571 67.2325 231.546 66.7049 232.073ZM52.3321 219.748C51.8556 224.402 51.3764 229.085 51.8353 233.762C51.8629 234.041 52.1966 235.319 52.0515 235.519C51.9017 235.726 50.7146 235.833 50.4452 235.897C49.375 236.15 48.3062 236.419 47.2291 236.645C45.1328 237.082 44.8591 235.759 44.4477 233.817C43.5666 229.657 45.2748 225.147 46.31 221.151C46.8142 219.206 47.1876 218.981 49.1022 218.82C50.4344 218.708 52.5346 217.771 52.3321 219.748ZM44.237 237.111C43.4358 237.839 42.635 234.403 42.5642 234.053C42.2845 232.662 42.4403 231.252 42.4442 229.84C42.4511 227.634 42.2823 225.438 42.2789 223.243C42.2771 222.055 41.3866 219.627 42.793 218.999C43.2057 218.815 44.8449 218.891 45.2165 219.134C45.9893 219.638 45.6849 219.965 45.4557 220.842C44.9433 222.811 44.4999 224.789 44.0536 226.774C43.6158 228.72 43.1837 230.593 43.3922 232.603C43.4608 233.267 44.7473 236.646 44.237 237.111ZM69.7864 215.427C71.7393 214.877 71.8438 216.372 71.8403 217.803C71.5429 217.575 68.7676 215.714 69.7864 215.427ZM43.6633 110.378C43.1846 111.166 40.1536 111.381 39.2877 111.589C37.5838 111.997 35.879 112.402 34.1794 112.827C30.9957 113.622 27.8901 114.52 24.6261 114.936C26.4185 112.068 26.9762 109.592 26.6425 106.013C26.222 101.494 25.6872 97.0218 24.6464 92.599C23.6202 88.2374 22.4322 83.9051 21.2878 79.5729C20.7257 77.4443 20.1179 75.3567 19.3702 73.2855C18.771 71.6258 17.8347 69.536 18.8522 67.8345C21.4337 69.7168 23.5045 71.7449 24.977 74.6043C26.5544 77.6695 27.932 80.8162 29.7628 83.749C30.5998 85.0898 31.5776 86.3124 32.473 87.6101C33.0057 88.3823 33.3938 89.4967 34.0724 90.1481C34.8546 90.8988 35.6886 91.253 36.1359 89.9859C36.6155 88.6261 35.0851 85.9358 34.6336 84.6588C33.5427 81.5764 32.4613 78.5 31.6199 75.3381C30.9396 72.782 29.8146 69.6918 30.2126 66.995C30.6067 64.325 32.4194 66.2362 33.3368 67.4773C35.2276 70.0365 36.3599 73.0193 37.6023 75.9205C38.7442 78.5858 40.0759 81.1273 41.3395 83.7308C41.779 84.6368 42.3583 86.9772 43.5096 87.2464C45.1833 87.6386 45.0417 85.2831 44.8816 84.3275C43.8209 77.9913 41.052 71.9248 40.4774 65.479C40.4498 65.171 40.0496 62.7762 40.3716 62.576C40.9954 62.1882 41.8372 64.6179 42.1062 65.2133C43.5066 68.3095 44.4814 71.5736 45.3763 74.8441C46.1373 77.6259 46.8255 80.4284 47.6793 83.1838C48.1486 84.6981 48.6865 86.1873 49.217 87.6813C49.6967 89.0346 50.1836 91.347 51.4347 92.2388C53.2098 93.5037 59.5613 90.4963 60.2049 93.1848C60.663 95.096 54.7734 96.6353 53.5189 97.2155C51.8676 97.9796 50.2479 98.8161 48.5958 99.581C47.3452 100.16 45.5477 100.397 44.6428 101.485C43.6845 102.638 43.5308 104.258 43.5023 105.689C43.4803 106.771 44.231 109.444 43.6633 110.378ZM39.649 131.247C39.5652 131.848 39.0874 132.643 38.8724 133.215C38.4351 134.379 38.0629 135.771 37.4543 136.859C36.9311 137.796 36.1583 138.633 35.6524 139.584C35.1728 140.487 35.1089 141.527 34.5485 142.431C33.907 143.464 32.8472 144.206 32.2105 145.232C31.8966 145.738 31.5724 146.316 31.1291 146.855C29.5586 148.765 27.9993 150.567 26.7362 152.613C26.4133 153.136 24.8354 155.422 24.2078 155.546C22.895 155.804 24.4227 153.939 24.6796 153.553C26.5393 150.764 28.191 147.828 29.986 144.995C31.7248 142.253 33.5043 139.531 35.1775 136.747C36.5425 134.478 37.4862 131.219 39.7042 129.62C39.7125 130.164 39.6948 130.706 39.649 131.247ZM100.291 105.613C101.371 110.051 102.663 114.352 103.881 118.751C105.011 122.832 106.515 127.2 106.984 131.407C107.447 135.575 108.514 139.792 109.948 143.748C110.61 145.579 111.292 147.416 112.012 149.225C112.407 150.219 112.849 151.191 113.298 152.162C113.646 152.916 114.567 154.137 114.602 154.936C114.63 155.576 114.853 155.32 114.221 155.802C113.566 156.299 112.432 156.119 111.671 156.206C109.683 156.436 107.744 157.183 105.806 157.667C102.068 158.601 97.6133 159.342 93.7833 158.692C92.1722 158.419 90.499 158.182 88.906 157.826C86.9457 157.388 86.543 156.577 86.1406 154.652C85.2608 150.443 84.5032 146.245 83.7767 142.008C82.9129 136.968 81.9778 131.934 81.3113 126.862C80.6383 121.732 80.1543 116.596 79.0993 111.522C83.3553 112.233 87.3632 113.036 91.6313 111.871C95.4112 110.839 98.14 108.822 100.291 105.613ZM116.951 160.561C117.902 162.52 115.609 164.282 114.498 165.792C113.032 167.781 111.663 169.86 109.958 171.659C109.447 169.615 108.998 167.313 107.634 165.634C105.891 163.489 103.857 164.366 101.722 163.351C103.961 162.262 106.82 162.678 109.195 161.707C111.538 160.75 113.904 159.998 116.084 158.755C116.373 159.356 116.659 159.96 116.951 160.561ZM108.647 206.283C107.216 206.362 108.173 203.346 108.266 202.597C108.522 200.537 108.78 198.477 109.004 196.414C110.185 199.525 111.365 202.636 112.545 205.748C111.248 205.933 109.959 206.21 108.647 206.283ZM106.319 221.199C106.514 221.632 107.425 223.077 106.706 223.344C105.721 223.709 105.603 221.315 106.319 221.199ZM104.612 187.679C100.053 191.316 95.5261 194.963 90.5935 198.095C89.513 198.781 88.4247 199.068 87.7081 197.707C87.1456 196.637 87.7401 195.432 88.1014 194.385C89.0222 191.715 90.6263 189.394 92.4041 187.221C95.9547 182.881 100.181 179.175 105.573 177.464C106.456 177.184 107.818 176.339 108.126 177.506C108.309 178.192 107.538 179.905 107.382 180.549C106.738 183.208 106.879 185.871 104.612 187.679ZM117.735 214.206C117.835 217.294 109.386 214.803 108.334 214.251C109.438 213.881 117.689 212.818 117.735 214.206ZM120.872 214.225C121.374 214.359 123.299 214.529 122.58 215.186C121.936 215.775 119.021 215.539 118.249 215.611C118.768 213.907 119.162 213.771 120.872 214.225ZM119.307 210.088C119.118 210.775 119.041 211.824 118.425 212.294C117.657 212.881 116.025 212.525 115.156 212.529C113.68 212.537 112.206 212.613 110.737 212.759C110.175 212.815 107.899 213.501 107.372 213.033C106.985 212.689 107.129 211.078 107.411 210.715C107.989 209.971 109.322 210.229 110.157 210.199C113.212 210.09 116.25 210.081 119.307 210.088ZM117.345 198.672C116.914 198.031 116.837 198.038 116.653 197.071C116.456 196.036 115.956 195.15 115.662 194.149C115.015 191.948 117.082 192.144 118.599 192.951C122.532 195.045 121.583 202.363 120.61 205.789C119.196 204.749 118.674 204.278 118.187 202.602C118.003 201.965 117.795 201.339 117.603 200.706C117.461 200.239 117.56 198.991 117.345 198.672ZM117.686 163.057C118.784 162.925 119.789 166.33 119.475 167.067C118.833 168.574 116.379 169.921 115.13 170.883C114.298 171.524 113.472 172.258 112.582 172.816C111.757 173.335 111.282 173.044 110.514 173.293C109.403 173.652 109.134 174.827 107.997 175.332C106.397 176.042 104.458 176.241 102.788 176.883C100.76 177.661 98.9019 177.682 96.7762 177.313C93.7194 176.783 90.1359 175.267 90.4118 171.555C90.8975 165.005 103.913 161.649 107.463 167.203C108.387 168.648 108.372 170.333 108.972 171.886C109.622 173.566 110.252 172.906 111.229 171.668C112.507 170.049 113.695 168.343 114.923 166.685C115.321 166.149 116.893 163.154 117.686 163.057ZM37.9205 226.828C37.8579 227.942 37.9248 229.072 37.5372 230.135C37.1465 231.206 36.3547 232.073 35.8989 233.115C34.9742 235.226 34.9811 237.78 35.0182 240.042C35.1041 245.305 36.3513 250.417 37.0109 255.617C34.8153 255.612 32.5455 255.637 30.4177 255.009C28.5169 254.449 28.2134 253.061 27.676 251.311C26.1663 246.398 24.5363 241.506 24.0489 236.36C23.8171 233.908 23.7195 231.436 23.6086 228.976C23.5119 226.818 23.9967 225.877 25.9458 224.809C30.1828 222.486 34.5749 220.552 38.7683 218.119C38.3397 221.006 38.0837 223.915 37.9205 226.828ZM218.798 54.3839C217.766 54.1945 216.725 54.0763 215.684 53.9521C215.141 53.8874 213.448 53.9775 213.042 53.6238C212.558 53.2027 213.396 50.0189 213.438 49.3355C213.7 45.2272 213.396 40.9915 213.019 36.8987C212.337 29.489 210.005 22.6245 204.625 17.2891C201.947 14.6332 198.936 12.5261 195.28 11.5092C193.149 10.9167 190.953 10.6008 188.818 10.0263C187.096 9.56232 185.488 9.03121 183.699 8.84734C180.13 8.48047 176.867 7.13286 173.385 6.35325C170.822 5.77964 166.701 4.41918 165.039 7.31069C163.732 5.778 162.416 4.62712 160.767 3.48383C159.187 2.38873 158.929 1.29484 156.995 2.55935C153.236 5.01652 149.716 8.01398 146.206 10.8095C142.927 13.4205 139.754 16.1546 136.318 18.5556C132.814 21.0047 133.478 25.1607 135.126 28.6062C138.227 35.0915 143.009 40.6356 147.196 46.1944C149.818 49.6768 152.449 53.1639 155.06 56.6532C157.557 59.988 159.717 63.8478 162.634 66.844C164.474 68.7327 166.67 66.2629 168.33 65.1218C170.391 63.7042 172.415 62.2339 174.478 60.8206C178.774 57.8766 183.371 55.1191 187.906 52.5565C188.236 53.4909 188.566 54.4253 188.896 55.3602C187.9 55.4348 186.554 55.2122 186.047 56.2826C185.323 57.8111 187.1 58.0117 187.412 58.8883C187.69 59.6709 186.549 61.7382 186.211 62.4436C185.452 64.0329 184.393 65.4031 183.225 66.7111C178.606 71.8885 172.761 75.5918 166.831 79.1216C160.485 82.8982 153.683 85.2041 146.735 87.6377C143.202 88.875 139.535 89.4501 135.89 90.2422C132.377 91.0058 128.867 92.0088 125.277 92.297C117.934 92.8859 110.14 93.3272 102.885 91.7444C102.09 91.5714 101.25 91.196 100.442 91.1248C99.7942 91.0675 99.3146 91.3388 98.7033 91.3738C97.3901 91.4488 96.6377 90.2754 95.5947 91.3656C95.0728 91.9109 95.0637 92.8263 94.3363 91.8086C93.4112 90.514 95.776 90.2637 96.6523 89.8949C99.6025 88.6528 101.974 86.1528 103.849 83.6251C105.722 81.0997 105.992 78.4025 104.851 75.4455C103.711 72.4899 101.117 70.4864 99.1704 68.0861C98.2289 66.9238 97.362 65.6943 96.3281 64.6093C95.776 64.0299 94.8863 63.4751 94.8518 62.8905C94.8116 62.2111 95.2187 61.8737 94.9752 61.048C94.9122 60.8331 94.6424 60.711 94.585 60.4751C94.4939 60.0989 94.6346 59.7762 94.5871 59.4095C94.4779 58.5691 94.1481 58.041 93.681 57.3525C93.3905 56.9219 92.9648 56.0604 92.5646 55.7381C91.8631 55.173 90.9065 55.4034 90.1934 54.8304C89.0649 53.9245 88.6682 52.0155 87.6697 50.9154C86.2645 49.3674 85.9645 50.9313 84.4756 50.4382C83.2025 50.0159 83.2172 48.1012 82.1885 47.4537C80.7393 46.5417 79.5189 48.2199 78.232 48.5935C76.5389 49.0853 77.1895 47.1763 75.6803 47.0024C74.3178 46.8454 72.43 49.6077 71.7506 50.5888C71.0581 49.7825 70.3009 48.4084 69.0551 48.9007C67.7475 49.4175 67.5148 51.8231 66.559 52.6811C66.2258 52.9797 66.2961 53.1997 65.8864 53.3373C65.3572 53.5142 64.6522 52.7467 63.968 52.9805C62.5879 53.4529 62.7562 55.2933 62.7536 56.4858C61.1253 56.2481 59.9895 56.1268 59.4443 57.8805C58.9107 59.5971 58.7083 58.8396 56.9914 59.3974C55.5116 59.8775 55.3044 61.2822 55.06 62.6558C54.9089 63.51 55.0488 63.8591 55.2789 64.6378C55.569 65.6188 55.569 65.6067 55.0958 66.5429C54.2717 68.1771 54.2225 69.9769 54.0909 71.7751C53.951 73.6936 53.6151 75.4404 54.1608 77.3144C54.4979 78.4741 54.5238 80.0522 55.6605 80.7015C56.1112 80.959 56.877 80.8179 57.2608 81.0733C57.9929 81.5608 57.7702 82.3024 58.258 83.0143C58.6232 83.5471 59.2129 83.5984 59.6221 84.0302C60.0672 84.5005 60.094 85.073 60.3474 85.6468C61.0977 87.3457 61.8035 88.1675 59.3575 88.2646C57.8483 88.3245 56.2385 88.7767 54.7354 88.6377C52.962 88.4747 52.5208 87.4837 51.9561 85.9751C49.1108 78.3727 47.5818 70.1327 43.8347 62.9035C43.0119 61.3159 39.6348 54.8313 38.2071 59.5561C37.0036 63.5411 38.5827 68.4044 39.1884 72.3709C37.2885 70.6599 36.5857 67.5774 35.143 65.4881C34.0776 63.9445 30.741 60.1541 28.785 62.3263C27.2439 64.0381 27.6289 67.6684 27.9134 69.7151C28.3628 72.9533 29.3984 76.0737 30.1379 79.2497C29.2068 78.0323 28.7474 76.5461 28.1012 75.1755C27.2909 73.4567 26.2799 71.826 25.1277 70.3156C24.121 68.9959 22.9951 67.769 21.7743 66.6438C20.8414 65.7832 19.1708 63.8996 17.8459 63.7978C14.4359 63.5364 15.5083 69.7871 16.0276 71.574C17.1042 75.2782 18.2711 78.88 19.1069 82.6583C20.7404 90.0407 22.7188 97.2526 23.9224 104.729C24.1888 106.387 24.5095 107.71 23.8538 109.303C23.2753 110.707 22.6757 112.386 21.609 113.465C19.1945 115.91 17.1897 118.52 15.3848 121.465C13.4517 124.619 11.4616 127.811 9.88374 131.159C9.15807 132.7 8.56449 134.366 7.73046 135.848C6.97758 137.186 6.07276 138.243 5.53746 139.724C2.98011 146.8 1.08671 153.752 0.219867 161.245C-0.491995 167.396 0.171084 175.579 7.60311 177.018C11.0174 177.68 14.0828 176.167 17.1617 174.918C20.3458 173.627 22.6485 171.527 25.2455 169.296C28.4729 166.523 31.8237 163.922 35.0851 161.196C38.3483 158.469 41.3624 155.443 44.6079 152.687C47.8132 149.963 50.7133 147.07 53.4852 143.907C56.2355 140.77 58.4691 137.294 61.1313 134.112C61.1214 138.231 60.5097 142.313 60.3379 146.426C60.1812 150.198 60.1773 153.965 60.3297 157.735C60.4821 161.503 59.4862 165.089 59.478 168.848C59.4693 172.515 59.3238 176.161 59.2435 179.824C59.2077 181.467 58.8852 183.311 59.4995 184.896C59.9584 186.08 61.4003 186.45 62.6306 186.769C64.5318 187.262 70.2513 186.312 71.1004 188.342C71.5641 189.45 71.097 191.466 71.1332 192.69C71.1937 194.707 71.2675 196.723 71.3366 198.74C71.4082 200.822 71.4777 202.905 71.5537 204.987C71.6211 206.822 71.9781 208.866 71.757 210.682C71.5675 212.239 70.6592 212.035 69.2195 212.115C67.0468 212.235 64.8737 212.332 62.6997 212.426C59.5108 212.566 56.1833 212.502 53.126 212.878C51.8422 213.036 50.4392 212.969 49.0849 213.227C47.3862 213.549 45.8175 213.631 44.0946 213.717C42.7058 213.785 40.9203 213.684 39.829 214.711C39.4508 215.067 39.3658 215.491 39.0977 215.887C38.5948 216.63 38.8745 216.434 38.0496 216.601C34.8283 217.253 31.7689 217.989 28.6188 219.086C27.0418 219.635 25.5788 220.373 23.9945 220.889C22.6062 221.342 21.5887 221.9 20.9023 223.262C19.6763 225.694 19.9867 229.214 20.0756 231.836C20.2155 235.926 21.1246 239.82 22.105 243.775C23.1251 247.891 23.925 252.116 25.9095 255.896C26.5614 257.139 27.2654 258.724 28.5972 259.371C30.3166 260.207 32.9612 259.701 34.8378 259.704C36.097 259.706 39.4707 260.138 40.4122 259.083C41.3235 258.061 40.4066 255.179 40.278 253.91C39.8269 249.466 39.0148 244.98 39.0256 240.505C40.0531 242.022 41.8342 244.641 43.6171 242.317C44.0557 241.745 43.8843 241.479 44.6635 241.147C45.0944 240.964 46.0031 240.851 46.4723 240.883C47.1108 240.926 47.347 241.183 47.9332 241.057C48.4525 240.946 49.0362 240.481 49.6315 240.34C57.0108 238.587 64.347 236.698 71.7579 235.137C73.7174 234.724 73.4389 236.227 73.5684 237.92C73.7113 239.792 73.4385 241.683 73.6984 243.535C73.9246 245.146 74.1007 246.716 73.7821 248.336C73.4065 250.247 73.6483 251.842 74.0226 253.735C75.464 261.034 75.2063 268.951 75.5313 276.369C75.7006 280.233 75.3375 284.178 75.701 288.021C75.8383 289.472 76.649 290.275 76.9775 291.595C77.3548 293.111 76.3261 295.041 76.0131 296.51C75.3841 299.458 74.2794 303.678 76.3002 306.243C77.3915 307.629 78.8221 307.83 80.4375 308.298C82.3711 308.859 84.2766 309.513 86.2188 310.044C93.3158 311.985 100.985 312.365 108.259 313.435C110.04 313.696 111.692 313.672 113.484 313.548C114.59 313.471 117.311 313.834 118.23 313.174C118.722 312.82 118.473 312.377 118.723 311.945C119.078 311.33 119.509 311.081 120.114 310.699C121.116 310.066 122.274 309.696 122.443 308.39C122.857 305.19 118.856 303.495 116.717 302.112C113.982 300.343 110.68 299.66 107.778 298.217C106.178 297.42 104.633 296.518 103.091 295.614C102.422 295.222 101.066 294.779 100.6 294.162C100.124 293.533 100.59 292.634 100.787 291.734C101.6 288.017 101.325 284.217 101.746 280.461C102.166 276.698 102.052 272.913 102.191 269.131C102.333 265.237 102.655 261.353 102.902 257.464C103.13 253.872 103.359 250.223 103.397 246.627C103.433 243.294 103.888 240.023 103.995 236.667C104.032 235.529 103.828 233.462 104.584 232.498C105.248 231.652 107.445 231.758 108.47 231.61C111.232 231.209 113.861 230.858 116.593 230.616C123.091 230.041 130.324 229.618 136.469 227.355C139.003 226.421 142.376 225.146 143.216 222.238C144.183 218.894 142.921 214.785 142.879 211.367C142.835 207.717 141.776 204.157 140.982 200.621C140.127 196.814 139.589 192.942 138.665 189.149C137.818 185.67 136.443 182.588 135.143 179.284C134.615 177.944 131.613 173.326 132.544 172.188C133.046 171.574 134.853 171.419 135.587 171.138C137.167 170.534 138.751 169.847 140.208 168.986C142.154 167.837 146.414 165.936 146.611 163.382C146.798 160.942 144.398 158.475 143.178 156.559C141.213 153.47 138.734 150.77 136.862 147.621C133.079 141.256 130.071 134.284 127.313 127.424C125.87 123.836 125.399 120.457 125.161 116.626C129.351 116.636 133.615 117.151 137.778 116.566C142.309 115.929 146.845 114.855 151.336 113.971C159.515 112.36 167.367 110.541 174.943 106.914C182.037 103.517 189.236 99.7997 195.11 94.4079C198.148 91.6201 201.246 88.7788 203.869 85.5907C206.563 82.3158 208.59 78.5949 210.669 74.9184C212.963 70.86 214.789 66.5951 216.234 62.1563C216.524 61.2637 216.526 60.1273 216.897 59.2844C217.317 58.3327 218.079 58.3076 218.876 57.8063C219.997 57.101 220.743 54.7407 218.798 54.3839Z" fill="black"/>
<path fill-rule="evenodd" clip-rule="evenodd" d="M121.258 8.95598C122.216 9.77821 126.344 12.6745 127.677 11.9703C129.322 11.1009 126.718 8.48203 126.017 7.83638C125.124 7.01496 121.936 4.52998 120.715 4.76066C118.275 5.22201 120.397 8.21593 121.258 8.95598Z" fill="black"/>
<path fill-rule="evenodd" clip-rule="evenodd" d="M123.297 38.6813C123.839 37.617 125.278 37.2258 125.943 36.196C126.744 34.9578 127.112 33.8743 126.816 32.356C124.767 33.0454 122.436 35.1321 121.064 36.7637C119.918 38.1274 118.29 40.9769 121.281 40.9842C121.255 40.5787 121.229 40.1723 121.203 39.7672C122.1 39.8975 122.89 39.4833 123.297 38.6813Z" fill="black"/>
<path fill-rule="evenodd" clip-rule="evenodd" d="M113.534 20.9743C114.855 21.3538 115.946 21.3001 117.296 21.3298C118.275 21.3516 119.614 21.8897 120.408 21.2832C119.703 20.8755 120.593 20.853 120.419 20.4554C120.273 20.124 119.995 20.2326 119.768 19.9643C118.962 19.0084 118.261 19.0201 116.982 18.8213C115.991 18.6665 114.534 18.3095 113.582 18.8017C112.58 19.3199 112.193 20.5888 113.534 20.9743Z" fill="black"/>
<path fill-rule="evenodd" clip-rule="evenodd" d="M132.341 50.2939C133.195 49.5777 134.127 47.5043 134.299 46.4344C134.367 46.0151 134.065 45.6941 134.101 45.3857C134.17 44.7977 135.379 43.6613 134.113 43.179C133.005 42.7566 131.964 46.0371 131.682 46.7528C131.393 47.4849 130.607 48.9112 130.848 49.6191C131.048 50.2067 131.764 50.777 132.341 50.2939Z" fill="black"/>
<path fill-rule="evenodd" clip-rule="evenodd" d="M142.562 5.89416C143.335 5.17711 143.825 4.36385 143.745 3.37777C143.681 2.60101 143.099 -0.0770327 142.444 0.00170027C140.269 0.264086 141.247 7.11528 142.562 5.89416Z" fill="black"/>
<path fill-rule="evenodd" clip-rule="evenodd" d="M96.6408 125.627C96.4617 124.972 95.8111 120.968 94.6857 121.241C93.831 121.448 94.719 124.971 94.7587 125.435C94.842 126.405 92.9766 126.373 92.1098 126.242C90.7348 126.034 90.8454 125.229 90.6395 123.98C90.5622 123.508 90.2647 121.375 89.2796 122.156C88.6139 122.684 89.0897 125.315 89.1449 125.915C89.337 127.994 89.5628 131.543 90.7996 133.431C91.2926 134.184 91.736 134.556 92.254 133.59C92.7781 132.613 91.5918 129.635 91.3841 128.636C92.3628 128.731 95.18 128.414 95.7697 129.43C96.308 130.357 95.4468 133.006 97.174 133.221C98.1984 133.349 98.0128 132.163 97.9143 131.251C97.7076 129.337 97.1455 127.475 96.6408 125.627Z" fill="black"/>
<path fill-rule="evenodd" clip-rule="evenodd" d="M99.2648 124.7C98.1304 125.212 99.5545 132.679 101.214 132.439C103.151 132.157 100.346 124.212 99.2648 124.7Z" fill="black"/>
<path fill-rule="evenodd" clip-rule="evenodd" d="M98.0006 122.228C97.8607 123.909 100.047 124.536 100.15 122.708C100.23 121.299 98.1478 120.46 98.0006 122.228Z" fill="black"/>
<path fill-rule="evenodd" clip-rule="evenodd" d="M85.9999 77.6529C86.998 81.37 96.0825 82.9511 94.8587 77.9381C94.2457 75.4281 91.6857 77.6581 89.8985 77.366C88.742 77.177 85.2971 75.0316 85.9999 77.6529Z" fill="black"/>
<path fill-rule="evenodd" clip-rule="evenodd" d="M83.7185 71.0223C84.1459 69.0334 79.7923 66.838 78.2123 67.3854C75.9014 68.187 75.9113 73.31 77.6744 74.672C77.9062 74.8511 78.6172 75.2786 78.9656 74.9378C79.5151 74.3989 78.9146 74.546 78.7864 74.0081C78.5827 73.1526 77.917 72.0542 78.5801 71.0805C79.8337 69.2418 83.1068 73.8722 83.7185 71.0223Z" fill="black"/>
<path fill-rule="evenodd" clip-rule="evenodd" d="M70.4436 80.6766C68.874 80.5886 67.5867 83.0235 69.8962 82.8195C70.3387 82.7802 71.2889 82.6689 71.5453 82.2047C71.9701 81.4355 71.1339 80.7155 70.4436 80.6766Z" fill="black"/>
<path fill-rule="evenodd" clip-rule="evenodd" d="M146.594 22.6329C146.057 21.8563 144.93 20.6064 143.961 21.3854C143.102 22.0762 143.252 23.7812 143.582 24.6285C144.468 26.9095 146.563 28.9415 148.933 27.6273C148.11 25.9787 147.646 24.1533 146.594 22.6329Z" fill="black"/>
</svg>
