<svg xmlns="http://www.w3.org/2000/svg" width="64" height="64" viewBox="0 0 64 64">
  <!-- Big speech bubble -->
  <path d="M10 18c0-4.418 3.582-8 8-8h20c4.418 0 8 3.582 8 8v8c0 4.418-3.582 8-8 8H26l-6 5v-5h-2c-4.418 0-8-3.582-8-8v-8z" stroke="black" stroke-width="2" fill="#E8F1FF"></path>
  
  <!-- Small speech bubble -->
  <path d="M30 26c0-3.314 2.686-6 6-6h7c3.314 0 6 2.686 6 6v5c0 3.314-2.686 6-6 6h-3l-3 3v-3h-1c-3.314 0-6-2.686-6-6v-5z" stroke="black" stroke-width="1.8" fill="#C7DCFB"></path>
</svg>
