<svg width="5" height="23" viewBox="0 0 5 23" fill="none" xmlns="http://www.w3.org/2000/svg">
<path d="M2.5 9.43652C2.90792 9.43652 3.30669 9.55748 3.64587 9.78411C3.98504 10.0107 4.2494 10.3329 4.4055 10.7097C4.56161 11.0866 4.60245 11.5013 4.52287 11.9014C4.44329 12.3015 4.24685 12.669 3.95841 12.9574C3.66996 13.2459 3.30246 13.4423 2.90237 13.5219C2.50229 13.6015 2.08759 13.5606 1.71072 13.4045C1.33384 13.2484 1.01172 12.9841 0.785094 12.6449C0.558464 12.3057 0.4375 11.9069 0.4375 11.499C0.4375 10.952 0.654799 10.4274 1.04159 10.0406C1.42839 9.65382 1.95299 9.43652 2.5 9.43652ZM0.4375 20.2646C0.4375 20.6726 0.558464 21.0713 0.785094 21.4105C1.01172 21.7497 1.33384 22.014 1.71072 22.1701C2.08759 22.3263 2.50229 22.3671 2.90237 22.2875C3.30246 22.2079 3.66996 22.0115 3.95841 21.7231C4.24685 21.4346 4.44329 21.0671 4.52287 20.667C4.60245 20.2669 4.56161 19.8522 4.4055 19.4754C4.2494 19.0985 3.98504 18.7764 3.64587 18.5497C3.30669 18.3231 2.90792 18.2021 2.5 18.2021C1.95299 18.2021 1.42839 18.4194 1.04159 18.8062C0.654799 19.193 0.4375 19.7176 0.4375 20.2646ZM0.4375 2.73339C0.4375 3.14132 0.558464 3.54008 0.785094 3.87926C1.01172 4.21844 1.33384 4.48279 1.71072 4.6389C2.08759 4.795 2.50229 4.83585 2.90237 4.75626C3.30246 4.67668 3.66996 4.48025 3.95841 4.1918C4.24685 3.90336 4.44329 3.53585 4.52287 3.13577C4.60245 2.73568 4.56161 2.32098 4.4055 1.94411C4.2494 1.56724 3.98504 1.24512 3.64587 1.01849C3.30669 0.791857 2.90792 0.670895 2.5 0.670895C1.95299 0.670895 1.42839 0.888193 1.04159 1.27499C0.654799 1.66178 0.4375 2.18638 0.4375 2.73339Z" fill="#0B3478"/>
</svg>
