<svg width="64" height="40" viewBox="0 0 64 40" fill="none" xmlns="http://www.w3.org/2000/svg">
<path d="M20.2629 8.6608C9.47051 9.35157 3.47474 4.91913 1.8259 2.61657C0.776639 4.63131 -0.152705 10.6468 4.524 18.5906C10.3699 28.5204 20.2629 32.8377 28.8069 33.7012C37.3508 34.5646 47.6936 31.9743 55.7878 24.2031C62.2633 17.9862 63.5824 10.3877 63.4325 7.36561C61.3339 5.20695 55.2482 0.889648 47.6936 0.889648C38.2502 0.889648 33.7534 7.79734 20.2629 8.6608Z" fill="#2463C9"/>
<path d="M45.4936 12.9987C55.5365 13.6895 61.1159 9.25702 62.6503 6.95446C63.6267 8.9692 64.4915 14.9846 60.1395 22.9285C54.6996 32.8583 45.4936 37.1756 37.543 38.0391C29.5923 38.9025 17.6159 38.1602 10.0837 30.389C4.05795 24.1721 1.70166 19.5289 1.84115 16.5068C3.79394 14.3482 12.9378 5.22754 19.9679 5.22754C28.7554 5.22754 32.94 12.1352 45.4936 12.9987Z" fill="#2877ED"/>
<path d="M20.0588 22.6921C9.866 23.1647 4.20332 20.132 2.64609 18.5566C1.65512 19.9351 3.4978 23.6528 7.91468 29.0881C13.4358 35.8822 20.0588 39.2342 28.1281 39.825C36.1974 40.4158 47.1215 39.7545 53.0318 32.5586C57.2254 27.4528 60.9716 23.8737 60.8301 21.8059C58.8481 20.3289 53.1005 17.375 45.9655 17.375C37.0468 17.375 32.7998 22.1013 20.0588 22.6921Z" fill="#7CAAF7"/>
</svg>
