<svg width="306" height="288" viewBox="0 0 306 288" fill="none" xmlns="http://www.w3.org/2000/svg">
<path fill-rule="evenodd" clip-rule="evenodd" d="M158.374 17.7183C157.029 21.2789 155.684 24.84 154.339 28.4008C153.476 30.6826 152.615 32.964 151.753 35.2458C151.447 36.0548 151.277 36.8847 150.685 37.4463C149.292 38.7687 146.79 39.6103 145.115 40.5406C143.993 41.164 142.871 41.7874 141.749 42.4107C141.17 42.7324 139.888 43.1363 139.482 43.6701C139.036 44.2583 139.247 45.3385 139.247 46.1519V53.1743V66.4061C145.043 65.6814 150.839 64.9572 156.635 64.2325C148.913 73.1428 141.191 82.0527 133.469 90.9631C131.566 93.1588 129.255 95.2724 127.837 97.8272C124.819 103.265 121.87 108.743 118.887 114.2C116.11 119.28 113.333 124.36 110.556 129.44L135.538 128.376C142.006 128.101 148.651 128.515 154.883 126.682C160.02 125.171 165.157 123.66 170.295 122.149C170.978 121.948 173.107 121.72 173.591 121.17C174.044 120.655 174.035 118.709 174.163 118.05C176.588 105.587 179.675 91.8525 186.752 81.1242C191.826 73.4337 198.673 66.7004 204.943 59.9941C207.39 57.3766 209.88 54.7905 212.241 52.0936C212.846 51.4028 213.719 50.619 214.119 49.78C214.377 49.2379 214.738 48.205 214.577 47.7238C214.508 47.5152 212.895 46.7666 212.663 46.6179C211.028 45.5672 209.408 44.4943 207.784 43.4267C203.22 40.4263 198.661 37.4185 194.071 34.4581C190.493 32.1498 186.925 29.7023 183.151 27.7187C179.239 25.6625 174.93 24.2154 170.829 22.5908C166.684 20.9489 162.532 19.3258 158.374 17.7183Z" fill="#2877ED"/>
<path fill-rule="evenodd" clip-rule="evenodd" d="M299.044 207.942C297.054 209.817 293.43 212.334 290.565 211.19C289.126 210.615 287.897 209.353 286.587 208.539C285.047 207.583 283.599 206.626 282.294 205.351C279.689 202.807 277.717 199.091 274.641 197.1C273.608 196.43 271.59 196.287 270.872 195.218C270.551 194.738 270.521 194.011 270.58 193.457C270.709 192.263 271.354 192.333 270.276 191.457H271.95C271.982 190.811 271.337 190.757 270.856 190.841C271.079 189.816 271.307 185.807 269.44 187.624C267.821 189.199 268.631 191.812 267.484 193.518C266.607 194.824 264.277 193.766 263.963 192.329C263.822 191.683 264.533 190.675 264.618 190.042C264.804 188.639 264.177 187.425 263.267 186.362C261.27 187.693 262.402 190.447 261.264 192.195C260.234 193.777 257.94 193.039 256.372 192.761C254.492 192.427 252.367 192.765 250.569 192.321C247.853 191.65 248.867 188.462 248.599 186.404C248.31 184.2 246.082 181.14 246.752 178.916C247.471 176.529 251.674 176.012 253.683 175.433C258.275 174.108 264.825 173.854 268.239 170.146C270.954 173.174 273.138 176.641 275.986 179.556C279.062 182.705 282.348 185.612 285.301 188.887C288.374 192.296 291.547 195.64 294.508 199.148C295.801 200.678 296.935 202.327 298.272 203.82C299.461 205.148 300.713 206.369 299.044 207.942ZM162.56 149.05C163.971 148.299 164.151 148.77 164.15 150.315C163.744 149.573 163.341 149.375 162.56 149.05ZM150.597 179.091V176.367C151.957 176.332 151.121 178.662 150.597 179.091ZM150.264 183.148C150.264 181.942 150.232 180.793 150.579 179.62C150.762 180.898 151.111 182.005 150.264 183.148ZM156.113 266.014C157.362 266.131 159.288 265.27 160.338 266.25C161.418 267.258 161.331 270.189 161.587 271.55C162.009 273.799 162.384 276.055 162.74 278.315C162.973 279.796 163.262 281.301 161.587 281.868C159.111 282.705 155.575 281.51 152.995 281.401C147.898 281.187 142.804 280.889 137.703 280.785C132.759 280.685 127.803 280.764 122.882 281.278C120.659 281.511 118.485 281.921 116.284 282.292C115.125 282.488 112.017 283.308 110.969 282.33C108.998 280.489 112.275 276.192 113.684 274.979C116.3 272.726 120.02 271.102 123.3 270.124C125.052 269.601 127.975 268.133 129.355 269.775C130.415 271.034 130.373 272.715 131.891 273.67C135.408 275.881 133.35 269.539 131.152 268.758C132.628 265.304 135.441 270.181 136.608 271.352C137.023 271.769 138.373 273.144 138.959 272.452C139.398 271.935 138.522 270.082 138.359 269.577C138.112 268.811 137.487 267.646 137.667 266.816C137.992 265.312 140.101 264.903 141.363 264.778C143.322 264.584 145.243 265.204 147.179 265.412C150.148 265.73 153.14 265.735 156.113 266.014ZM136.45 124.423C132.584 124.731 128.694 124.139 124.837 124.623C121.188 125.081 117.749 126.421 114.309 127.652C119.423 115.658 126.04 104.739 134.104 94.5106C138.12 89.4162 142.439 84.357 146.779 79.5356C148.798 77.2925 150.886 75.1237 152.971 72.9436C154.831 70.9987 156.163 67.6957 158.395 66.2433C160.3 65.0035 163.629 65.8878 165.74 65.9647C168.126 66.0516 171.03 66.2686 173.357 65.4743C175.043 64.8988 175.507 63.3629 173.396 63.3121C170.907 63.2516 168.458 63.5112 165.936 63.2777C159.401 62.6739 153.101 61.6815 146.513 62.2444C145.004 62.3731 143.017 63.016 141.536 62.823C140.471 62.6835 141.171 63.219 140.431 62.3644C140.147 62.0375 139.806 61.2689 139.722 60.8346C139.25 58.3955 140.59 54.9099 140.91 52.4542C141.206 50.1815 140.944 47.6837 141.499 45.4705C142.004 43.4565 143.543 43.1879 145.44 42.9727C150.627 42.3836 155.921 42.0702 161.132 41.6264C173.024 40.6135 185.294 39.0855 197.105 41.5886C201.37 42.4923 206.57 43.8899 210.38 46.1278C211.572 46.8273 212.774 47.6511 212.34 49.1004C211.891 50.605 209.687 52.1943 208.595 53.1854C200.527 60.5095 192.735 67.98 187.068 77.3777C179.84 89.3614 175.693 102.304 173.259 116.036C172.736 118.991 172.25 120.537 169.21 121.387C165.947 122.301 162.798 122.894 159.414 123.172C151.766 123.8 144.094 123.813 136.45 124.423ZM139.04 45.0615C138.454 49.4238 137.661 53.7766 137.583 58.1733C137.553 59.8339 137.396 60.666 135.63 61.0363C133.548 61.4728 131.431 61.798 129.34 62.2509C119.246 64.4384 109.344 67.1249 99.4687 70.1488C89.8715 73.0884 80.4322 76.3952 70.6194 78.5727C66.3983 79.5095 61.4591 80.1407 57.6145 82.2147C53.4786 84.4466 54.0229 88.1055 53.6516 92.1245C53.1556 97.4941 51.5632 102.693 51.0033 108.061C50.7355 110.625 50.4917 113.205 50.5321 115.786C50.5664 117.986 50.8816 120.419 49.4027 122.271C46.4358 118.304 45.0295 113.315 44.4448 108.454C44.1605 106.091 44.2731 103.709 44.1918 101.335C44.1262 99.4233 44.1688 96.3829 42.9237 94.7867C40.2172 91.3176 36.6973 105.22 36.3626 106.704C35.7997 109.203 35.3354 111.723 34.7746 114.222C34.5259 115.329 34.2069 119.356 32.7227 119.757C29.6471 120.59 30.3223 111.947 30.2736 110.631C30.1762 107.975 30.1101 105.316 30.1723 102.658C30.2175 100.739 30.5887 98.6565 30.3683 96.7368C29.8271 92.0232 27.1767 96.9894 26.4316 98.7439C24.5488 103.173 23.6972 107.914 22.0088 112.414C21.728 113.163 21.0681 115.683 20.0226 115.73C18.8593 115.782 18.8684 113.179 18.8019 112.419C18.4159 108.011 17.1122 103.634 17.5056 99.1812C17.9029 94.6845 19.4792 90.0618 21.7097 86.1506C26.4255 77.8815 34.9415 73.1336 43.0985 68.8086C52.4335 63.8598 62.2889 59.95 72.3547 56.7648C84.4606 52.9341 96.8909 49.8346 109.396 47.6289C115.758 46.5069 122.218 45.7044 128.645 45.061C130.904 44.835 133.164 44.7028 135.393 44.2729C136.235 44.1103 139.272 43.3378 139.04 45.0615ZM145.543 30.9441C142.354 30.9694 139.095 29.4231 135.988 28.7841C132.289 28.0224 128.676 26.9204 124.983 26.1253C117.751 24.5686 110.516 23.0506 103.291 21.4596C100.155 20.7688 97.003 20.1676 93.8787 19.4257C90.5362 18.6319 86.925 17.7468 83.5038 18.6019C78.3181 19.8982 76.1276 25.5715 74.2236 29.9991C72.8786 33.1264 71.8248 36.6124 69.7273 39.3337C68.9805 40.304 67.9189 41.4612 66.5648 41.1469C64.0491 40.5635 64.4486 37.2345 64.769 35.3943C65.2333 32.7239 65.891 30.0847 66.4174 27.4264C66.6296 26.3536 68.2736 19.3318 65.3385 20.4189C63.161 21.2253 62.009 26.5366 61.1848 28.4337C60.5723 29.8435 59.9232 31.2441 59.2359 32.6191C58.3187 34.4532 55.7017 40.5813 52.8044 39.791C48.6581 38.6599 52.6352 27.7594 53.3417 25.462C53.7294 24.2009 57.944 14.6369 54.3867 15.4185C52.8717 15.7519 51.3959 18.5658 50.6234 19.7321C49.2536 21.8008 47.8882 23.8844 46.5988 26.0041C45.2725 28.1842 44.5952 30.6655 43.2798 32.8139C42.5877 33.9445 41.1753 35.4513 39.7964 34.4045C37.6468 32.7739 38.9209 27.1017 39.2974 24.9568C39.9977 20.9692 41.7374 16.8813 44.1244 13.6214C47.7113 8.72301 54.4793 7.14022 60.1706 6.18863C67.5168 4.96013 74.9652 5.29616 82.3423 6.023C90.6388 6.8407 98.8088 7.71621 106.987 9.38812C115.228 11.0731 123.474 12.7445 131.589 14.9729C135.412 16.0227 139.29 16.9534 143.058 18.1859C147.065 19.4957 150.974 21.1257 155.093 22.0695C153.644 25.6841 152.195 29.2988 150.747 32.9138C149.36 31.5423 147.468 30.9285 145.543 30.9441ZM216.542 40.9047C217.812 40.2101 219.215 39.8823 219.679 38.3469C220.089 36.9902 219.388 35.453 219.054 34.1506C218.117 30.5042 217.871 26.727 218.699 23.0376C219.491 24.2465 222.456 28.8966 224.259 26.0814C225.347 24.3834 222.433 21.9408 221.582 20.7471C223.449 19.5952 226.115 16.5035 228.266 18.368C229.656 19.5735 230.245 20.734 232.118 21.32C234.392 22.0316 236.533 21.8686 238.855 21.6721C240.481 21.5348 240.872 21.3178 241.508 22.5698C242.006 23.554 242.264 24.7721 242.555 25.8289C243.129 27.9125 244.458 32.0179 242.884 33.9698C241.506 35.6795 236.156 34.2136 235.413 36.4207C235.008 37.6244 236.942 37.6674 237.681 38.263C238.596 39.0003 239.353 40.1736 239.85 41.2217C240.218 41.9967 240.778 43.2774 240.151 44.0699C239.285 45.1662 237.68 44.3346 236.982 43.5378C236.055 42.4793 235.755 41.0321 234.981 39.8793C233.562 37.7639 233.477 39.4467 233.091 40.9656C232.689 42.5436 231.74 42.4349 230.286 42.6375C227.735 42.9935 225.156 43.4956 222.673 44.1794C221.4 44.5298 220.166 44.9763 218.954 45.4979C218.173 45.8335 216.818 46.8503 215.971 46.8599C214.4 46.8777 213.311 44.2507 212.5 43.1548C213.847 42.4032 215.189 41.6446 216.542 40.9047ZM300.889 201.759C296.966 197.05 293.569 191.934 289.699 187.184C285.881 182.499 281.465 178.403 277.181 174.16C275.159 172.157 273.222 169.96 270.99 168.185C269.325 166.861 268.044 166.841 266.042 167.427C260.351 169.094 254.557 171.1 249.172 173.587C244.157 175.903 239.59 178.877 234.151 180.169C228.6 181.487 222.829 181.911 217.14 181.584C211.304 181.249 205.8 180.034 200.251 178.25C194.995 176.56 189.515 175.084 185.02 171.734C180.308 168.222 176.667 163.171 173.294 158.421C171.586 156.016 169.89 153.49 168.739 150.765C167.741 148.399 167.088 145.608 165.297 143.68C164.857 144.303 164.31 144.837 164.087 145.569C163.985 145.901 164.584 145.891 164.523 146.155C164.407 146.653 163.744 147.161 163.359 147.431C161.975 148.405 161.967 147.63 162.33 149.451C162.541 150.513 162.141 152.907 160.41 152.125C161.048 152.888 160.035 153.851 159.704 154.479C159.477 154.218 159.194 154.127 158.856 154.206C159.489 155.467 159.115 155.5 158.502 156.501C158.389 156.684 157.992 157.642 158.049 157.561C157.423 158.454 156.698 158.679 156.333 159.791C156.032 160.704 156.109 161.708 155.775 162.62C155.37 162.061 154.965 161.501 154.56 160.942C154.643 161.382 154.808 162.033 155 162.432C155.121 162.682 155.639 163.265 155.632 163.401C155.604 163.909 154.969 163.787 154.789 164.226C154.449 165.049 154.94 165.17 154.755 165.973C154.543 166.894 153.973 166.526 153.702 167.311C153.651 167.46 154.051 168.047 153.987 168.369C153.898 168.824 153.486 169.078 153.341 169.482C152.97 170.511 153.105 171.264 152.591 172.25C152.392 172.633 152.102 172.887 151.961 173.322C151.838 173.705 152.103 174.519 151.866 174.861C150.719 176.513 150.88 173.668 150.967 172.963C151.697 167.039 154.039 160.925 156.182 155.388C157.247 152.637 158.284 149.8 159.619 147.165C160.156 146.104 160.776 145.009 161.665 144.198C162.788 143.171 164.381 142.76 165.399 141.613C165.238 141.794 166.502 140.599 166.299 140.992C166.48 140.64 166.165 140.165 166.277 139.825C166.416 139.403 166.68 139.314 166.974 138.944C167.502 138.281 168.13 137.951 167.3 137.106C168.531 136.833 169.12 136.434 169.366 135.115C169.545 134.151 169.183 134.214 169.816 133.571C170.451 132.925 170.773 133.429 171.173 132.311C171.652 130.972 171.969 129.152 172.256 127.751C172.507 126.529 171.899 124.73 172.93 123.867C174.235 122.774 175.403 123.236 175.169 121.038C174.941 118.894 175.607 117.596 176.277 115.567C177.612 111.518 178.129 107.243 179.3 103.145C181.8 94.4002 186.216 86.5158 190.965 78.8183C195.353 71.7055 201.488 65.6456 207.412 59.8096C209.034 58.2111 210.638 56.5897 212.094 54.8373C213.349 53.3284 213.921 51.274 215.127 49.8416C215.86 48.9717 217.224 48.5996 218.246 48.1384C219.952 47.3689 221.985 46.3652 223.91 46.5208C223.145 49.1 222.896 52.1138 225.154 54.0479C227.893 56.394 230.375 53.9566 232.886 52.619C237.463 50.1807 244.008 52.419 247.999 48.7644C248.95 47.8941 249.215 46.5034 250.203 45.6905C250.928 45.0945 251.959 44.9432 252.776 44.499C255.256 43.1492 256.46 40.6783 255.494 37.9487C254.612 35.4534 253.24 34.5879 256.293 33.3233C258.77 32.2974 259.713 30.7516 258.591 27.9994C257.522 25.3755 255.563 25.0733 253.709 23.3562C251.914 21.693 253.976 19.7574 255.321 18.5089C257.056 16.8982 257.387 15.4467 255.376 13.7718C253.27 12.0181 250.264 12.0794 247.81 12.9467C245.034 13.927 243.205 15.5567 242.03 18.1976C240.834 20.8862 237.869 20.1359 235.467 19.3865C233.171 18.6701 232.573 17.1243 231.065 15.4598C229.388 13.6083 225.97 15.1916 223.992 16.0375C219.119 18.1198 214.278 21.4061 214.084 27.2273C213.969 30.6985 215.437 33.6489 216.2 36.9071C216.898 39.8866 212.112 39.6519 211.283 42.5341C202.44 37.8531 192.593 36.4207 182.708 36.102C172.202 35.763 161.545 35.4913 151.129 37.1484C153.547 32.936 154.824 28.3167 156.927 23.9892C157.533 22.7433 157.794 22.8498 159.13 23.2262C161.697 23.9492 164.245 24.7582 166.807 25.5028C176.165 28.2233 185.34 31.501 194.389 35.0909C195.268 35.44 197.232 36.4089 198.003 35.3552C198.892 34.1402 196.835 32.6421 196.002 32.0309C192.358 29.3579 187.843 27.7355 183.762 25.8602C174.84 21.7613 164.961 19.8156 155.652 16.7713C135.556 10.198 114.765 5.20574 93.8805 1.90844C88.7839 1.10378 83.633 0.985974 78.5142 0.388677C73.9801 -0.14037 69.4378 -0.128197 64.9042 0.418238C56.5307 1.42808 46.8231 3.60686 42.0939 11.2717C37.8245 18.1924 34.9746 25.9732 36.064 34.1823C36.3913 36.648 37.4355 39.568 40.478 38.9325C42.5886 38.4917 43.7093 36.6985 44.6891 34.9483C46.1697 32.3044 47.6321 29.6604 49.2367 27.0874C49.8318 30.9455 47.6691 34.7392 48.009 38.6694C48.2403 41.3364 49.714 45.5501 53.1765 44.795C57.9222 43.7604 59.8754 36.3463 62.1572 32.7895C62.2729 35.5291 61.3126 38.2291 61.6064 40.9747C61.8964 43.6869 64.0156 46.2474 66.9921 45.8757C69.7995 45.5253 71.624 42.5175 72.8164 40.2531C74.4757 37.1019 75.6677 33.7233 77.2883 30.5512C78.8072 27.5777 80.6065 24.0379 84.2329 23.4792C87.4693 22.9802 91.1783 24.1352 94.3752 24.6117C103.243 25.9332 111.932 28.1833 120.703 30.0013C130.107 31.9501 139.733 33.1338 148.847 36.2785C145.643 40.6404 137.256 39.698 132.482 40.1662C125.268 40.8739 117.961 41.4064 110.787 42.4506C103.702 43.4817 96.7652 45.3123 89.7355 46.6412C82.7427 47.9632 75.762 49.2873 68.9957 51.5418C56.4329 55.7276 43.6606 61.025 32.5919 68.3287C27.4418 71.7273 22.8669 75.6114 19.6857 80.9758C16.484 86.3736 14.9456 92.4775 14.3587 98.6865C13.9935 102.553 14.6139 105.899 15.3629 109.662C15.9054 112.386 16.081 116.947 18.2655 118.942C22.4348 122.75 25.8964 107.306 26.6663 105.44C27.2206 108.497 26.3142 125.719 33.004 124.318C35.9896 123.693 36.6669 119.595 37.162 117.127C38.0654 112.627 38.8744 108.037 40.4194 103.704C41.4109 109.543 41.8244 115.626 43.9605 121.203C45.3794 124.907 49.4279 131.479 52.2505 125.138C54.3676 120.383 53.6412 114.925 53.895 109.876C54.1763 104.281 55.7826 98.8847 56.3512 93.3447C56.5716 91.1985 56.372 88.7798 58.5287 87.6087C60.3801 86.6036 63.0875 86.2763 65.1089 85.715C71.0962 84.0527 77.1227 82.5247 83.0817 80.7611C89.0434 78.9961 94.9225 76.9343 100.805 74.922C106.43 72.9975 112.174 71.9033 117.868 70.2553C121.105 69.3181 124.303 68.3378 127.586 67.5553C129.114 67.1915 130.66 66.908 132.184 66.5311C133.314 66.252 134.802 65.1987 135.964 65.2174C137.159 65.237 137.609 66.249 138.979 66.3286C140.455 66.4138 141.956 66.0882 143.423 65.9756C146.999 65.7013 150.8 65.2579 154.367 65.7534C152.223 68.2965 149.327 70.0545 146.789 72.1611C143.863 74.5907 141.03 77.2142 138.53 80.0833C133.499 85.8563 128.745 91.9584 124.328 98.2126C119.971 104.383 116.463 111.134 113.413 118.032C111.893 121.469 110.417 124.982 109.368 128.595C108.936 130.079 108.584 131.569 107.806 132.918C107.091 134.157 106.085 135.224 106.929 136.719C107.51 136.355 108.033 135.903 108.558 135.466C107.951 139.744 106.64 143.882 105.966 148.147C105.302 152.349 105.329 156.671 105.372 160.914C105.463 169.802 106.123 178.488 107.926 187.205C109.749 196.02 112.091 204.768 115.045 213.271C117.888 221.458 120.741 230.044 124.71 237.761C128.948 246.003 133.99 254.669 140.125 261.645C136.118 263.287 131.018 262.98 126.774 263.641C122.338 264.332 118.501 265.637 114.721 268.091C110.896 270.575 108.82 273.773 108.291 278.302C107.916 281.525 106.8 285.988 111.029 286.835C114.07 287.444 117.471 286.444 120.518 286.196C125.85 285.764 131.189 285.494 136.532 285.261C141.861 285.029 147.192 284.824 152.522 284.659C155.03 284.581 157.539 284.542 160.045 284.452C161.169 284.412 161.85 284.395 162.857 284.719C163.653 284.976 163.595 285.51 164.482 284.85C165.912 283.786 165.618 280.433 165.578 278.958C165.517 276.682 165.301 274.38 164.857 272.148C164.594 270.821 161.396 262.269 163.883 261.909C160.994 258.735 159.84 254.202 158.543 250.223C156.917 245.239 155.49 240.268 154.37 235.142C151.976 224.191 150.919 213.121 150.919 201.916C162.012 208.753 173.749 212.457 186.814 212.87C199.805 213.281 214.076 212.214 226.411 207.893C232.123 205.891 237.24 203.263 242.137 199.722C243.892 198.453 245.773 195.579 248.077 195.628C250.827 195.687 253.906 196.728 256.636 197.173C261.858 198.024 268.673 198.505 273.094 201.735C275.496 203.489 277.217 205.945 279.36 207.966C280.99 209.504 283.146 210.339 284.764 211.877C286.51 213.537 285.816 215.704 288.711 215.839C291.185 215.953 293.898 214.958 296.032 213.789C300.29 211.458 304.824 206.482 300.889 201.759Z" fill="black"/>
<path fill-rule="evenodd" clip-rule="evenodd" d="M259.967 90.8682C266.198 95.294 273.344 98.3175 279.856 102.303C281.485 103.301 286.563 105.372 286.514 107.223C286.485 108.305 284.959 109.662 284.291 110.412C283.146 111.696 282.07 112.994 281.013 114.353C276.178 120.576 271.625 126.858 266.385 132.768C265.596 133.657 263.22 137.902 262.452 135.794C262.105 134.838 262.391 133.764 261.485 132.872C261.018 132.413 259.215 132.16 259.741 131.176C260.091 131.333 260.441 131.491 260.791 131.648C260.519 130.861 260.539 129.999 260.131 129.255C259.878 128.793 259.383 128.574 259.211 128.054C258.974 127.335 259.376 126.5 259.309 125.758C259.242 125.019 258.859 124.321 258.631 123.623C257.275 119.49 256.788 115.323 256.094 111.059C255.407 106.839 254.338 102.752 253.918 98.4848C253.474 93.9782 252.93 89.4806 252.204 85.01C253.499 85.1917 254.495 86.5989 255.411 87.3944C256.851 88.6446 258.414 89.7649 259.967 90.8682ZM255.083 134.499C254.785 134.266 254.553 133.979 254.385 133.639C257.439 132.126 255.596 134.707 255.083 134.499ZM253.226 131.273C251.894 131.64 250.938 131.714 249.912 131.166C249.814 131.114 249.926 130.714 249.751 130.632C249.597 130.561 249.363 130.649 249.232 130.582C248.785 130.355 248.002 130.853 247.926 129.982C249.625 129.463 251.296 128.503 253.089 128.341C255.582 128.117 255.467 130.655 253.226 131.273ZM247.393 126.256C245.577 126.681 244.081 127.673 242.151 127.414C240.34 127.171 238.766 126.232 237.337 125.149C240.911 124.137 244.66 123.955 248.232 122.976C249.394 122.657 250.922 121.817 252.176 122.155C253.568 122.532 253.656 123.836 254.073 125.023C251.845 125.424 249.6 125.741 247.393 126.256ZM236.034 121.22C234.289 121.637 232.505 122.549 231.046 120.976C230.811 120.722 230.605 120.975 230.633 120.193C230.662 119.368 231.41 118.837 232.054 118.547C233.568 117.864 235.69 118.306 237.297 118.205C239.862 118.046 242.472 117.513 245.008 117.102C246.764 116.818 248.578 116.188 250.373 116.312C251.759 116.409 253.431 117.59 251.411 118.451C249.572 119.236 246.814 119.116 244.822 119.456C241.876 119.958 238.941 120.526 236.034 121.22ZM234.329 113.011C234.442 113.126 234.555 113.242 234.668 113.357C234.65 113.352 235.337 112.796 235.52 112.78C236.404 112.703 237.294 112.763 238.18 112.713C240.221 112.598 242.279 112.243 244.284 111.851C245.917 111.532 247.581 110.982 249.262 111.12C250.717 111.239 250.87 111.537 250.965 112.942C247.25 112.942 243.424 112.863 239.772 113.65C237.395 114.161 234.776 115.686 233.585 112.938C233.833 112.963 234.081 112.987 234.329 113.011ZM236.652 107.065C237.573 107.766 240.085 106.6 241.189 106.483C242.388 106.356 243.516 106.224 244.678 105.926C245.708 105.661 249.117 104.337 249.907 105.603C251.118 107.543 246.213 107.899 245.435 107.995C242.173 108.398 238.789 108.755 235.615 109.611C235.961 108.762 236.306 107.914 236.652 107.065ZM241.126 100.475C241.364 101.372 248.741 98.0671 248.875 100.469C248.978 102.312 241.577 103.23 240.246 103.068C240.558 102.219 241.387 101.46 241.126 100.475ZM243.603 94.838C243.76 93.0292 244.002 93.0396 245.453 92.8692C246.559 92.7392 248.08 92.0906 247.792 94.0625C247.546 95.7509 243.445 96.6634 243.603 94.838ZM246.239 88.6142C246.588 87.6431 247.374 88.9503 247.39 89.4441C247.434 90.7582 246.438 90.4739 245.479 90.4739C245.746 89.8601 246 89.2393 246.239 88.6142ZM258.379 81.3245C258.184 81.0889 257.086 80.9989 256.773 80.8846C256.005 80.6029 256.114 80.0025 255.13 80.5946C255.081 80.5451 255.175 80.0999 255.121 80.0795C255.094 80.069 254.405 79.8091 254.181 79.6656C253.641 79.3196 253.154 78.981 252.658 78.5467C252.13 78.0854 251.601 77.416 250.998 77.0487C250.744 76.8939 250.536 76.6744 250.23 76.627C249.435 76.5044 249.663 77.0582 248.968 77.1682C248.539 77.236 248.228 76.7361 247.668 76.9517C247.184 77.1378 246.903 77.8164 246.687 78.2202C245.904 79.69 245.299 81.2719 244.532 82.7573C240.608 90.3531 236.148 97.6606 232.347 105.327C230.517 109.021 228.607 112.74 227.318 116.665C226.389 119.495 224.291 123.631 226.096 126.46C227.409 128.516 230.037 129.404 232.133 130.398C235.288 131.893 238.196 133.848 241.386 135.298C245.189 137.027 248.882 138.835 252.59 140.766C254.171 141.589 255.597 142.775 257.173 143.555C258.137 144.032 259.625 143.218 259.939 144.311C261.147 142.848 263.103 143.823 264.5 142.793C265.322 142.187 265.923 140.993 266.609 140.247C267.637 139.128 268.753 138.09 269.803 136.99C273.968 132.624 277.814 128.076 281.603 123.386C285.223 118.907 289.451 114.675 292.508 109.773C293.723 107.826 293.943 105.785 293.141 103.635C292.556 102.067 291.147 99.6986 289.134 100.737C289.897 99.4695 286.952 98.1158 286.059 97.868C286.046 97.8645 285.869 98.8383 285.62 98.8139C285.709 98.8226 284.872 96.6564 284.504 96.3786C283.412 95.5523 282.084 94.5881 280.892 93.9077C279.799 93.2839 278.646 92.9748 277.587 92.2767C276.304 91.4307 275.126 90.4274 273.838 89.5871C272.594 88.7759 271.208 87.817 269.833 87.2592C268.641 86.7754 267.571 86.6806 266.499 85.8877C265.172 84.9065 264.015 84.241 262.484 83.565C261.161 82.9803 259.326 82.4695 258.379 81.3245Z" fill="black"/>
<path fill-rule="evenodd" clip-rule="evenodd" d="M77.6871 198.803C77.9306 198.231 78.1731 197.66 78.4166 197.089C78.7174 198.085 78.8017 198.58 77.6871 198.803ZM78.011 201.443C77.4837 201.538 77.6915 199.884 77.6915 199.596C78.6022 200.111 77.848 200.729 78.011 201.443ZM77.1889 196.672C77.6384 196.406 78.0879 196.141 78.5374 195.875C77.9114 197.035 78.157 196.31 78.4153 197.085C77.9432 197.221 77.4841 197.062 77.1889 196.672ZM74.525 205.736C72.8401 211.85 67.4883 216.671 61.8357 219.169C58.5875 220.603 55.3941 220.962 51.8864 220.802C50.5336 220.74 48.9417 220.301 47.6397 220.383C46.6372 220.446 46.6824 220.489 45.8521 221.338C45.4848 220.661 45.7509 220.187 45.014 219.793C44.0946 219.302 43.7129 219.874 43.2569 220.554C42.66 219.935 42.4157 219.612 41.6424 219.245C41.6667 219.257 40.9021 219.228 40.9334 219.237C40.7951 219.195 39.9635 218.66 39.7031 218.563C38.6346 218.162 37.3991 217.997 36.4132 217.422C35.5507 216.92 34.8404 215.51 33.8536 216.593C33.8527 214.783 31.4144 214.032 30.2716 213.084C28.4858 211.603 27.066 209.409 26.1757 207.287C25.2263 205.025 24.9094 202.855 24.4651 200.524C24.1547 198.894 22.122 196.539 23.3427 194.895C23.6335 195.584 23.497 196.29 23.98 196.916C24.4147 196.078 24.6538 195.141 24.8503 194.224C24.9468 193.775 25.5058 192.457 25.4423 192.065C25.3132 191.265 24.3221 191.221 24.8716 190.24C26.0114 191.48 26.9312 189.302 26.0701 188.434C25.6449 188.913 25.4888 189.458 25.2928 190.052C24.1721 187.79 27.2738 188.518 26.5952 186.476C27.7272 186.258 28.378 185.973 28.8083 184.854C29.2869 183.61 28.9348 183.339 30.0216 182.516C30.3955 182.234 31.4527 181.827 31.6461 181.362C32.0204 180.463 31.068 180.197 31.9022 179.355C32.1839 179.849 33.282 180.828 33.8832 179.896C34.0036 179.711 33.498 179.579 33.8658 179.151C34.4105 178.518 35.0199 177.898 35.9411 178.031C35.2117 176.207 39.8727 176.063 41.0664 175.632C42.2627 175.202 43.2778 174.919 44.5463 174.819C45.8135 174.719 45.8765 174.347 46.9494 173.584C47.0402 174.676 47.3028 174.436 48.0788 174.629C48.2652 174.309 48.4565 174.273 48.6521 174.521C48.8469 174.706 49.0851 174.793 49.3659 174.783C49.792 174.805 50.2754 174.749 50.7218 174.758C51.7699 174.779 52.851 174.691 53.8791 174.713C54.1443 174.669 54.3921 174.577 54.6242 174.436C54.7212 174.619 54.8186 174.802 54.9151 174.985C55.4598 175.053 55.5019 175.736 56.1718 174.989C56.3701 175.938 56.9395 175.445 57.5412 175.702C58.0898 175.937 58.1772 176.313 58.6836 176.575C59.0166 176.845 59.3735 176.88 59.7552 176.683C60.1182 176.952 60.4868 177.213 60.8606 177.466C61.5497 177.856 62.3617 178.094 63.0877 178.401C63.5706 178.6 64.0506 178.808 64.5266 179.022C64.5409 179.597 64.7987 179.8 65.2995 179.631C65.752 180.01 65.8794 179.995 66.3185 180.639C67.3131 182.1 68.1956 183.236 69.4519 184.541C74.9123 190.219 76.5899 198.245 74.525 205.736ZM76.2008 181.595C73.7356 178.294 70.2461 174.513 67.1105 172.429C65.5212 171.371 63.2903 169.474 61.3467 168.915C60.8859 168.782 60.409 168.773 59.956 168.634C59.6061 168.527 59.4157 168.168 59.0166 168.103C58.7375 168.058 58.7066 168.683 58.4102 168.625C57.7903 168.504 57.3973 167.889 56.9595 167.505C56.0192 169.125 55.5089 166.4 54.1282 168.232C52.485 165.655 48.6248 166.219 46.0008 166.349C45.2227 166.387 44.8571 166.664 44.1672 166.869C43.5251 167.06 43.4617 167.011 42.7605 167.005C41.0142 166.992 39.464 167.212 37.8499 167.978C35.1382 169.266 32.649 171.273 30.0733 172.826C27.1947 174.561 24.5999 176.769 22.3976 179.307C14.4362 188.482 12.3075 201.874 18.6556 212.51C28.7388 229.404 54.7481 231.209 69.4862 219.747C80.8727 210.89 85.2059 193.651 76.2008 181.595Z" fill="black"/>
<path fill-rule="evenodd" clip-rule="evenodd" d="M201.002 134.056C200.719 134.731 198.077 134.504 198.019 133.708C197.933 132.518 201.494 132.882 201.002 134.056ZM203.809 133.614C205.307 133.736 207.767 134.753 209.211 134.138C211.413 133.2 209.1 131.76 207.919 131.33C206.716 130.892 204.925 131.125 204.307 129.868C203.842 128.922 204.991 126.283 203.565 126.707C202.069 127.152 202.504 130.933 200.156 129.659C199.037 129.05 199.493 125.346 197.618 127.239C197.104 127.756 197.06 128.707 196.38 129.093C195.686 129.487 194.816 129.077 194.083 129.111C192.144 129.202 191.526 131.016 193.491 131.735C194.218 132.002 196.96 132.327 195.299 133.515C194.253 134.264 191.928 132.693 191.03 133.996C189.795 135.786 193.103 135.827 193.991 136.362C195.497 137.269 194.253 139.388 194.373 140.896C194.557 143.201 195.896 142.719 196.383 140.769C196.795 139.114 196.284 136.731 198.779 137.389C202.842 138.46 196.52 143.618 199.496 144.938C201.393 145.78 201.662 141.23 201.809 140.447C202.355 137.556 203.979 138.23 206.439 138.319C209.314 138.422 210.007 136.296 206.964 135.687C205.992 135.493 204.657 135.739 203.813 135.12C203.314 134.754 202.628 133.518 203.809 133.614Z" fill="black"/>
<path fill-rule="evenodd" clip-rule="evenodd" d="M97.6853 228.076C95.3591 227.243 91.4676 227.423 90.892 230.427C90.6512 231.685 91.1202 233.015 91.9888 233.929C92.996 234.988 94.6001 235.086 94.5145 233.241C94.4549 231.965 93.2399 230.856 95.3761 230.598C96.7054 230.438 98.6716 231.432 98.7377 232.901C98.8872 236.211 93.1577 236.47 91.0463 235.898C86.8557 234.762 87.9942 230.373 90.872 228.37C91.6154 227.852 93.7485 227.055 93.8459 225.98C93.9754 224.554 92.2122 224.845 91.348 225.033C84.9955 226.416 83.611 237.058 90.2486 239.064C93.2629 239.975 97.5079 239.034 99.3246 236.304C101.028 233.745 101.051 229.281 97.6853 228.076Z" fill="black"/>
<path fill-rule="evenodd" clip-rule="evenodd" d="M13.4575 152.741C11.4717 153.697 9.48594 154.653 7.5006 155.609C6.84418 154.204 5.73523 150.367 4.07027 149.877C1.37505 149.083 3.0913 153.266 3.55644 154.223C3.93855 155.008 4.82494 156.225 4.60975 157.162C4.3211 158.423 2.54138 158.87 1.60979 159.521C-0.695494 161.132 -0.67724 164.515 2.66136 163.082C4.55063 162.27 6.88982 160.02 8.33785 162.575C9.00644 163.754 10.5905 170.341 12.2451 166.033C13.2688 163.366 8.34134 160.595 10.7705 158.339C11.5526 157.613 12.4681 157.552 13.2493 157.134C15.1359 156.126 14.0722 154.264 13.4575 152.741Z" fill="black"/>
<path fill-rule="evenodd" clip-rule="evenodd" d="M304.58 57.3037C303.396 56.8707 301.932 56.0252 300.616 56.3134C299.218 56.6194 298.655 58.0201 297.638 58.8621C294.873 61.1517 293.263 57.7392 291.744 55.8691C290.31 54.1033 288.56 53.6747 286.536 54.7597C285.729 55.1922 282.332 57.1741 282.924 58.4439C283.35 59.3577 285.029 58.5374 285.601 58.3378C286.844 57.9053 287.998 57.5267 289.27 58.1574C291.654 59.3398 292.273 62.5824 295.157 63.088C298.14 63.6109 298.238 60.7722 300.367 59.7037C301.794 58.9877 302.788 60.2554 304.165 60.0028C305.477 59.7624 306.084 57.8531 304.58 57.3037Z" fill="black"/>
<path fill-rule="evenodd" clip-rule="evenodd" d="M280.497 68.7444C281.552 68.9735 282.24 66.9273 282.9 66.4083C283.996 65.548 285.895 65.3745 287.011 66.2405C289.189 67.9306 288.438 71.5796 291.54 72.5308C294.312 73.3811 295.618 69.7299 297.952 68.8209C299.308 68.2923 300.798 67.9463 300.268 66.0496C299.903 64.7381 298.825 64.4012 297.654 64.905C295.642 65.7701 294.958 69.2943 292.572 69.3574C290.103 69.4226 289.835 65.8636 288.776 64.3134C287.16 61.9507 283.838 61.3799 281.951 63.6391C281.381 64.3208 278.487 68.3093 280.497 68.7444Z" fill="black"/>
<path fill-rule="evenodd" clip-rule="evenodd" d="M231.696 28.3985C233.164 29.4027 236.089 29.3679 237.441 28.1225C238.817 26.8553 236.98 26.6605 235.859 26.6992C234.997 26.7292 233.384 27.1565 233.875 25.6676C234.311 24.3465 236.707 25.019 236.907 23.5688C235.104 23.2454 233.117 23.3619 231.783 24.7795C230.818 25.8041 230.323 27.4582 231.696 28.3985Z" fill="black"/>
</svg>
